<svg width="21" height="20" viewBox="0 0 21 20" fill="none" xmlns="http://www.w3.org/2000/svg">
<path d="M0.878461 9.96817C0.924028 12.5898 1.99747 15.0887 3.86759 16.9266C5.73772 18.7645 8.25489 19.7944 10.877 19.7944C13.499 19.7944 16.0162 18.7645 17.8863 16.9266C19.7564 15.0887 20.8299 12.5898 20.8754 9.96817C20.8299 7.34649 19.7564 4.8476 17.8863 3.0097C16.0162 1.1718 13.499 0.141946 10.877 0.141947C8.25489 0.141946 5.73772 1.1718 3.86759 3.0097C1.99747 4.8476 0.924028 7.34649 0.878461 9.96817ZM10.58 6.26293L13.5781 9.26106C13.7656 9.4486 13.871 9.70295 13.871 9.96817C13.871 10.2334 13.7656 10.4877 13.5781 10.6753L10.58 13.6734C10.3924 13.8609 10.1381 13.9663 9.87286 13.9663C9.60764 13.9663 9.35329 13.8609 9.16575 13.6734C8.97822 13.4859 8.87286 13.2315 8.87286 12.9663C8.87286 12.7011 8.97822 12.4467 9.16575 12.2592L11.4568 9.96817L9.16575 7.67714C8.97822 7.4896 8.87286 7.23525 8.87286 6.97003C8.87286 6.70482 8.97822 6.45046 9.16575 6.26293C9.35329 6.07539 9.60764 5.97003 9.87286 5.97003C10.1381 5.97003 10.3924 6.07539 10.58 6.26293Z" fill="white"/>
</svg>
