<svg width="20" height="20" viewBox="0 0 20 20" fill="none" xmlns="http://www.w3.org/2000/svg">
<path d="M16.9471 2.80712C15.0611 0.985538 12.5351 -0.0224062 9.91311 0.000378026C7.29114 0.0231622 4.78301 1.07485 2.92893 2.92893C1.07485 4.78301 0.0231622 7.29114 0.000378026 9.91311C-0.0224062 12.5351 0.985538 15.0611 2.80712 16.9471C4.69314 18.7687 7.21916 19.7766 9.84113 19.7539C12.4631 19.7311 14.9712 18.6794 16.8253 16.8253C18.6794 14.9712 19.7311 12.4631 19.7539 9.84113C19.7766 7.21916 18.7687 4.69314 16.9471 2.80712ZM12.7071 12.2871H8.46712C8.2019 12.2871 7.94755 12.1818 7.76001 11.9942C7.57248 11.8067 7.46712 11.5523 7.46712 11.2871V7.04712C7.46712 6.7819 7.57248 6.52755 7.76001 6.34001C7.94755 6.15248 8.2019 6.04712 8.46712 6.04712C8.73234 6.04712 8.98669 6.15248 9.17422 6.34001C9.36176 6.52755 9.46712 6.7819 9.46712 7.04712V10.2871H12.7071C12.9723 10.2871 13.2267 10.3925 13.4142 10.58C13.6018 10.7675 13.7071 11.0219 13.7071 11.2871C13.7071 11.5523 13.6018 11.8067 13.4142 11.9942C13.2267 12.1818 12.9723 12.2871 12.7071 12.2871Z" fill="white"/>
</svg>
