<svg width="20" height="21" viewBox="0 0 20 21" fill="none" xmlns="http://www.w3.org/2000/svg">
<path d="M9.96835 0.969863C7.34668 1.01543 4.84779 2.08887 3.00989 3.959C1.17199 5.82912 0.142136 8.34629 0.142136 10.9684C0.142136 13.5904 1.17199 16.1076 3.00989 17.9777C4.84779 19.8478 7.34668 20.9213 9.96835 20.9668C12.59 20.9213 15.0889 19.8478 16.9268 17.9777C18.7647 16.1076 19.7946 13.5904 19.7946 10.9684C19.7946 8.34629 18.7647 5.82912 16.9268 3.959C15.0889 2.08887 12.59 1.01543 9.96835 0.969863ZM13.6736 10.6714L10.6755 13.6695C10.4879 13.857 10.2336 13.9624 9.96835 13.9624C9.70314 13.9624 9.44878 13.857 9.26125 13.6695L6.26312 10.6714C6.07558 10.4838 5.97022 10.2295 5.97022 9.96426C5.97022 9.69905 6.07558 9.44469 6.26312 9.25716C6.45065 9.06962 6.70501 8.96426 6.97022 8.96426C7.23544 8.96426 7.48979 9.06962 7.67733 9.25716L9.96835 11.5482L12.2594 9.25715C12.4469 9.06962 12.7013 8.96426 12.9665 8.96426C13.2317 8.96426 13.4861 9.06962 13.6736 9.25715C13.8611 9.44469 13.9665 9.69905 13.9665 9.96426C13.9665 10.2295 13.8611 10.4838 13.6736 10.6714Z" fill="white"/>
</svg>
