<svg width="59" height="56" viewBox="0 0 59 56" fill="none" xmlns="http://www.w3.org/2000/svg">
<path d="M10.2519 4.82115C11.2927 4.79515 12.6309 5.18081 13.4022 5.51101C14.3538 5.91835 15.1823 4.53515 14.2229 4.12348C12.3267 3.31055 10.2155 2.90321 8.18833 3.47955C6.24959 4.03075 5.98613 6.37941 7.61113 7.43155C9.13473 8.41781 11.1289 7.60661 12.6924 8.37708C13.3121 8.68301 12.8787 9.26195 12.4333 9.43615C11.9618 9.61988 11.4349 9.63461 10.9357 9.63808C9.90259 9.64501 8.60693 9.48035 7.72206 8.93348C6.83113 8.38141 6.01559 9.77241 6.90133 10.3201C8.46133 11.2847 10.8464 11.4555 12.6187 11.0577C14.3937 10.6607 15.3782 8.56081 13.8745 7.24521C12.5598 6.09341 10.5093 6.60821 8.93713 6.23728C8.48299 6.13068 7.79053 5.77448 8.28279 5.21288C8.67539 4.76308 9.72666 4.83328 10.2519 4.82115Z" fill="#4B352A"/>
<path d="M39.8129 3.21273C39.5992 3.21361 39.3944 3.29824 39.2424 3.44845C39.0904 3.59866 39.0034 3.80247 39 4.01613V10.4407C39 11.4764 40.625 11.4764 40.625 10.4407V8.04266C42.5195 8.07473 45.2851 8.0522 45.4766 5.889C45.747 2.8236 41.8626 3.21273 39.8129 3.21273ZM43.7736 5.94013C43.2614 6.5806 41.7309 6.51906 40.625 6.45926V4.81346C42.042 4.8152 44.5796 4.927 43.7736 5.94013Z" fill="#4B352A"/>
<path d="M24.375 4.01617V6.42464H19.5V4.01617C19.5 2.9805 17.875 2.9805 17.875 4.01617V10.4408C17.875 11.4764 19.5 11.4764 19.5 10.4408V8.03144H24.375V10.4408C24.375 11.4764 26 11.4764 26 10.4408V4.01617C26 2.97964 24.375 2.97964 24.375 4.01617Z" fill="#4B352A"/>
<path d="M32.4999 3.21289C30.2596 3.21289 28.437 5.01382 28.437 7.22816C28.437 9.44336 30.2596 11.2443 32.4999 11.2443C34.7403 11.2443 36.5629 9.44336 36.5629 7.22816C36.5629 5.01382 34.7403 3.21289 32.4999 3.21289ZM32.4999 9.63749C31.1557 9.63749 30.062 8.55676 30.062 7.22816C30.062 5.90042 31.1557 4.81882 32.4999 4.81882C33.8441 4.81882 34.9379 5.90042 34.9379 7.22816C34.9379 8.55676 33.8441 9.63749 32.4999 9.63749Z" fill="#4B352A"/>
<path d="M4.06293 8.0316C4.5119 8.0316 4.87587 7.67191 4.87587 7.2282C4.87587 6.7845 4.5119 6.4248 4.06293 6.4248C3.61396 6.4248 3.25 6.7845 3.25 7.2282C3.25 7.67191 3.61396 8.0316 4.06293 8.0316Z" fill="#4B352A"/>
<path d="M47.9379 8.0316C48.3869 8.0316 48.7509 7.67191 48.7509 7.2282C48.7509 6.7845 48.3869 6.4248 47.9379 6.4248C47.489 6.4248 47.125 6.7845 47.125 7.2282C47.125 7.67191 47.489 8.0316 47.9379 8.0316Z" fill="#4B352A"/>
<path d="M12.59 30.7363C11.4977 30.7376 10.4348 31.0909 9.55907 31.7437C8.68329 32.3966 8.04121 33.3143 7.72803 34.3607H17.4538C17.1401 33.3142 16.4977 32.3965 15.6216 31.7437C14.7456 31.0909 13.6826 30.7376 12.59 30.7363Z" fill="#4B352A"/>
<path d="M50.375 0H1.625C0.731467 0 0 0.7228 0 1.6068V21.6857C0 22.8713 0.6708 23.8957 1.63887 24.4521V48.8956H0.866667V52H51.1333V48.8947H50.3611V24.4513C51.3292 23.894 52 22.8705 52 21.6849V1.6068C52 0.7228 51.2685 0 50.375 0ZM1.21853 21.6849V14.456H5.28147V21.6849C5.28147 22.7916 4.3706 23.6921 3.25 23.6921C2.1294 23.6921 1.21853 22.7916 1.21853 21.6849ZM17.6653 35.8098V48.8947H7.5166V35.8098H6.06667C6.08646 34.0928 6.78241 32.4529 8.00355 31.2457C9.2247 30.0386 10.8725 29.3616 12.5896 29.3616C14.3067 29.3616 15.9546 30.0386 17.1757 31.2457C18.3969 32.4529 19.0928 34.0928 19.1126 35.8098H17.6653ZM44.4834 43.784H22.7379V29.2873H44.4834V43.784ZM48.75 25.532H3.25V24.8967C5.04487 24.8967 6.5 23.4589 6.5 21.6849C6.5 23.4589 7.95513 24.8967 9.75 24.8967C11.5449 24.8967 13 23.4581 13 21.6849C13 23.4589 14.4551 24.8967 16.25 24.8967C18.0449 24.8967 19.5 23.4589 19.5 21.6849C19.5 23.4589 20.9551 24.8967 22.75 24.8967C24.5449 24.8967 26 23.4581 26 21.6849C26 23.4589 27.4551 24.8967 29.25 24.8967C31.0449 24.8967 32.5 23.4589 32.5 21.6849C32.5 23.4589 33.9551 24.8967 35.75 24.8967C37.5449 24.8967 39 23.4581 39 21.6849C39 23.4589 40.4551 24.8967 42.25 24.8967C44.0449 24.8967 45.5 23.4589 45.5 21.6849C45.5 23.4589 46.9551 24.8967 48.75 24.8967V25.532ZM14.2185 21.6849V14.456H18.2815V21.6849C18.2815 22.7916 17.3706 23.6921 16.25 23.6921C15.1294 23.6921 14.2185 22.7916 14.2185 21.6849ZM27.2185 21.6849V14.456H31.2815V21.6849C31.2815 22.7916 30.3706 23.6921 29.25 23.6921C28.1294 23.6921 27.2185 22.7916 27.2185 21.6849ZM40.2185 21.6849V14.456H44.2815V21.6849C44.2815 22.7916 43.3706 23.6921 42.25 23.6921C41.1294 23.6921 40.2185 22.7916 40.2185 21.6849ZM50.375 12.0467C50.3729 12.2608 50.2863 12.4654 50.1341 12.6158C49.9818 12.7663 49.7762 12.8505 49.5621 12.8501H2.43793C2.22383 12.8505 2.01823 12.7663 1.86595 12.6158C1.71367 12.4654 1.62706 12.2608 1.625 12.0467V2.40933C1.625 1.96647 1.99073 1.60593 2.43793 1.60593H49.5629C50.0101 1.60593 50.3759 1.96647 50.3759 2.40933L50.375 12.0467Z" fill="#4B352A"/>
<path d="M14.7646 39.4341C14.3659 39.4341 14.04 39.8613 14.04 40.3865V41.8165C14.04 42.34 14.3018 43.0264 14.6198 43.341L14.9084 43.6253C15.2282 43.9408 15.49 43.77 15.49 43.2439V40.3865C15.49 39.8613 15.1641 39.4341 14.7646 39.4341Z" fill="#4B352A"/>
<path d="M49 36.25C54.3847 36.25 58.75 40.6152 58.75 46C58.75 51.3847 54.3847 55.75 49 55.75C43.6152 55.75 39.25 51.3847 39.25 46C39.25 40.6152 43.6152 36.25 49 36.25ZM53.207 42.793C52.8165 42.4025 52.1835 42.4025 51.793 42.793L49.5576 45.0273L47.499 47.085L46.207 45.793C45.8165 45.4025 45.1835 45.4025 44.793 45.793C44.4025 46.1835 44.4025 46.8165 44.793 47.207L46.793 49.207C47.1835 49.5975 47.8165 49.5976 48.207 49.207L53.207 44.207C53.5976 43.8165 53.5975 43.1835 53.207 42.793Z" fill="#217C0D" stroke="#CCAFA0" stroke-width="0.5"/>
</svg>
