<svg width="52" height="52" viewBox="0 0 52 52" fill="none" xmlns="http://www.w3.org/2000/svg">
<path d="M10.2519 4.82127C11.2927 4.79527 12.6309 5.18094 13.4022 5.51114C14.3538 5.91847 15.1823 4.53527 14.2229 4.1236C12.3267 3.31067 10.2155 2.90333 8.18833 3.47967C6.24959 4.03087 5.98613 6.37953 7.61113 7.43167C9.13473 8.41793 11.1289 7.60674 12.6924 8.3772C13.3121 8.68314 12.8787 9.26207 12.4333 9.43627C11.9618 9.62 11.4349 9.63474 10.9357 9.6382C9.90259 9.64514 8.60693 9.48047 7.72206 8.9336C6.83113 8.38153 6.01559 9.77253 6.90133 10.3203C8.46133 11.2849 10.8464 11.4556 12.6187 11.0578C14.3937 10.6609 15.3782 8.56093 13.8745 7.24533C12.5598 6.09353 10.5093 6.60833 8.93713 6.2374C8.48299 6.1308 7.79053 5.7746 8.28279 5.213C8.67539 4.7632 9.72666 4.8334 10.2519 4.82127Z" fill="#4B352A"/>
<path d="M39.8129 3.21273C39.5992 3.21361 39.3944 3.29824 39.2424 3.44845C39.0904 3.59866 39.0034 3.80247 39 4.01613V10.4407C39 11.4764 40.625 11.4764 40.625 10.4407V8.04266C42.5195 8.07473 45.2851 8.0522 45.4766 5.889C45.747 2.8236 41.8626 3.21273 39.8129 3.21273ZM43.7736 5.94013C43.2614 6.5806 41.7309 6.51906 40.625 6.45926V4.81346C42.042 4.8152 44.5796 4.927 43.7736 5.94013Z" fill="#4B352A"/>
<path d="M24.375 4.01617V6.42464H19.5V4.01617C19.5 2.9805 17.875 2.9805 17.875 4.01617V10.4408C17.875 11.4764 19.5 11.4764 19.5 10.4408V8.03144H24.375V10.4408C24.375 11.4764 26 11.4764 26 10.4408V4.01617C26 2.97964 24.375 2.97964 24.375 4.01617Z" fill="#4B352A"/>
<path d="M32.5002 3.21277C30.2599 3.21277 28.4373 5.0137 28.4373 7.22804C28.4373 9.44324 30.2599 11.2442 32.5002 11.2442C34.7405 11.2442 36.5631 9.44324 36.5631 7.22804C36.5631 5.0137 34.7405 3.21277 32.5002 3.21277ZM32.5002 9.63737C31.156 9.63737 30.0623 8.55664 30.0623 7.22804C30.0623 5.9003 31.156 4.8187 32.5002 4.8187C33.8444 4.8187 34.9381 5.9003 34.9381 7.22804C34.9381 8.55664 33.8444 9.63737 32.5002 9.63737Z" fill="#4B352A"/>
<path d="M4.06293 8.03148C4.5119 8.03148 4.87587 7.67179 4.87587 7.22808C4.87587 6.78438 4.5119 6.42468 4.06293 6.42468C3.61396 6.42468 3.25 6.78438 3.25 7.22808C3.25 7.67179 3.61396 8.03148 4.06293 8.03148Z" fill="#4B352A"/>
<path d="M47.9379 8.03148C48.3869 8.03148 48.7509 7.67179 48.7509 7.22808C48.7509 6.78438 48.3869 6.42468 47.9379 6.42468C47.489 6.42468 47.125 6.78438 47.125 7.22808C47.125 7.67179 47.489 8.03148 47.9379 8.03148Z" fill="#4B352A"/>
<path d="M12.5903 30.7363C11.4979 30.7376 10.4351 31.0909 9.55931 31.7437C8.68354 32.3966 8.04146 33.3143 7.72827 34.3607H17.454C17.1404 33.3142 16.4979 32.3965 15.6219 31.7437C14.7458 31.0909 13.6828 30.7376 12.5903 30.7363Z" fill="#4B352A"/>
<path d="M50.375 0H1.625C0.731467 0 0 0.7228 0 1.6068V21.6857C0 22.8713 0.6708 23.8957 1.63887 24.4521V48.8956H0.866667V52H51.1333V48.8947H50.3611V24.4513C51.3292 23.894 52 22.8705 52 21.6849V1.6068C52 0.7228 51.2685 0 50.375 0ZM1.21853 21.6849V14.456H5.28147V21.6849C5.28147 22.7916 4.3706 23.6921 3.25 23.6921C2.1294 23.6921 1.21853 22.7916 1.21853 21.6849ZM17.6653 35.8098V48.8947H7.5166V35.8098H6.06667C6.08646 34.0928 6.78241 32.4529 8.00355 31.2457C9.2247 30.0386 10.8725 29.3616 12.5896 29.3616C14.3067 29.3616 15.9546 30.0386 17.1757 31.2457C18.3969 32.4529 19.0928 34.0928 19.1126 35.8098H17.6653ZM44.4834 43.784H22.7379V29.2873H44.4834V43.784ZM48.75 25.532H3.25V24.8967C5.04487 24.8967 6.5 23.4589 6.5 21.6849C6.5 23.4589 7.95513 24.8967 9.75 24.8967C11.5449 24.8967 13 23.4581 13 21.6849C13 23.4589 14.4551 24.8967 16.25 24.8967C18.0449 24.8967 19.5 23.4589 19.5 21.6849C19.5 23.4589 20.9551 24.8967 22.75 24.8967C24.5449 24.8967 26 23.4581 26 21.6849C26 23.4589 27.4551 24.8967 29.25 24.8967C31.0449 24.8967 32.5 23.4589 32.5 21.6849C32.5 23.4589 33.9551 24.8967 35.75 24.8967C37.5449 24.8967 39 23.4581 39 21.6849C39 23.4589 40.4551 24.8967 42.25 24.8967C44.0449 24.8967 45.5 23.4589 45.5 21.6849C45.5 23.4589 46.9551 24.8967 48.75 24.8967V25.532ZM14.2185 21.6849V14.456H18.2815V21.6849C18.2815 22.7916 17.3706 23.6921 16.25 23.6921C15.1294 23.6921 14.2185 22.7916 14.2185 21.6849ZM27.2185 21.6849V14.456H31.2815V21.6849C31.2815 22.7916 30.3706 23.6921 29.25 23.6921C28.1294 23.6921 27.2185 22.7916 27.2185 21.6849ZM40.2185 21.6849V14.456H44.2815V21.6849C44.2815 22.7916 43.3706 23.6921 42.25 23.6921C41.1294 23.6921 40.2185 22.7916 40.2185 21.6849ZM50.375 12.0467C50.3729 12.2608 50.2863 12.4654 50.1341 12.6158C49.9818 12.7663 49.7762 12.8505 49.5621 12.8501H2.43793C2.22383 12.8505 2.01823 12.7663 1.86595 12.6158C1.71367 12.4654 1.62706 12.2608 1.625 12.0467V2.40933C1.625 1.96647 1.99073 1.60593 2.43793 1.60593H49.5629C50.0101 1.60593 50.3759 1.96647 50.3759 2.40933L50.375 12.0467Z" fill="#4B352A"/>
<path d="M14.7646 39.4342C14.3659 39.4342 14.04 39.8615 14.04 40.3867V41.8167C14.04 42.3401 14.3018 43.0265 14.6198 43.3411L14.9084 43.6254C15.2282 43.9409 15.49 43.7701 15.49 43.2441V40.3867C15.49 39.8615 15.1641 39.4342 14.7646 39.4342Z" fill="#4B352A"/>
</svg>
