<svg width="35" height="55" viewBox="0 0 35 55" fill="none" xmlns="http://www.w3.org/2000/svg">
<path d="M16.1929 8.57457C18.3047 7.02027 18.7563 4.04584 17.202 1.93319C15.6461 -0.177757 12.6726 -0.6303 10.5616 0.924857C8.44896 2.48001 7.99727 5.45349 9.55158 7.56539C11.1075 9.67793 14.0802 10.1296 16.1929 8.57457Z" fill="#644839"/>
<path d="M6.85879 16.1459L7.17385 15.3909C7.25139 15.2059 7.16553 14.995 6.98379 14.9191L0.810839 12.3489C0.629203 12.2731 0.419197 12.3623 0.342511 12.5489L0.0283008 13.3023C-0.0482785 13.4874 0.0357669 13.6991 0.217509 13.7748L6.39046 16.3442C6.57306 16.421 6.78221 16.3302 6.85879 16.1459Z" fill="#644839"/>
<path d="M34.4584 25.7584C35.1801 25.0375 35.181 23.8666 34.4592 23.1449L28.0205 16.1094L23.1901 10.8315C23.0968 10.7381 22.9935 10.6623 22.891 10.5874C20.8366 8.3689 16.8739 9.48559 15.548 12.1716L12.2127 18.933L5.43642 16.4178C4.4955 16.0212 3.41134 16.4621 3.01383 17.4029C2.61792 18.343 3.05799 19.4264 3.99891 19.823L12.5094 23.8634C13.847 24.4384 14.9088 23.7201 15.2846 23.0766C15.3063 23.0408 15.9238 21.6116 15.9238 21.6116L17.3464 30.0322L12.4435 52.056C12.1435 53.0686 12.8302 54.1653 13.9786 54.507C15.127 54.847 16.302 54.302 16.6022 53.2894L21.3834 40.1301L21.8977 42.347C21.941 42.5761 22.0109 42.7936 22.1018 42.9986C22.1835 43.2069 22.2867 43.4095 22.4193 43.6028L30.1341 53.4385C30.8133 54.4243 32.1633 54.6736 33.1493 53.9934C34.136 53.3151 34.3852 51.965 33.7059 50.9782L27.648 40.8251L24.8544 19.3529L31.8449 25.7583C32.5665 26.4801 33.7366 26.4801 34.4584 25.7584Z" fill="#644839"/>
</svg>
