<svg width="13" height="12" viewBox="0 0 13 12" fill="none" xmlns="http://www.w3.org/2000/svg">
<path d="M11.6316 1.33333H0.684211V0H11.6316V1.33333ZM6.84211 7.66667C6.84211 8.42667 7.13632 9.24 7.52632 10V10.6667H0.684211V6.66667H0V5.33333L0.684211 2H11.6316L12.1105 4.33333C11.6316 4.12 11.1389 4 10.6053 4C8.55263 4 6.84211 5.66667 6.84211 7.66667ZM6.1579 6.66667H2.05263V9.33333H6.1579V6.66667ZM13 7.66667C13 9.4 10.6053 12 10.6053 12C10.6053 12 8.21053 9.4 8.21053 7.66667C8.21053 6.4 9.30526 5.33333 10.6053 5.33333C11.9053 5.33333 13 6.4 13 7.66667ZM11.4263 7.73333C11.4263 7.33333 11.0158 6.93333 10.6053 6.93333C10.1947 6.93333 9.78421 7.26667 9.78421 7.73333C9.78421 8.13333 10.1263 8.53333 10.6053 8.53333C11.0842 8.53333 11.4947 8.13333 11.4263 7.73333Z" fill="#3D1A07"/>
</svg>
