<svg width="16" height="15" viewBox="0 0 16 15" fill="none" xmlns="http://www.w3.org/2000/svg">
<path d="M15.9345 7.54749C15.9004 9.50928 15.0971 11.3792 13.6977 12.7545C12.2983 14.1298 10.4147 14.9004 8.45264 14.9004C6.49055 14.9004 4.60695 14.1298 3.20754 12.7545C1.80813 11.3792 1.00487 9.50928 0.97077 7.54749C1.00487 5.58569 1.80813 3.71577 3.20754 2.34047C4.60695 0.965171 6.49054 0.19453 8.45264 0.19453C10.4147 0.19453 12.2983 0.965171 13.6977 2.34047C15.0971 3.71577 15.9004 5.58569 15.9345 7.54749ZM8.67487 4.77486L6.43137 7.01836C6.29104 7.15869 6.2122 7.34902 6.2122 7.54749C6.2122 7.74595 6.29104 7.93628 6.43137 8.07661L8.67487 10.3201C8.8152 10.4604 9.00554 10.5393 9.204 10.5393C9.40246 10.5393 9.59279 10.4604 9.73313 10.3201C9.87346 10.1798 9.9523 9.98945 9.9523 9.79099C9.9523 9.59253 9.87346 9.40219 9.73313 9.26186L8.01875 7.54749L9.73313 5.83311C9.87346 5.69278 9.9523 5.50245 9.9523 5.30398C9.9523 5.10552 9.87346 4.91519 9.73313 4.77486C9.59279 4.63452 9.40246 4.55569 9.204 4.55569C9.00554 4.55569 8.8152 4.63452 8.67487 4.77486Z" fill="#CCAFA0"/>
</svg>
