<svg width="146" height="148" viewBox="0 0 146 148" fill="none" xmlns="http://www.w3.org/2000/svg">
<path d="M21.281 72.9688C26.3033 72.9688 30.736 70.4938 33.4905 66.8516C36.2632 70.5426 40.6411 72.9688 45.6028 72.9688C50.5949 72.9688 54.9911 70.5184 57.7638 66.7969C60.5365 70.5243 64.9327 72.9688 69.9246 72.9688C74.9167 72.9688 79.3129 70.5184 82.0856 66.7969C84.8583 70.5184 89.2545 72.9688 94.2466 72.9688C99.2083 72.9688 103.586 70.5426 106.347 66.7239C109.119 70.4938 113.546 72.9688 118.568 72.9688C126.947 72.9688 133.77 66.1521 133.77 57.7669C133.77 57.2136 133.624 56.6724 133.338 56.204L115.096 25.7999C114.543 24.8818 113.558 24.3223 112.488 24.3223H27.3613C26.2911 24.3223 25.306 24.8818 24.7528 25.7999L6.5114 56.204C6.22552 56.6724 6.07959 57.2134 6.07959 57.7669C6.07959 66.1521 12.9019 72.9688 21.281 72.9688Z" fill="#CCAFA0"/>
<path d="M27.3621 18.2424H112.49C112.532 18.2364 112.575 18.2364 112.611 18.2424C114.289 18.2424 115.652 16.8802 115.652 15.2019C115.652 14.8676 115.597 14.5575 115.5 14.2533C115.013 6.31188 108.391 0 100.328 0H39.5232C31.1444 0 24.322 6.81668 24.322 15.2019C24.3217 16.8802 25.6839 18.2424 27.3621 18.2424Z" fill="#CCAFA0"/>
<path d="M133.376 126.809L124.25 124.535L123.866 123.003C126.238 120.388 127.916 117.05 128.615 113.584C130.239 112.745 131.418 111.151 131.656 109.236L132.318 103.946C132.519 102.346 132.026 100.735 130.962 99.5128C130.634 99.1297 130.257 98.8073 129.85 98.5337L130.008 95.3108L130.567 94.7452C132.13 93.0852 134.246 89.5219 130.896 84.3958C129.303 81.9573 126.019 79.0508 119.446 79.0508C117.512 79.0508 113.14 79.0508 108.896 81.7142C96.3827 82.146 94.9111 88.8957 94.9111 93.9853C94.9111 94.9887 95.0875 96.8736 95.2637 98.4365C94.8136 98.7224 94.4003 99.069 94.0415 99.4763C92.9652 100.699 92.4605 102.328 92.6611 103.946L93.3238 109.23C93.5732 111.212 94.8319 112.854 96.6862 113.663C97.3734 116.983 98.9604 120.194 101.18 122.742L100.736 124.529L91.6091 126.804C84.209 128.658 79.0466 135.274 79.0466 142.9C79.0466 144.578 80.4088 145.94 82.087 145.94H142.892C144.57 145.94 145.933 144.572 145.933 142.894C145.933 135.274 140.77 128.658 133.376 126.809Z" fill="#CCAFA0"/>
<path d="M76.0067 132.405C75.2163 132.405 74.4501 132.095 73.8846 131.536C73.2946 130.97 72.9663 130.186 72.9663 129.365V83.7588C72.9663 82.0805 74.3284 80.7183 76.0067 80.7183C76.0067 80.7183 86.3496 79.8245 82.0871 76.8145C74.9182 81.8736 64.934 81.8736 57.7651 76.8145C50.6021 81.8736 40.612 81.8736 33.455 76.8267C29.8797 79.3502 25.6417 80.7183 21.2819 80.7183C20.2422 80.7183 19.2449 80.5542 18.2416 80.4082V129.365H15.2012C6.82235 129.365 0 136.182 0 144.567C0 146.245 1.36213 147.607 3.04036 147.607H69.9262C71.6045 147.607 72.9666 146.245 72.9666 144.567C72.9666 140.882 73.8847 137.197 75.6239 133.926C75.6299 133.913 75.6361 133.895 75.6421 133.883C75.6481 133.865 75.6726 133.859 75.6786 133.847C75.9582 133.33 76.3353 132.886 76.6454 132.393L76.0799 132.405H76.0067ZM66.8859 114.163C66.8859 115.841 65.5237 117.203 63.8455 117.203H33.4428C31.7646 117.203 30.4024 115.841 30.4024 114.163V83.7588C30.4024 82.0805 31.7646 80.7183 33.4428 80.7183H63.8455C65.5237 80.7183 66.8859 82.0805 66.8859 83.7588V114.163Z" fill="#CCAFA0"/>
</svg>
