<svg width="15" height="19" viewBox="0 0 15 19" fill="none" xmlns="http://www.w3.org/2000/svg">
<path d="M9.14743 14.4766H1.51774C1.0498 14.4766 0.670166 14.7786 0.670166 15.1514V15.1711C0.670166 15.5444 1.04965 15.8465 1.51774 15.8465H9.14743C9.61548 15.8465 9.99518 15.5445 9.99518 15.1711V15.1514C9.99515 14.7786 9.61576 14.4766 9.14743 14.4766Z" fill="#CCAFA0"/>
<path d="M0.413287 13.5667C0.438279 13.5749 0.460313 13.5858 0.483808 13.6013C0.524809 13.6284 0.570587 13.6716 0.623495 13.732C0.662999 13.7766 0.706174 13.8301 0.75648 13.8875C0.832064 13.9734 0.92469 14.0709 1.05496 14.1502C1.11985 14.1896 1.19422 14.2232 1.27541 14.2462C1.35669 14.2691 1.44511 14.2811 1.53738 14.2811C1.64438 14.2814 1.74592 14.265 1.8379 14.2344C1.9184 14.2076 1.99056 14.1707 2.05346 14.1289C2.16359 14.0553 2.2452 13.9701 2.31312 13.8935C2.36381 13.8356 2.40727 13.782 2.44745 13.7366C2.50728 13.668 2.55759 13.6207 2.60297 13.5937C2.62622 13.58 2.64782 13.5699 2.67378 13.5625C2.69959 13.5557 2.72968 13.5505 2.7704 13.5505C2.81753 13.5505 2.85047 13.5571 2.87917 13.5666C2.90406 13.5748 2.9262 13.5857 2.94984 13.6013C2.99084 13.6284 3.03662 13.6716 3.0892 13.732C3.12885 13.7765 3.17203 13.8301 3.22247 13.8875C3.29806 13.9733 3.39058 14.0709 3.52096 14.1502C3.58588 14.1898 3.65997 14.2232 3.74154 14.2461C3.82297 14.2691 3.91114 14.2811 4.00338 14.2811C4.11041 14.2814 4.21219 14.265 4.30379 14.2344C4.38443 14.2075 4.45659 14.1707 4.51945 14.1288C4.62972 14.0553 4.71105 13.97 4.77886 13.8935C4.83013 13.8355 4.87341 13.782 4.91345 13.7366C4.9732 13.668 5.02376 13.6207 5.06925 13.5936C5.09207 13.58 5.11392 13.5699 5.13992 13.5625C5.16562 13.5556 5.19596 13.5504 5.23639 13.5504C5.28356 13.5504 5.31661 13.557 5.34506 13.5666C5.37009 13.5748 5.39223 13.5857 5.41583 13.6013C5.45683 13.6283 5.50261 13.6715 5.55523 13.7319C5.59513 13.7765 5.6382 13.8301 5.6885 13.8875C5.76409 13.9733 5.85657 14.0709 5.9871 14.1501C6.05202 14.1898 6.12593 14.2231 6.20754 14.2461C6.28915 14.269 6.37714 14.2811 6.46941 14.2811C6.57654 14.2813 6.67808 14.2649 6.77007 14.2343C6.85043 14.2075 6.92273 14.1706 6.98559 14.1288C7.09575 14.0553 7.17747 13.97 7.24514 13.8934C7.29598 13.8355 7.33969 13.7819 7.37934 13.7366C7.43916 13.668 7.48975 13.6207 7.53557 13.5936C7.5581 13.58 7.58024 13.5698 7.60591 13.5624C7.63162 13.5556 7.66196 13.5504 7.70256 13.5504C7.7497 13.5504 7.78264 13.557 7.81134 13.5665C7.83651 13.5747 7.85851 13.5857 7.882 13.6012C7.92311 13.6283 7.96878 13.6715 8.0218 13.7319C8.06144 13.7765 8.10448 13.8303 8.15507 13.8874C8.23022 13.9733 8.32314 14.0708 8.45341 14.1501C8.5183 14.1898 8.59253 14.2231 8.6741 14.2461C8.75543 14.269 8.8437 14.2813 8.93583 14.2813C9.04297 14.2813 9.14479 14.2649 9.23635 14.2343C9.31671 14.2075 9.38915 14.1706 9.45197 14.1288C9.56228 14.0552 9.64386 13.97 9.71167 13.8934C9.76222 13.8355 9.80597 13.7819 9.84587 13.7365C9.90569 13.6679 9.95628 13.6206 10.0018 13.5936C10.0246 13.5799 10.0465 13.5698 10.0724 13.5627C10.0984 13.5556 10.1285 13.5504 10.1692 13.5504C10.3371 13.5504 10.4734 13.414 10.4734 13.2459C10.4734 13.0778 10.3371 12.9414 10.1692 12.9414C10.0619 12.9414 9.96042 12.9578 9.8684 12.9884C9.78789 13.0149 9.71548 13.0521 9.65288 13.0936C9.54275 13.1672 9.46114 13.2522 9.39322 13.3292C9.34252 13.3869 9.29877 13.4408 9.25888 13.4859C9.19927 13.5545 9.14846 13.6017 9.10308 13.6291C9.07983 13.6427 9.05822 13.6526 9.03255 13.66C9.0066 13.6673 8.97622 13.672 8.93579 13.672C8.88877 13.672 8.85557 13.6657 8.82687 13.6564C8.80202 13.6482 8.78003 13.6367 8.75621 13.6212C8.71521 13.5944 8.66929 13.5507 8.6167 13.4905C8.57705 13.446 8.53374 13.3927 8.48372 13.3347C8.40803 13.2494 8.31561 13.1516 8.18509 13.0726C8.11992 13.033 8.04597 12.9996 7.96436 12.9761C7.88279 12.9534 7.79476 12.9414 7.70253 12.9414C7.59536 12.9414 7.49385 12.9575 7.40183 12.9884C7.32147 13.0149 7.24903 13.0521 7.18631 13.0936C7.07618 13.1672 6.99457 13.2522 6.9268 13.3292C6.87567 13.3869 6.83221 13.4408 6.79231 13.4859C6.73245 13.5545 6.68215 13.6017 6.63637 13.6291C6.61341 13.6427 6.59166 13.6526 6.56599 13.66C6.54028 13.6673 6.50994 13.672 6.46937 13.672C6.4222 13.672 6.38901 13.6657 6.36059 13.6564C6.3356 13.6482 6.31346 13.6367 6.28979 13.6212C6.24893 13.5944 6.20315 13.5507 6.15039 13.4905C6.11074 13.446 6.06771 13.3927 6.0174 13.3353C5.94167 13.2494 5.84933 13.1516 5.71881 13.0726C5.6536 13.033 5.57983 12.9996 5.49808 12.9761C5.41679 12.9534 5.32834 12.9412 5.23636 12.9414C5.12936 12.9411 5.02754 12.9575 4.9357 12.9884C4.85534 13.0149 4.78289 13.0518 4.72003 13.0936C4.60987 13.1672 4.52829 13.2522 4.46048 13.3292C4.40964 13.3869 4.36632 13.4408 4.32628 13.4859C4.26657 13.5545 4.21583 13.6017 4.17034 13.6291C4.14752 13.6427 4.12567 13.6526 4.09996 13.66C4.07372 13.6671 4.04366 13.672 4.00334 13.672C3.95621 13.672 3.92298 13.6657 3.89428 13.6564C3.86939 13.6482 3.84725 13.6367 3.8239 13.6212C3.78265 13.5944 3.73712 13.5507 3.68411 13.4905C3.64446 13.4457 3.60157 13.3924 3.55098 13.3353C3.47568 13.2494 3.38302 13.1516 3.25264 13.0726C3.18775 13.033 3.11323 12.9996 3.03205 12.9761C2.95073 12.9534 2.8626 12.9412 2.77036 12.9414C2.66308 12.9411 2.56169 12.9575 2.46942 12.9884C2.38906 13.0149 2.31718 13.0518 2.25429 13.0936C2.14401 13.1672 2.0624 13.2522 1.99463 13.3292C1.94365 13.3866 1.90033 13.4408 1.86043 13.4859C1.80057 13.5545 1.74973 13.6017 1.70463 13.6291C1.68138 13.6427 1.65953 13.6526 1.63382 13.66C1.60812 13.6671 1.57778 13.6717 1.53735 13.672C1.49018 13.6717 1.45713 13.6657 1.42843 13.6564C1.40358 13.6482 1.38158 13.6367 1.35776 13.6212C1.31705 13.5944 1.27099 13.551 1.2185 13.4905C1.17875 13.4457 1.13568 13.3924 1.08541 13.335C1.00983 13.2494 0.917167 13.1519 0.786928 13.0723C0.72204 13.033 0.647811 12.9996 0.56638 12.9761C0.484877 12.9534 0.396744 12.9412 0.304368 12.9414C0.136265 12.9414 0 13.0778 0 13.2459C0 13.414 0.136265 13.5504 0.304368 13.5504C0.351643 13.5505 0.384693 13.5571 0.413287 13.5667Z" fill="#CCAFA0"/>
<path d="M12.3297 4.45906L12.8701 1.97264L14.8269 0.83638L14.3414 0L12.0156 1.35024L11.3398 4.45906H5.25806L5.29507 4.94259L5.5789 8.63059C5.47205 8.62538 5.36434 8.62267 5.25596 8.62267C2.71605 8.62267 0.625091 10.0752 0.354344 11.6946C0.344646 11.7531 0.337123 11.7684 0.331526 11.7848C0.326748 11.8007 0.324003 11.8166 0.324003 11.8761C0.324003 12.223 0.517276 12.4058 0.852484 12.4058H9.65939C9.9941 12.4058 10.1877 12.223 10.1877 11.8761C10.1877 11.7578 10.1772 11.8111 10.1571 11.6946C10.022 10.8834 9.42925 10.114 8.5527 9.54761C8.26804 9.36368 7.95369 9.20239 7.61531 9.06683C7.26299 8.92636 6.88497 8.8148 6.48726 8.73886L6.2276 5.35669H14.0302L13.1709 16.5468H10.0881C9.98037 16.4148 9.82215 16.3363 9.6006 16.3363H7.07093H6.17016H0.9132C0.40907 16.3363 0.23291 16.7457 0.23291 17.2498V17.3413C0.23291 17.8453 0.641812 18.2542 1.14612 18.2542H9.36576C9.8348 18.2542 10.2221 17.9006 10.2733 17.4446H14.0028L15 4.45906H12.3297ZM2.55715 10.4972C2.4232 10.4972 2.31414 10.3881 2.31414 10.2537C2.31414 10.1189 2.42317 10.0096 2.55715 10.0096C2.69202 10.0096 2.80109 10.1189 2.80109 10.2537C2.80109 10.3881 2.69206 10.4972 2.55715 10.4972ZM3.53186 9.76631C3.39709 9.76631 3.28803 9.65724 3.28803 9.52273C3.28803 9.38799 3.39709 9.27865 3.53186 9.27865C3.66645 9.27865 3.77565 9.38796 3.77565 9.52273C3.77565 9.65724 3.66645 9.76631 3.53186 9.76631ZM4.38407 10.4972C4.24944 10.4972 4.14027 10.3881 4.14027 10.2537C4.14027 10.1189 4.24944 10.0096 4.38407 10.0096C4.51894 10.0096 4.628 10.1189 4.628 10.2537C4.62804 10.3881 4.51898 10.4972 4.38407 10.4972ZM5.11495 9.46183C4.98036 9.46183 4.87101 9.35273 4.87101 9.21825C4.87101 9.08409 4.98036 8.97499 5.11495 8.97499C5.24957 8.97499 5.35889 9.08409 5.35889 9.21825C5.35889 9.35273 5.24957 9.46183 5.11495 9.46183ZM8.03737 10.0705C8.17228 10.0705 8.28131 10.1796 8.28131 10.3143C8.28131 10.4488 8.17224 10.5582 8.03737 10.5582C7.90346 10.5582 7.7944 10.4488 7.7944 10.3143C7.7944 10.1796 7.90346 10.0705 8.03737 10.0705ZM6.81958 9.27594C6.95445 9.27594 7.06352 9.385 7.06352 9.5192C7.06352 9.6545 6.95449 9.76356 6.81958 9.76356C6.6851 9.76356 6.57657 9.6545 6.57657 9.5192C6.57657 9.38504 6.6851 9.27594 6.81958 9.27594ZM6.27195 10.3143C6.27195 10.4488 6.16278 10.5582 6.02802 10.5582C5.8941 10.5582 5.78504 10.4488 5.78504 10.3143C5.78504 10.1796 5.89407 10.0705 6.02802 10.0705C6.16278 10.0705 6.27195 10.1796 6.27195 10.3143Z" fill="#CCAFA0"/>
</svg>
