<svg width="15" height="17" viewBox="0 0 15 17" fill="none" xmlns="http://www.w3.org/2000/svg">
<path d="M7.46767 0.193359C6.66142 0.193359 6.00453 0.849786 6.00453 1.65546C6.00453 2.46049 6.65496 3.11691 7.46767 3.11691C8.26746 3.11691 8.93017 2.46049 8.93017 1.65546C8.93017 0.849786 8.27392 0.193359 7.46767 0.193359ZM9.31034 3.4238H5.625C4.61703 3.4238 3.81466 4.29021 3.81466 5.29746V7.36495H5.10776V5.62051C5.10776 5.51003 5.19116 5.42668 5.30172 5.42668C5.41228 5.42668 5.49569 5.51003 5.49569 5.62051V7.36495H9.43965V5.62051C9.43965 5.51003 9.52306 5.42668 9.63362 5.42668C9.74418 5.42668 9.82759 5.51003 9.82759 5.62051V7.36495H11.1207V5.29746C11.1207 4.29667 10.3119 3.4238 9.31034 3.4238ZM0 7.68799V9.43243H1.48707V16.4748H13.4483V9.43243H15V7.68799H0ZM8.66767 13.4259C8.73427 13.4039 8.79828 13.3884 8.86487 13.3884C9.06207 13.3813 9.23082 13.4414 9.37435 13.5719C9.51853 13.7005 9.59612 13.8594 9.60065 14.061C9.60711 14.1211 9.60065 14.1915 9.58513 14.2581L9.02004 13.738L8.51056 14.2936L9.08211 14.8118C9.01552 14.8337 8.95151 14.8492 8.88491 14.8492C8.68772 14.8563 8.51961 14.7963 8.37543 14.6658C8.23125 14.5281 8.15366 14.3692 8.1472 14.1721C8.1472 14.103 8.15366 14.0255 8.16918 13.9596L8.03211 13.8284L7.2097 13.0783L5.81832 14.6102C5.73427 14.7233 5.60366 14.8008 5.45302 14.8008C5.20927 14.8008 5.01207 14.6037 5.01207 14.3602C5.01207 14.2296 5.06315 14.1101 5.16272 14.0255L6.60711 12.5291L5.73427 11.7299C5.66573 11.7609 5.58815 11.7764 5.52155 11.7764C5.32435 11.7829 5.15625 11.7235 5.01207 11.5923C4.86789 11.4618 4.7903 11.3022 4.78384 11.1052C4.77737 11.0457 4.78384 10.9746 4.79935 10.9081L5.3709 11.4263L5.87586 10.8732L5.30431 10.355C5.36444 10.3324 5.43491 10.3169 5.50151 10.3169C5.69871 10.3105 5.86746 10.3706 6.01099 10.5011C6.15517 10.6296 6.23276 10.7976 6.23922 10.9947C6.24634 11.0612 6.23922 11.1252 6.22371 11.1917L7.12371 12.0155L7.78125 11.3048L6.79784 10.439L7.69073 9.42274L10.2188 11.6459L9.32586 12.6622L8.3153 11.7719L7.67974 12.5227L8.66767 13.4259Z" fill="#CCAFA0"/>
</svg>
