<svg width="9" height="9" viewBox="0 0 9 9" fill="none" xmlns="http://www.w3.org/2000/svg">
<path fill-rule="evenodd" clip-rule="evenodd" d="M5.73557 4.03553L7.71898 6.01895C8.18845 6.48841 8.18845 7.24952 7.71898 7.71898C7.24952 8.18845 6.48841 8.18845 6.01895 7.71898L4.03553 5.73557L2.05214 7.71898C1.58269 8.18845 0.821545 8.18845 0.352094 7.71898C-0.117365 7.24952 -0.117365 6.48841 0.352094 6.01895L2.33548 4.03553L0.352094 2.05214C-0.117365 1.58269 -0.117365 0.821553 0.352094 0.352094C0.821545 -0.117365 1.58269 -0.117365 2.05214 0.352094L4.03553 2.33548L6.01895 0.352094C6.48841 -0.117365 7.24952 -0.117365 7.71898 0.352094C8.18845 0.821553 8.18845 1.58269 7.71898 2.05214L5.73557 4.03553Z" fill="#4B352A"/>
</svg>
