<svg width="38" height="38" viewBox="0 0 38 38" fill="none" xmlns="http://www.w3.org/2000/svg">
<path d="M5.54162 19C6.84942 19 8.00367 18.3556 8.72092 17.4072C9.44291 18.3683 10.5829 19 11.8749 19C13.1748 19 14.3196 18.3619 15.0416 17.3929C15.7636 18.3635 16.9083 19 18.2082 19C19.5081 19 20.6529 18.3619 21.3749 17.3929C22.0969 18.3619 23.2416 19 24.5415 19C25.8335 19 26.9735 18.3683 27.6923 17.3739C28.4143 18.3556 29.567 19 30.8748 19C33.0566 19 34.8331 17.2251 34.8331 15.0417C34.8331 14.8976 34.7951 14.7567 34.7207 14.6348L29.9707 6.71806C29.8266 6.479 29.5701 6.33331 29.2915 6.33331H7.12492C6.84623 6.33331 6.58973 6.479 6.44567 6.71806L1.69569 14.6348C1.62125 14.7567 1.58325 14.8976 1.58325 15.0417C1.58325 17.2251 3.35974 19 5.54162 19Z" fill="#644839"/>
<path d="M7.12487 4.75H29.2915C29.3025 4.74844 29.3137 4.74844 29.3232 4.75C29.7602 4.75 30.1149 4.39531 30.1149 3.95831C30.1149 3.87125 30.1006 3.7905 30.0753 3.71131C29.9485 1.6435 28.2243 0 26.1248 0H10.2915C8.10975 0 6.33325 1.77494 6.33325 3.95831C6.33318 4.39531 6.68787 4.75 7.12487 4.75Z" fill="#644839"/>
<path d="M34.7303 33.0188L32.3538 32.4266L32.254 32.0276C32.8715 31.3468 33.3085 30.4776 33.4906 29.5751C33.9133 29.3566 34.2205 28.9418 34.2823 28.443L34.4548 27.0655C34.5071 26.6491 34.3788 26.2295 34.1018 25.9113C34.0163 25.8115 33.9181 25.7276 33.812 25.6563L33.8532 24.8171L33.9989 24.6699C34.4058 24.2376 34.9568 23.3098 34.0844 21.9751C33.6696 21.3401 32.8146 20.5833 31.103 20.5833C30.5995 20.5833 29.461 20.5833 28.3559 21.2768C25.0974 21.3893 24.7143 23.1468 24.7143 24.472C24.7143 24.7333 24.7602 25.2241 24.8061 25.631C24.6889 25.7054 24.5813 25.7957 24.4878 25.9018C24.2076 26.22 24.0761 26.6443 24.1284 27.0655L24.3009 28.4414C24.3659 28.9576 24.6936 29.3851 25.1765 29.5957C25.3554 30.4602 25.7687 31.2962 26.3465 31.9596L26.231 32.4251L23.8544 33.0173C21.9275 33.5003 20.5833 35.2229 20.5833 37.2084C20.5833 37.6454 20.9379 38.0001 21.3749 38.0001H37.2082C37.6452 38.0001 37.9999 37.6438 37.9999 37.2068C37.9999 35.2228 36.6556 33.5002 34.7303 33.0188Z" fill="#644839"/>
<path d="M19.7916 34.0417C19.5858 34.0417 19.3863 33.961 19.2391 33.8153C19.0854 33.668 18.9999 33.4638 18.9999 33.25V21.375C18.9999 20.938 19.3546 20.5833 19.7916 20.5833C19.7916 20.5833 22.4849 20.3506 21.3749 19.5668C19.5082 20.8841 16.9084 20.8841 15.0416 19.5668C13.1764 20.8841 10.5751 20.8841 8.71147 19.57C7.78047 20.2271 6.67692 20.5833 5.54167 20.5833C5.27092 20.5833 5.01123 20.5406 4.74998 20.5026V33.25H3.95829C1.77649 33.25 0 35.025 0 37.2083C0 37.6453 0.35469 38 0.791688 38H18.2083C18.6453 38 19 37.6453 19 37.2083C19 36.2488 19.2391 35.2893 19.6919 34.4375C19.6935 34.4343 19.6951 34.4296 19.6967 34.4265C19.6982 34.4217 19.7046 34.4202 19.7062 34.417C19.779 34.2824 19.8772 34.1668 19.9579 34.0385L19.8107 34.0417H19.7916ZM17.4166 29.2917C17.4166 29.7287 17.0619 30.0834 16.6249 30.0834H8.70828C8.27128 30.0834 7.91659 29.7287 7.91659 29.2917V21.375C7.91659 20.938 8.27128 20.5833 8.70828 20.5833H16.6249C17.0619 20.5833 17.4166 20.938 17.4166 21.375V29.2917Z" fill="#644839"/>
</svg>
