<svg width="34" height="34" viewBox="0 0 34 34" fill="none" xmlns="http://www.w3.org/2000/svg">
<path d="M30.6 0H3.4C1.52223 0 0 1.52223 0 3.4V30.6C0 32.4778 1.52223 34 3.4 34H30.6C32.4778 34 34 32.4778 34 30.6V3.4C34 1.52223 32.4778 0 30.6 0Z" fill="#4B352A"/>
<path d="M13.5999 22.1H16.9999V34H20.3999V22.1H23.7999C24.2508 22.1 24.6832 21.9209 25.002 21.6021C25.3208 21.2833 25.4999 20.8509 25.4999 20.4C25.4999 19.9491 25.3208 19.5167 25.002 19.1979C24.6832 18.8791 24.2508 18.7 23.7999 18.7H20.3999V13.6C20.3999 13.1491 20.579 12.7167 20.8978 12.3979C21.2166 12.0791 21.649 11.9 22.0999 11.9H25.4999C25.9508 11.9 26.3832 11.7209 26.702 11.4021C27.0208 11.0833 27.1999 10.6509 27.1999 10.2C27.1999 9.74913 27.0208 9.31673 26.702 8.99792C26.3832 8.67911 25.9508 8.5 25.4999 8.5H22.0999C20.7473 8.5 19.4501 9.03732 18.4937 9.99376C17.5372 10.9502 16.9999 12.2474 16.9999 13.6V18.7H13.5999C13.149 18.7 12.7166 18.8791 12.3978 19.1979C12.079 19.5167 11.8999 19.9491 11.8999 20.4C11.8999 20.8509 12.079 21.2833 12.3978 21.6021C12.7166 21.9209 13.149 22.1 13.5999 22.1Z" fill="#CCAFA0"/>
</svg>
