<svg width="20" height="20" viewBox="0 0 20 20" fill="none" xmlns="http://www.w3.org/2000/svg">
<path d="M13.1951 11.2847V12.8638C16.5013 13.3664 18.4393 14.5885 18.4393 15.5264C18.4393 16.736 15.2287 18.4229 10 18.4229C4.77133 18.4229 1.56069 16.736 1.56069 15.5264C1.56069 14.5884 3.49873 13.3663 6.80558 12.8638V11.284C3.13116 11.8147 0 13.2626 0 15.5264C0 18.432 5.15244 20 10 20C14.8476 20 20 18.432 20 15.5264C20 13.2626 16.8696 11.8154 13.1951 11.2847Z" fill="#CCAFA0"/>
<path d="M6.78748 8.99993C7.07488 8.99993 7.33455 8.82829 7.44894 8.56187L8.06072 7.14536V14.4409C8.06072 14.8809 8.41345 15.2373 8.8489 15.2373C9.28426 15.2373 9.63695 14.8809 9.63695 14.4409V9.55738H10.3637V14.4409C10.3637 14.8809 10.7164 15.2373 11.1518 15.2373C11.5872 15.2373 11.9399 14.8809 11.9399 14.4409V7.1447L12.5517 8.56191C12.666 8.82829 13.2132 8.99997 13.2132 8.99997C13.4561 8.99997 13.6841 8.87598 13.8172 8.67029C13.9509 8.46399 13.9723 8.20491 13.8747 7.97906L12.3851 4.52576C12.115 3.8998 11.5026 3.4944 10.8263 3.4944H9.17454C8.49812 3.4944 7.88572 3.8991 7.61571 4.52576L6.12541 7.97906C6.0285 8.20425 6.04982 8.46399 6.18359 8.67029C6.31643 8.8759 6.54386 8.99993 6.78748 8.99993Z" fill="#CCAFA0"/>
<path d="M9.99999 2.94014C10.5162 2.94014 10.9677 2.66594 11.2254 2.25538C11.3689 2.02818 11.4548 1.75992 11.4548 1.47068C11.4548 0.657963 10.803 0 9.99999 0C9.19702 0 8.5459 0.658004 8.5459 1.47068C8.5459 1.75996 8.63174 2.02822 8.77463 2.25599C9.03292 2.66594 9.48382 2.94014 9.99999 2.94014Z" fill="#CCAFA0"/>
</svg>
