<svg width="19" height="23" viewBox="0 0 19 23" fill="none" xmlns="http://www.w3.org/2000/svg">
<path d="M4.5593 5.15074H3.76535V3.7574H4.53949C5.04085 3.7574 5.35375 3.99817 5.35375 4.44721V4.45991C5.35375 4.85104 5.05964 5.15074 4.5593 5.15074ZM10.2642 5.14363V5.13093C10.2642 4.32327 9.71156 3.7574 8.8912 3.7574H8.11656V6.50446H8.8912C9.71156 6.50446 10.2642 5.95129 10.2642 5.14363ZM18.096 2.53981V19.7679C18.096 21.1703 16.9597 22.3077 15.5562 22.3077H2.92214C1.51914 22.3077 0.382324 21.1703 0.382324 19.7679V2.53981C0.382324 1.13733 1.51914 0 2.92214 0H15.5557C16.9581 0 18.096 1.13733 18.096 2.53981ZM7.11282 6.90829C7.11282 7.18817 7.3348 7.40965 7.61418 7.40965H8.89018C10.3221 7.40965 11.3127 6.41353 11.3127 5.13093V5.11823C11.3127 3.83562 10.3237 2.85272 8.89018 2.85272H7.61418C7.3343 2.85272 7.11282 3.07419 7.11282 3.35407V6.90829ZM2.76264 6.94689C2.76264 7.22729 2.98411 7.44825 3.26399 7.44825C3.54388 7.44825 3.76484 7.22678 3.76484 6.94689V6.04272H4.52679C5.54881 6.04272 6.36866 5.49615 6.36866 4.44162V4.42791C6.36866 3.49732 5.71136 2.85272 4.62381 2.85272H3.26349C2.98309 2.85272 2.76213 3.07419 2.76213 3.35407L2.76264 6.94689ZM15.7157 18.4395C15.7157 17.8787 15.2605 17.4236 14.6997 17.4236H3.77856C3.21777 17.4236 2.76264 17.8787 2.76264 18.4395C2.76264 19.0003 3.21777 19.4555 3.77856 19.4555H14.6997C15.2605 19.4555 15.7157 19.0003 15.7157 18.4395ZM15.7157 14.6298C15.7157 14.069 15.2605 13.6139 14.6997 13.6139H3.77856C3.21777 13.6139 2.76264 14.069 2.76264 14.6298C2.76264 15.1906 3.21777 15.6457 3.77856 15.6457H14.6997C15.2605 15.6457 15.7157 15.1906 15.7157 14.6298ZM15.7157 10.8201C15.7157 10.2593 15.2605 9.80418 14.6997 9.80418H7.58828C7.02749 9.80418 6.57235 10.2593 6.57235 10.8201C6.57235 11.3809 7.02749 11.836 7.58828 11.836H14.6997C15.2605 11.836 15.7157 11.3809 15.7157 10.8201ZM15.7157 3.30836C15.7157 3.05438 15.5145 2.85272 15.2605 2.85272H12.7085C12.4281 2.85272 12.2082 3.07419 12.2082 3.35407V6.94689C12.2082 7.22729 12.4297 7.44825 12.7085 7.44825C12.9884 7.44825 13.2094 7.22678 13.2094 6.94689V5.64549H14.9669C15.2209 5.64549 15.4226 5.44383 15.4226 5.18985C15.4226 4.93587 15.2209 4.73421 14.9669 4.73421H13.2094V3.764H15.26C15.514 3.76349 15.7157 3.56234 15.7157 3.30836Z" fill="#3D1A07"/>
</svg>
