<svg width="20" height="20" viewBox="0 0 20 20" fill="none" xmlns="http://www.w3.org/2000/svg">
<path d="M18.4585 4.16669C18.2063 3.9071 17.862 3.75738 17.5002 3.75002H12.0835V7.58336L12.7502 6.91669C12.8343 6.8256 12.9378 6.75445 13.0529 6.70843C13.1681 6.6624 13.2921 6.64266 13.4158 6.65065C13.5396 6.65863 13.66 6.69414 13.7683 6.75458C13.8766 6.81503 13.9701 6.89888 14.0418 7.00002C14.1448 7.17892 14.1843 7.38733 14.154 7.5915C14.1238 7.79566 14.0255 7.98365 13.8752 8.12502L11.8335 10.1667C11.7593 10.2475 11.6692 10.312 11.5688 10.3562C11.4683 10.4003 11.3599 10.4231 11.2502 10.4231C11.1405 10.4231 11.032 10.4003 10.9316 10.3562C10.8311 10.312 10.741 10.2475 10.6668 10.1667L8.62516 8.12502C8.47478 7.98365 8.37652 7.79566 8.34627 7.5915C8.31602 7.38733 8.35556 7.17892 8.45849 7.00002C8.53026 6.89888 8.6237 6.81503 8.73199 6.75458C8.84029 6.69414 8.96071 6.65863 9.08447 6.65065C9.20824 6.64266 9.33222 6.6624 9.44739 6.70843C9.56255 6.75445 9.66599 6.8256 9.75016 6.91669L10.4168 7.58336V3.75002H4.79183L4.62516 2.33336C4.58456 2.0315 4.43514 1.75484 4.20498 1.55536C3.97481 1.35588 3.67973 1.24731 3.37516 1.25002H2.12516C1.91928 1.24626 1.71867 1.31523 1.55862 1.44479C1.39857 1.57435 1.28935 1.75621 1.25016 1.95836C1.23203 2.07779 1.24009 2.19974 1.27377 2.31575C1.30745 2.43177 1.36595 2.53907 1.44522 2.63023C1.52449 2.72138 1.62263 2.79422 1.73284 2.84368C1.84305 2.89315 1.9627 2.91806 2.08349 2.91669H3.00016L4.33349 14.125C3.88836 14.385 3.53622 14.7783 3.32686 15.2494C3.1175 15.7205 3.06152 16.2454 3.16683 16.75C3.26584 17.2254 3.49898 17.6625 3.83865 18.0096C4.17832 18.3567 4.61031 18.5991 5.08349 18.7084C5.68332 18.8264 6.30558 18.7279 6.83962 18.4304C7.37366 18.1328 7.78488 17.6555 8.00016 17.0834H12.4168C12.5872 17.6111 12.9282 18.0672 13.3861 18.3799C13.8441 18.6927 14.393 18.8443 14.9465 18.8109C15.5001 18.7775 16.0268 18.561 16.4438 18.1954C16.8609 17.8299 17.1445 17.3361 17.2502 16.7917C17.3316 16.4248 17.3293 16.0443 17.2434 15.6784C17.1574 15.3126 16.9901 14.9708 16.7539 14.6785C16.5177 14.3862 16.2186 14.1509 15.8789 13.9902C15.5392 13.8295 15.1676 13.7474 14.7918 13.75C14.2746 13.7581 13.7717 13.9213 13.3482 14.2184C12.9248 14.5156 12.6003 14.933 12.4168 15.4167H8.00016C7.84249 14.9841 7.56842 14.6034 7.20816 14.3167C6.8479 14.0299 6.41545 13.8483 5.95849 13.7917L5.87516 12.9167H16.4168C16.7142 12.9094 16.9992 12.7963 17.2207 12.5978C17.4422 12.3992 17.5856 12.1282 17.6252 11.8334L18.7502 5.25002C18.7967 4.86478 18.6922 4.47648 18.4585 4.16669ZM14.7918 15.4167C14.9566 15.4167 15.1178 15.4656 15.2548 15.5571C15.3918 15.6487 15.4987 15.7788 15.5617 15.9311C15.6248 16.0834 15.6413 16.2509 15.6091 16.4126C15.577 16.5743 15.4976 16.7227 15.3811 16.8393C15.2645 16.9558 15.1161 17.0352 14.9544 17.0673C14.7928 17.0995 14.6252 17.083 14.4729 17.0199C14.3207 16.9569 14.1905 16.85 14.0989 16.713C14.0074 16.576 13.9585 16.4148 13.9585 16.25C13.9585 16.029 14.0463 15.817 14.2026 15.6608C14.3588 15.5045 14.5708 15.4167 14.7918 15.4167ZM6.45849 16.25C6.45849 16.4148 6.40962 16.576 6.31805 16.713C6.22648 16.85 6.09633 16.9569 5.94406 17.0199C5.79179 17.083 5.62423 17.0995 5.46258 17.0673C5.30093 17.0352 5.15245 16.9558 5.0359 16.8393C4.91936 16.7227 4.83999 16.5743 4.80784 16.4126C4.77568 16.2509 4.79219 16.0834 4.85526 15.9311C4.91833 15.7788 5.02514 15.6487 5.16218 15.5571C5.29922 15.4656 5.46034 15.4167 5.62516 15.4167C5.84617 15.4167 6.05813 15.5045 6.21441 15.6608C6.3707 15.817 6.45849 16.029 6.45849 16.25Z" fill="#81D26F"/>
</svg>
