<svg width="43" height="48" viewBox="0 0 43 48" fill="none" xmlns="http://www.w3.org/2000/svg">
<path d="M21.2649 0C18.9691 0 17.0985 1.91347 17.0985 4.26198C17.0985 6.60862 18.9507 8.52208 21.2649 8.52208C23.5424 8.52208 25.4296 6.60862 25.4296 4.26198C25.4296 1.91347 23.5608 0 21.2649 0ZM26.5121 9.41667H16.0177C13.1474 9.41667 10.8626 11.9422 10.8626 14.8783V20.905H14.5449V15.82C14.5449 15.4979 14.7824 15.255 15.0972 15.255C15.412 15.255 15.6495 15.4979 15.6495 15.82V20.905H26.8804V15.82C26.8804 15.4979 27.1179 15.255 27.4327 15.255C27.7475 15.255 27.985 15.4979 27.985 15.82V20.905H31.6673V14.8783C31.6673 11.9611 29.364 9.41667 26.5121 9.41667ZM0 21.8467V26.9317H4.23458V47.46H38.2953V26.9317H42.714V21.8467H0ZM24.6821 38.5725C24.8717 38.5085 25.054 38.4633 25.2436 38.4633C25.8051 38.4426 26.2857 38.6178 26.6944 38.9982C27.105 39.373 27.3259 39.8363 27.3388 40.4239C27.3572 40.599 27.3388 40.8043 27.2946 40.9983L25.6855 39.4822L24.2347 41.1019L25.8622 42.6123C25.6726 42.6763 25.4903 42.7215 25.3007 42.7215C24.7391 42.7422 24.2604 42.5671 23.8499 42.1867C23.4393 41.7855 23.2184 41.3222 23.2 40.7478C23.2 40.5463 23.2184 40.3203 23.2626 40.1282L22.8722 39.7459L20.5303 37.5593L16.5682 42.0247C16.3289 42.3543 15.957 42.5803 15.528 42.5803C14.8339 42.5803 14.2724 42.0059 14.2724 41.2958C14.2724 40.9154 14.4178 40.567 14.7013 40.3203L18.8144 35.9585L16.3289 33.6288C16.1337 33.7192 15.9128 33.7644 15.7232 33.7644C15.1616 33.7832 14.6829 33.61 14.2724 33.2276C13.8618 32.8472 13.6409 32.382 13.6225 31.8076C13.604 31.6343 13.6225 31.4272 13.6666 31.2332L15.2942 32.7436L16.7321 31.1315L15.1046 29.6211C15.2758 29.5551 15.4765 29.51 15.6661 29.51C16.2276 29.4911 16.7082 29.6663 17.1169 30.0467C17.5275 30.4215 17.7484 30.9111 17.7668 31.4856C17.7871 31.6795 17.7668 31.866 17.7226 32.06L20.2855 34.4612L22.1579 32.3896L19.3575 29.8659L21.9001 26.9034L29.0989 33.384L26.5563 36.3465L23.6787 33.7512L21.8688 35.9397L24.6821 38.5725Z" fill="#3D1A07"/>
</svg>
