<svg width="16" height="16" viewBox="0 0 16 16" fill="none" xmlns="http://www.w3.org/2000/svg">
<path fill-rule="evenodd" clip-rule="evenodd" d="M8 0C12.4183 0 16 3.58173 16 8C16 12.4183 12.4183 16 8 16C3.58173 16 0 12.4183 0 8C0 3.58173 3.58173 0 8 0ZM7.91802 11.189C7.2141 11.189 6.64143 11.7617 6.64143 12.4656C6.64143 13.1695 7.2141 13.7422 7.91802 13.7422C8.62193 13.7422 9.1946 13.1696 9.1946 12.4656C9.1946 11.7617 8.62193 11.189 7.91802 11.189ZM9.61382 2.66667H6.22223L7.04821 10.1552H8.78783L9.61382 2.66667Z" fill="#BDC15D"/>
</svg>
