<svg width="15" height="15" viewBox="0 0 15 15" fill="none" xmlns="http://www.w3.org/2000/svg">
<path d="M14.788 3.31322C14.5666 2.96384 14.2032 2.75542 13.816 2.75542H11.9254C11.9108 2.87736 11.8847 2.99874 11.8401 3.11643C11.7155 3.44733 11.4841 3.7014 11.2009 3.84594H13.816C13.879 3.84594 13.9381 3.87999 13.9735 3.93568C14.0092 3.99269 14.0175 4.06538 13.9957 4.13001L12.6211 8.1963C12.5936 8.27859 12.5213 8.33392 12.4414 8.33392H4.7334L3.50518 2.57572C3.35195 1.86105 2.77879 1.36182 2.11118 1.36182H0.744302C0.333391 1.36182 0 1.72795 0 2.17975C0 2.63156 0.333391 2.99769 0.744302 2.99769H2.06652L3.72022 10.7507C3.8705 11.4513 4.4248 11.942 5.0756 11.9609C4.69278 12.2666 4.4413 12.7589 4.4413 13.3186C4.4413 14.2472 5.12643 15 5.97153 15C6.81639 15 7.50103 14.2472 7.50103 13.3186C7.50103 12.761 7.25166 12.2706 6.87121 11.9647H9.72516C9.34474 12.2706 9.09463 12.761 9.09463 13.3186C9.09463 14.2472 9.77976 15 10.6249 15C11.4694 15 12.1545 14.2472 12.1545 13.3186C12.1545 12.761 11.9045 12.2706 11.5242 11.9647H12.218C12.629 11.9647 12.9622 11.5985 12.9622 11.1467C12.9622 10.6949 12.629 10.3288 12.218 10.3288H5.15894L4.96602 9.42457H12.4414C12.9337 9.42457 13.3794 9.08402 13.5515 8.57652L14.9261 4.51007C15.0608 4.1112 15.0094 3.66415 14.788 3.31322Z" fill="#CCAFA0"/>
<path d="M8.83104 0.0884423C8.77613 0.0287347 8.70435 -0.000630311 8.63296 1.02558e-05C8.56136 0.000617109 8.49001 0.0311621 8.43651 0.0918137L6.39711 2.36778C6.31732 2.45642 6.29447 2.58864 6.33855 2.70324C6.36739 2.77785 6.46218 2.89231 6.59826 2.89116C6.79679 2.88944 7.39232 2.88772 7.39232 2.88772L7.39983 3.94304L7.41327 5.82728C7.41499 5.99703 7.541 6.13421 7.69577 6.1329L9.65786 6.11604C9.81259 6.11473 9.93665 5.97539 9.93545 5.80621L9.92205 3.92139L9.91379 2.86139C9.91379 2.86139 10.5099 2.85728 10.7083 2.85556C10.8354 2.85448 10.9367 2.74127 10.9653 2.66379C11.0078 2.54846 10.9831 2.41636 10.9028 2.32908L8.83104 0.0884423Z" fill="#CCAFA0"/>
</svg>
