<svg width="20" height="20" viewBox="0 0 20 20" fill="none" xmlns="http://www.w3.org/2000/svg">
<path d="M19.3333 6.52173C19.7014 6.52173 20 6.22974 20 5.86954V4.56521C20 4.20506 19.7015 3.91302 19.3333 3.91302H0.666679C0.29852 3.91302 0 4.20502 0 4.56521V5.86954C0 6.2297 0.29848 6.52173 0.666679 6.52173H1.33336V18.6956H0.666679C0.29864 18.6956 0 18.9875 0 19.3478C0 19.7081 0.29864 20 0.666679 20H19.3333C19.7013 20 20 19.7081 20 19.3478C20 18.9875 19.7013 18.6956 19.3333 18.6956H18.6666V6.52173H19.3333ZM10.6667 6.52173H13.3333V8.26087C13.3333 8.98012 12.7353 9.5652 12 9.5652C11.2648 9.5652 10.6667 8.98012 10.6667 8.26087L10.6667 6.52173ZM2.66668 8.26083V6.52169H5.33335V8.26083C5.33335 8.98009 4.73527 9.56516 4.00003 9.56516C3.26479 9.56516 2.66668 8.98009 2.66668 8.26083ZM9.3333 18.6956H3.99999V11.5217C3.99999 11.1616 4.29847 10.8695 4.66667 10.8695H8.66666C9.03482 10.8695 9.33334 11.1615 9.33334 11.5217L9.3333 18.6956ZM9.3333 8.26083C9.3333 8.98009 8.73522 9.56516 7.99999 9.56516C7.26475 9.56516 6.66667 8.98009 6.66667 8.26083V6.52169H9.33334L9.3333 8.26083ZM17.3333 16.7391C17.3333 17.0994 17.0346 17.3913 16.6666 17.3913H11.3333C10.9653 17.3913 10.6666 17.0994 10.6666 16.7391V12.8261C10.6666 12.4658 10.9653 12.1739 11.3333 12.1739H16.6666C17.0346 12.1739 17.3333 12.4658 17.3333 12.8261V16.7391ZM17.3333 8.26083C17.3333 8.98009 16.7352 9.56516 16 9.56516C15.2647 9.56516 14.6667 8.98009 14.6667 8.26083V6.52169H17.3333V8.26083H17.3333Z" fill="#CCAFA0"/>
<path d="M13.3332 0H6.66657C5.93133 0 5.33325 0.585077 5.33325 1.30433V2.60867H14.6666V1.30433C14.6666 0.585077 14.0684 0 13.3332 0Z" fill="#CCAFA0"/>
<path d="M8.2221 15.9565C8.5903 15.9565 8.88878 15.6645 8.88878 15.3043C8.88878 14.9441 8.5903 14.6521 8.2221 14.6521C7.8539 14.6521 7.55542 14.9441 7.55542 15.3043C7.55542 15.6645 7.8539 15.9565 8.2221 15.9565Z" fill="#CCAFA0"/>
</svg>
