<svg width="36" height="40" viewBox="0 0 36 40" fill="none" xmlns="http://www.w3.org/2000/svg">
<path d="M17.6805 0C15.7716 0 14.2163 1.59093 14.2163 3.54357C14.2163 5.49465 15.7563 7.08558 17.6805 7.08558C19.574 7.08558 21.1431 5.49465 21.1431 3.54357C21.1431 1.59093 19.5893 0 17.6805 0ZM22.0432 7.82937H13.3177C10.9313 7.82937 9.03158 9.9292 9.03158 12.3704V17.3812H12.0931V13.1533C12.0931 12.8856 12.2906 12.6836 12.5524 12.6836C12.8141 12.6836 13.0116 12.8856 13.0116 13.1533V17.3812H22.3493V13.1533C22.3493 12.8856 22.5468 12.6836 22.8086 12.6836C23.0703 12.6836 23.2678 12.8856 23.2678 13.1533V17.3812H26.3293V12.3704C26.3293 9.94486 24.4143 7.82937 22.0432 7.82937ZM0 18.1641V22.392H3.52078V39.46H31.8401V22.392H35.514V18.1641H0ZM20.5216 32.0706C20.6792 32.0174 20.8308 31.9798 20.9885 31.9798C21.4554 31.9626 21.8549 32.1082 22.1947 32.4245C22.5361 32.7361 22.7198 33.1213 22.7305 33.6099C22.7458 33.7555 22.7305 33.9262 22.6938 34.0875L21.3559 32.827L20.1496 34.1736L21.5028 35.4294C21.3451 35.4827 21.1936 35.5203 21.0359 35.5203C20.569 35.5375 20.171 35.3919 19.8297 35.0756C19.4883 34.742 19.3046 34.3568 19.2893 33.8792C19.2893 33.7117 19.3046 33.5238 19.3414 33.3641L19.0168 33.0462L17.0697 31.2282L13.7755 34.9409C13.5764 35.2149 13.2672 35.4028 12.9106 35.4028C12.3335 35.4028 11.8666 34.9252 11.8666 34.3349C11.8666 34.0186 11.9875 33.7289 12.2232 33.5238L15.643 29.8972L13.5765 27.9602C13.4142 28.0354 13.2305 28.073 13.0728 28.073C12.6059 28.0886 12.2079 27.9446 11.8666 27.6267C11.5252 27.3104 11.3415 26.9236 11.3262 26.446C11.3109 26.302 11.3262 26.1297 11.3629 25.9684L12.7162 27.2243L13.9117 25.8839L12.5585 24.628C12.7008 24.5732 12.8677 24.5357 13.0254 24.5357C13.4923 24.52 13.8918 24.6656 14.2316 24.9819C14.573 25.2935 14.7567 25.7007 14.772 26.1783C14.7888 26.3395 14.772 26.4946 14.7352 26.6559L16.8661 28.6523L18.4229 26.9299L16.0946 24.8316L18.2086 22.3685L24.1939 27.7567L22.0799 30.2198L19.6873 28.062L18.1826 29.8816L20.5216 32.0706Z" fill="#644839"/>
</svg>
