<svg width="15" height="15" viewBox="0 0 15 15" fill="none" xmlns="http://www.w3.org/2000/svg">
<path d="M7.01095 6.4887C6.8105 6.41336 6.63044 6.28224 6.49066 6.10234L6.37222 5.95011C6.16837 5.68838 6.07178 5.35729 6.09993 5.01783C6.12809 4.67789 6.27756 4.37078 6.52122 4.1518L6.81463 3.88824H0.889424C0.398262 3.88821 0 4.31577 0 4.84369V5.53326C0 6.06092 0.398262 6.48873 0.889424 6.48873L7.01095 6.4887Z" fill="#644839"/>
<path d="M14.1109 3.88824H10.8794L8.23651 6.2627C8.12536 6.36231 7.99868 6.43841 7.86377 6.48873H14.1109C14.6021 6.48873 15 6.06092 15 5.53325V4.84369C15 4.3158 14.6021 3.88824 14.1109 3.88824Z" fill="#644839"/>
<path d="M6.75164 5.64065L6.87059 5.79341C7.13268 6.13023 7.59935 6.1748 7.91312 5.89324L12.7382 1.55729C13.0517 1.27549 13.0934 0.774161 12.8314 0.43709L12.7124 0.285077C12.4504 -0.0517428 11.9834 -0.0965912 11.6699 0.185246L6.8446 4.52094C6.5311 4.80278 6.48958 5.30436 6.75164 5.64065ZM11.9344 0.736898C12.0485 0.634706 12.2179 0.650852 12.313 0.773123C12.4086 0.895677 12.3936 1.07765 12.2795 1.1801C12.1654 1.28254 11.9961 1.26611 11.9005 1.14384C11.8048 1.02128 11.8203 0.839058 11.9344 0.736898Z" fill="#644839"/>
<path d="M1.46134 13.5881C1.54287 14.3916 2.17431 15 2.92686 15H11.849C12.6013 15 13.2328 14.3916 13.3143 13.5881L13.9778 7.05365H0.797852L1.46134 13.5881ZM6.82012 13.2421C6.82012 13.4684 6.64929 13.6514 6.43864 13.6514H5.72711C5.52473 13.6514 5.35776 13.4817 5.34637 13.2648L5.2767 11.9165C5.2709 11.8038 5.30828 11.6938 5.38059 11.612C5.45242 11.5301 5.55265 11.484 5.65724 11.484H6.43864C6.64929 11.484 6.82012 11.6672 6.82012 11.8933V13.2421ZM11.0356 8.78911C11.0467 8.57195 11.2137 8.40225 11.4161 8.40225H12.0582C12.165 8.40225 12.2674 8.45047 12.3392 8.53494C12.4115 8.61992 12.4475 8.73334 12.4383 8.84778L12.3635 9.76155C12.346 9.97299 12.181 10.1351 11.9835 10.1351H11.369C11.2641 10.1351 11.1642 10.089 11.0918 10.0071C11.02 9.92527 10.9826 9.81525 10.9885 9.70289L11.0356 8.78911ZM10.8764 11.8706C10.8875 11.6537 11.0545 11.484 11.2569 11.484H11.8063C11.9131 11.484 12.015 11.5317 12.0873 11.6166C12.1596 11.7016 12.1956 11.8148 12.1863 11.929L12.0757 13.2778C12.0582 13.4895 11.8937 13.6514 11.6961 13.6514H11.187C11.0821 13.6514 10.9822 13.6053 10.9103 13.5234C10.838 13.4416 10.8007 13.3313 10.8065 13.2194L10.8764 11.8706ZM8.07525 8.81206C8.07525 8.58552 8.24611 8.40225 8.45676 8.40225H9.39748C9.50184 8.40225 9.6023 8.44864 9.67413 8.5305C9.74644 8.61236 9.78382 8.72211 9.77802 8.83475L9.73094 9.74849C9.71978 9.96515 9.55234 10.1351 9.34993 10.1351H8.45676C8.24611 10.1351 8.07525 9.95187 8.07525 9.72558V8.81206ZM8.07525 11.8933C8.07525 11.6672 8.24611 11.484 8.45676 11.484H9.23828C9.34264 11.484 9.44263 11.5301 9.51493 11.612C9.58674 11.6938 9.62462 11.8038 9.61879 11.9165L9.54892 13.2648C9.53775 13.4817 9.37029 13.6514 9.16838 13.6514H8.45676C8.24611 13.6514 8.07525 13.4684 8.07525 13.2421V11.8933ZM5.22089 8.5305C5.29319 8.44864 5.39321 8.40225 5.49801 8.40225H6.43864C6.64929 8.40225 6.82012 8.58552 6.82012 8.81206V9.72555C6.82012 9.95184 6.64929 10.1351 6.43864 10.1351H5.54535C5.34271 10.1351 5.17574 9.96515 5.16458 9.74846L5.1175 8.83472C5.11167 8.72214 5.14905 8.61236 5.22089 8.5305ZM4.08903 13.2194C4.09437 13.3313 4.05701 13.4416 3.98515 13.5234C3.91308 13.6053 3.81288 13.6514 3.70803 13.6514H3.07973C2.88194 13.6514 2.71741 13.4895 2.69995 13.2778L2.58977 11.929C2.5803 11.8148 2.61599 11.7017 2.68829 11.6167C2.7606 11.5317 2.86255 11.484 2.96931 11.484H3.63839C3.84054 11.484 4.00753 11.6537 4.01893 11.8706L4.08903 13.2194ZM2.4364 8.53494C2.5085 8.45047 2.61065 8.40225 2.71744 8.40225H3.47896C3.68137 8.40225 3.84833 8.57195 3.85973 8.78911L3.90704 9.70286C3.91261 9.81521 3.87525 9.92524 3.80315 10.0071C3.73135 10.089 3.63109 10.1351 3.52627 10.1351H2.79218C2.59463 10.1351 2.4296 9.97295 2.41237 9.76152L2.33764 8.84775C2.32817 8.73334 2.36409 8.61992 2.4364 8.53494Z" fill="#644839"/>
</svg>
