<svg width="12" height="14" viewBox="0 0 12 14" fill="none" xmlns="http://www.w3.org/2000/svg">
<path d="M8.1598 1.11099e-07H5.56373C4.38762 -6.55547e-06 3.45604 -1.99375e-05 2.72696 0.0983986C1.97663 0.199684 1.36931 0.413087 0.890372 0.89396C0.411437 1.37483 0.198882 1.98458 0.0980045 2.73794C-1.9828e-05 3.46995 -6.5552e-06 4.40528 1.11301e-07 5.58612V9.47779C1.11301e-07 10.4832 0.613285 11.3448 1.48474 11.706C1.43989 11.0997 1.43993 10.249 1.43997 9.54119V6.26497V6.20151C1.43992 5.34705 1.43987 4.61089 1.51882 4.02135C1.60342 3.38954 1.79422 2.7839 2.28348 2.29267C2.77274 1.80143 3.37594 1.60988 4.00522 1.52493C4.5924 1.44567 5.32567 1.44571 6.17665 1.44576L6.23985 1.44577H8.1598L8.223 1.44576C9.07398 1.44571 9.80563 1.44567 10.3928 1.52493C10.0416 0.63185 9.17418 1.11099e-07 8.1598 1.11099e-07Z" fill="#3D1A07"/>
<path d="M2.3999 6.26485C2.3999 4.44741 2.3999 3.53869 2.96224 2.97409C3.52458 2.40948 4.42966 2.40948 6.23981 2.40948H8.15976C9.96992 2.40948 10.875 2.40948 11.4374 2.97409C11.9997 3.53869 11.9997 4.44741 11.9997 6.26485V9.47767C11.9997 11.2951 11.9997 12.2038 11.4374 12.7684C10.875 13.333 9.96992 13.333 8.15976 13.333H6.23981C4.42966 13.333 3.52458 13.333 2.96224 12.7684C2.3999 12.2038 2.3999 11.2951 2.3999 9.47767V6.26485Z" fill="#3D1A07"/>
</svg>
