<svg width="125" height="125" viewBox="0 0 125 125" fill="none" xmlns="http://www.w3.org/2000/svg">
<path d="M18.2262 62.4979C22.5275 62.4979 26.3238 60.3781 28.6828 57.2586C31.0575 60.4199 34.8069 62.4979 39.0562 62.4979C43.3316 62.4979 47.0967 60.3991 49.4713 57.2117C51.8459 60.4042 55.611 62.4979 59.8862 62.4979C64.1616 62.4979 67.9267 60.3991 70.3013 57.2117C72.6759 60.3991 76.4409 62.4979 80.7164 62.4979C84.9657 62.4979 88.7151 60.4199 91.0793 57.1492C93.4539 60.3781 97.245 62.4979 101.546 62.4979C108.722 62.4979 114.565 56.6595 114.565 49.4776C114.565 49.0037 114.44 48.5401 114.195 48.139L98.5727 22.0982C98.0989 21.3118 97.2553 20.8326 96.3387 20.8326H23.4337C22.5171 20.8326 21.6734 21.3118 21.1996 22.0982L5.57709 48.139C5.33226 48.5401 5.20728 49.0035 5.20728 49.4776C5.20728 56.6595 11.0501 62.4979 18.2262 62.4979Z" fill="#CCAFA0"/>
<path d="M23.4334 15.6245H96.3387C96.3751 15.6193 96.4117 15.6193 96.4429 15.6245C97.8802 15.6245 99.0468 14.4578 99.0468 13.0203C99.0468 12.7339 98.9999 12.4683 98.9167 12.2078C98.4997 5.40607 92.8288 0 85.9236 0H33.8485C26.6727 0 20.8298 5.83843 20.8298 13.0203C20.8296 14.4578 21.9962 15.6245 23.4334 15.6245Z" fill="#CCAFA0"/>
<path d="M114.227 108.611L106.41 106.663L106.082 105.35C108.113 103.111 109.551 100.252 110.149 97.2831C111.54 96.5644 112.55 95.1999 112.753 93.5594L113.321 89.0283C113.493 87.6584 113.071 86.2784 112.16 85.2315C111.878 84.9034 111.555 84.6273 111.207 84.3929L111.342 81.6325L111.821 81.1482C113.16 79.7263 114.972 76.6744 112.102 72.284C110.738 70.1954 107.926 67.706 102.297 67.706C100.641 67.706 96.8963 67.706 93.2616 69.9872C82.5445 70.357 81.2842 76.1381 81.2842 80.4973C81.2842 81.3567 81.4353 82.9711 81.5862 84.3097C81.2008 84.5545 80.8468 84.8514 80.5395 85.2003C79.6177 86.2471 79.1854 87.6428 79.3573 89.0283L79.9248 93.5542C80.1384 95.2522 81.2164 96.6584 82.8045 97.351C83.393 100.195 84.7522 102.945 86.6528 105.127L86.2727 106.658L78.4563 108.606C72.1187 110.195 67.6975 115.861 67.6975 122.392C67.6975 123.829 68.8641 124.996 70.3013 124.996H122.376C123.814 124.996 124.98 123.824 124.98 122.387C124.98 115.861 120.559 110.194 114.227 108.611Z" fill="#CCAFA0"/>
<path d="M65.094 111.975C64.4171 111.975 63.761 111.71 63.2767 111.231C62.7714 110.746 62.4902 110.074 62.4902 109.371V70.3101C62.4902 68.8727 63.6567 67.7059 65.094 67.7059C65.094 67.7059 73.952 66.9403 70.3014 64.3623C64.1618 68.6954 55.6111 68.6954 49.4715 64.3623C43.3369 68.6954 34.7812 68.6954 28.6517 64.3728C25.5897 66.5341 21.9602 67.7059 18.2264 67.7059C17.3359 67.7059 16.4818 67.5653 15.6225 67.4403V109.371H13.0187C5.84283 109.371 0 115.21 0 122.392C0 123.829 1.16656 124.996 2.60384 124.996H59.8866C61.3239 124.996 62.4904 123.829 62.4904 122.392C62.4904 119.235 63.2767 116.079 64.7662 113.277C64.7713 113.267 64.7767 113.251 64.7818 113.241C64.7869 113.225 64.8079 113.22 64.813 113.21C65.0525 112.767 65.3755 112.387 65.641 111.965L65.1567 111.975H65.094ZM57.2827 96.351C57.2827 97.7884 56.1162 98.9551 54.6789 98.9551H28.6412C27.204 98.9551 26.0374 97.7884 26.0374 96.351V70.3101C26.0374 68.8727 27.204 67.7059 28.6412 67.7059H54.6789C56.1162 67.7059 57.2827 68.8727 57.2827 70.3101V96.351Z" fill="#CCAFA0"/>
</svg>
