<svg width="30" height="28" viewBox="0 0 30 28" fill="none" xmlns="http://www.w3.org/2000/svg">
<path fill-rule="evenodd" clip-rule="evenodd" d="M3.49126 2.3975C3.75376 1.56537 4.52637 1.00012 5.39875 1.00012C9.42462 1.00012 20.6124 1.00012 24.5446 1.00012C25.4021 1.00012 26.1642 1.547 26.439 2.35987C27.2869 4.71275 28.9327 9.38874 28.9327 10.5C28.9327 12.432 27.3647 14 25.4327 14C23.5007 14 21.9327 12.432 21.9327 10.5C21.9327 12.432 20.3647 14 18.4327 14C16.5007 14 14.9327 12.432 14.9327 10.5C14.9327 12.432 13.3647 14 11.4327 14C9.50075 14 7.93275 12.432 7.93275 10.5C7.93275 12.432 6.36475 14 4.43275 14C3.1465 14 2.02126 13.3044 1.41313 12.2692C0.98263 11.5369 0.883739 10.6566 1.13924 9.84724C1.62136 8.31862 2.83326 4.48087 3.49126 2.3975Z" fill="#EDDEDE" fill-opacity="0.8"/>
<path fill-rule="evenodd" clip-rule="evenodd" d="M3.9588 7.90817C3.9588 7.90817 3.94179 20.0988 3.93579 24.9967C3.93479 25.528 4.14482 26.0377 4.52082 26.4125C4.89582 26.7889 5.40479 26.9996 5.93579 26.9996C10.1208 26.9996 19.7498 26.9996 23.9328 26.9996C24.4628 26.9996 24.9718 26.7889 25.3468 26.4141C25.7218 26.0392 25.9328 25.5296 25.9328 24.9998C25.9328 20.1019 25.9328 7.90817 25.9328 7.90817" fill="#EDDEDE" fill-opacity="0.8"/>
<path fill-rule="evenodd" clip-rule="evenodd" d="M2.95685 14.752L2.93487 24.994C2.93287 25.79 3.24886 26.555 3.81186 27.119C4.37386 27.683 5.13787 28 5.93487 28H23.9308C24.7268 28 25.4898 27.684 26.0518 27.121C26.6148 26.559 26.9308 25.796 26.9308 25V14.744C28.6788 14.127 29.9329 12.459 29.9329 10.5C29.9329 9.346 28.2649 4.47699 27.3829 2.02699C26.9669 0.814993 25.8269 0 24.5449 0C20.6119 0 9.42486 0 5.39886 0C4.08986 0 2.93187 0.849 2.53787 2.097L0.18585 9.54601C-0.15515 10.626 -0.0231293 11.799 0.550871 12.776C1.08787 13.691 1.93985 14.399 2.95685 14.752ZM24.9308 14.972C23.7228 14.838 22.6589 14.225 21.9329 13.327C21.1079 14.347 19.8459 15 18.4329 15C17.0199 15 15.7579 14.347 14.9329 13.327C14.1079 14.347 12.8459 15 11.4329 15C10.0199 15 8.75786 14.347 7.93286 13.327C7.21086 14.219 6.15487 14.831 4.95587 14.97L4.93487 24.998C4.93487 25.263 5.03987 25.518 5.22687 25.706C5.41487 25.894 5.66887 26 5.93487 26H10.9329V22C10.9329 20.343 12.2759 19 13.9329 19H15.9329C17.5899 19 18.9329 20.343 18.9329 22V26H23.9308C24.1958 26 24.4498 25.895 24.6378 25.707C24.8258 25.52 24.9308 25.265 24.9308 25V14.972ZM16.9329 26H12.9329V22C12.9329 21.448 13.3809 21 13.9329 21H15.9329C16.4849 21 16.9329 21.448 16.9329 22V26ZM4.44485 2.69901C4.57685 2.28301 4.96286 2 5.39886 2H24.5449C24.9739 2 25.3549 2.27399 25.4918 2.67999L25.4949 2.689C26.3129 4.957 27.9329 9.434 27.9329 10.5C27.9329 11.88 26.8129 13 25.4329 13C24.0529 13 22.9329 11.88 22.9329 10.5C22.9329 8.986 20.9329 8.986 20.9329 10.5C20.9329 11.88 19.8129 13 18.4329 13C17.0529 13 15.9329 11.88 15.9329 10.5C15.9329 9.004 13.9329 9.004 13.9329 10.5C13.9329 11.88 12.8129 13 11.4329 13C10.0529 13 8.93286 11.88 8.93286 10.5C8.93286 9.003 6.93286 9.003 6.93286 10.5C6.93286 11.88 5.81286 13 4.43286 13C3.51386 13 2.70987 12.503 2.27487 11.763C1.98887 11.275 1.92286 10.688 2.09286 10.148L4.44485 2.69901Z" fill="#393939"/>
</svg>
