<svg width="28" height="29" viewBox="0 0 28 29" fill="none" xmlns="http://www.w3.org/2000/svg">
<path d="M4.08318 14.0008C5.04683 14.0008 5.89732 13.5259 6.42581 12.8271C6.95781 13.5353 7.7978 14.0008 8.7498 14.0008C9.70764 14.0008 10.5511 13.5306 11.0831 12.8166C11.6151 13.5318 12.4586 14.0008 13.4164 14.0008C14.3743 14.0008 15.2177 13.5306 15.7497 12.8166C16.2817 13.5306 17.1252 14.0008 18.0831 14.0008C19.0351 14.0008 19.8751 13.5353 20.4047 12.8026C20.9367 13.5259 21.786 14.0008 22.7497 14.0008C24.3573 14.0008 25.6663 12.6929 25.6663 11.084C25.6663 10.9778 25.6383 10.874 25.5835 10.7841L22.0835 4.95051C21.9773 4.77435 21.7883 4.66699 21.583 4.66699H5.24982C5.04447 4.66699 4.85548 4.77435 4.74933 4.95051L1.24935 10.7841C1.1945 10.874 1.1665 10.9778 1.1665 11.084C1.1665 12.6929 2.47549 14.0008 4.08318 14.0008Z" fill="#CCAFA0"/>
<path d="M5.2498 3.50016H21.5832C21.5913 3.49902 21.5995 3.49902 21.6065 3.50016C21.9285 3.50016 22.1899 3.2388 22.1899 2.91679C22.1899 2.85263 22.1794 2.79313 22.1607 2.73478C22.0673 1.21106 20.7968 0 19.2498 0H7.58315C5.97551 0 4.6665 1.30791 4.6665 2.91679C4.66645 3.2388 4.9278 3.50016 5.2498 3.50016Z" fill="#CCAFA0"/>
<path d="M25.5907 24.3304L23.8396 23.8941L23.7661 23.6C24.2211 23.0984 24.5431 22.4578 24.6772 21.7928C24.9887 21.6318 25.2151 21.3261 25.2606 20.9586L25.3877 19.9436C25.4262 19.6367 25.3317 19.3275 25.1276 19.093C25.0646 19.0195 24.9922 18.9577 24.9141 18.9052L24.9444 18.2868L25.0518 18.1783C25.3516 17.8598 25.7576 17.1761 25.1148 16.1925C24.8091 15.7247 24.1791 15.167 22.9179 15.167C22.5469 15.167 21.7081 15.167 20.8938 15.678C18.4928 15.7609 18.2104 17.0559 18.2104 18.0325C18.2104 18.225 18.2443 18.5867 18.2781 18.8865C18.1917 18.9414 18.1124 19.0079 18.0436 19.086C17.8371 19.3205 17.7402 19.6332 17.7787 19.9436L17.9059 20.9575C17.9537 21.3378 18.1952 21.6529 18.551 21.808C18.6829 22.445 18.9874 23.0611 19.4132 23.5499L19.328 23.893L17.5769 24.3293C16.157 24.6852 15.1665 25.9546 15.1665 27.4176C15.1665 27.7396 15.4279 28.001 15.7499 28.001H27.4165C27.7385 28.001 27.9999 27.7385 27.9999 27.4165C27.9999 25.9545 27.0094 24.6851 25.5907 24.3304Z" fill="#CCAFA0"/>
<path d="M14.5834 25.4045C14.4317 25.4045 14.2847 25.345 14.1762 25.2376C14.063 25.1291 14 24.9786 14 24.8211V16.0707C14 15.7487 14.2614 15.4873 14.5834 15.4873C14.5834 15.4873 16.5679 15.3158 15.75 14.7383C14.3745 15.709 12.4589 15.709 11.0834 14.7383C9.70901 15.709 7.79221 15.709 6.41901 14.7406C5.733 15.2248 4.91986 15.4873 4.08335 15.4873C3.88385 15.4873 3.6925 15.4558 3.5 15.4278V24.8211H2.91665C1.309 24.8211 0 26.129 0 27.7379C0 28.0599 0.261352 28.3213 0.583352 28.3213H13.4167C13.7387 28.3213 14.0001 28.0599 14.0001 27.7379C14.0001 27.0309 14.1762 26.3238 14.5099 25.6962C14.5111 25.6938 14.5123 25.6903 14.5134 25.688C14.5146 25.6845 14.5193 25.6834 14.5204 25.681C14.5741 25.5818 14.6464 25.4966 14.7059 25.4021L14.5974 25.4045H14.5834ZM12.8334 21.9043C12.8334 22.2263 12.572 22.4877 12.25 22.4877H6.41665C6.09465 22.4877 5.8333 22.2263 5.8333 21.9043V16.0707C5.8333 15.7487 6.09465 15.4873 6.41665 15.4873H12.25C12.572 15.4873 12.8334 15.7487 12.8334 16.0707V21.9043Z" fill="#CCAFA0"/>
</svg>
