<svg width="11" height="11" viewBox="0 0 11 11" fill="none" xmlns="http://www.w3.org/2000/svg">
<path d="M4.16196 6.29314C4.64991 6.72328 5.04805 7.02304 5.71771 7.02304H7.96404C8.26758 7.02304 8.51306 6.88495 8.65537 6.63424C8.78857 6.39955 8.80514 6.09029 8.69833 5.88627C8.77313 5.85218 8.84081 5.7987 8.89853 5.72695C9.10603 5.46878 9.1407 5.02559 9.04283 4.77355C9.02392 4.72487 9.00152 4.6854 8.97732 4.65321C9.01713 4.62053 9.0566 4.57608 9.09293 4.51596C9.27887 4.20911 9.29215 3.63786 9.12014 3.34055C9.0936 3.2946 9.06292 3.25488 9.02892 3.2217C9.12745 3.10899 9.18749 2.93318 9.18749 2.72485C9.18766 2.34054 8.96275 1.92679 8.46846 1.92628L6.63263 1.92438C7.00948 1.37461 6.98228 0.603423 6.75055 0.230302C6.61155 0.00663051 6.42711 -0.0280353 6.28364 0.0173309C6.12142 0.0213053 5.97596 0.195552 5.7527 0.46335C5.67175 0.560299 5.58518 0.664296 5.49611 0.759581C4.72616 1.5837 4.47455 1.85447 4.38779 1.95174L4.15428 2.0509C4.06294 1.8341 3.84837 1.68146 3.59876 1.68146H2.19372C1.86182 1.68146 1.5918 1.95182 1.5918 2.28406V6.08465C1.5918 6.41689 1.86182 6.68717 2.19372 6.68717H3.59878C3.85742 6.68715 4.0767 6.52248 4.16196 6.29314ZM4.20137 2.39992L4.554 2.25014C4.58021 2.23904 4.60294 2.22169 4.62034 2.1998C4.66298 2.15129 5.12175 1.65784 5.74426 0.991456C5.8388 0.890448 5.92754 0.783869 6.01347 0.680873C6.11332 0.561284 6.24767 0.40015 6.3097 0.35959C6.33424 0.35942 6.35863 0.353866 6.38119 0.343166C6.40855 0.331141 6.44321 0.379242 6.46197 0.409508C6.6474 0.708236 6.66665 1.5447 6.14019 1.96052C6.08346 2.00531 6.0614 2.08111 6.08512 2.14944C6.10868 2.21777 6.17304 2.26356 6.24536 2.26365L8.46813 2.26597C8.82972 2.26631 8.84796 2.64813 8.84781 2.72468C8.84781 2.91268 8.7735 3.01602 8.74232 3.01619L8.71246 3.01734C8.58027 3.02108 8.48257 3.11404 8.48522 3.23371C8.48755 3.33871 8.57794 3.44735 8.73401 3.44079C8.74994 3.4412 8.78527 3.43996 8.82607 3.51061C8.93754 3.70336 8.92526 4.13733 8.80251 4.33995C8.77829 4.38 8.75424 4.40065 8.74264 4.40065C8.74264 4.40065 8.74247 4.40065 8.7423 4.40065C8.72904 4.40031 8.7156 4.40106 8.70232 4.40364C8.5804 4.4276 8.49731 4.52231 8.49996 4.63402C8.50261 4.74581 8.5892 4.83629 8.6995 4.85039C8.75042 4.88888 8.79752 5.16637 8.69602 5.40654C8.60928 5.61096 8.49815 5.59396 8.46214 5.58792C8.45351 5.58659 8.44473 5.58593 8.4361 5.58593L8.36993 5.58618C8.28385 5.58155 8.20489 5.61993 8.16176 5.68886C8.12212 5.75255 8.11979 5.83267 8.15595 5.89794C8.1951 5.9686 8.27172 6.01082 8.36461 6.01082C8.36594 6.00932 8.37755 6.00999 8.39332 6.03669C8.44524 6.1236 8.44723 6.31269 8.35997 6.46654C8.27821 6.61043 8.14502 6.68333 7.96404 6.68333H5.71771C5.10849 6.68333 4.77958 6.38992 4.23471 5.90383L4.20137 5.87406V2.39992ZM3.86167 2.28754V5.95022V6.08465C3.86167 6.22953 3.74375 6.34747 3.59876 6.34747H2.19372C2.04908 6.34747 1.93149 6.22955 1.93149 6.08465V2.28406C1.93149 2.1391 2.04909 2.02116 2.19372 2.02116H3.59878C3.74375 2.02116 3.86169 2.13908 3.86169 2.28406L3.86167 2.28754Z" fill="#644839"/>
<path d="M2.72089 8.7132L1.95526 8.56507L1.57774 7.88246C1.54788 7.82838 1.491 7.7948 1.42912 7.7948C1.36741 7.7948 1.31036 7.8284 1.2805 7.88237L0.902831 8.56507L0.137516 8.7132C0.076982 8.72497 0.0273866 8.76876 0.00831276 8.82749C-0.0107611 8.88629 0.00350608 8.95081 0.0457981 8.99593L0.578066 9.56559L0.482187 10.3393C0.474561 10.4006 0.500938 10.4613 0.550856 10.4976C0.580376 10.5191 0.615381 10.53 0.650709 10.53C0.675099 10.53 0.699812 10.5247 0.722691 10.514L1.42912 10.1837L2.13521 10.514C2.19111 10.5401 2.25696 10.5342 2.30704 10.4976C2.35696 10.4613 2.38334 10.4006 2.37571 10.3393L2.27983 9.56559L2.81259 8.99601C2.85472 8.9509 2.86915 8.88637 2.85008 8.82757C2.83101 8.76877 2.78143 8.72499 2.72089 8.7132ZM1.97747 9.3916C1.94315 9.42843 1.92672 9.47851 1.93302 9.52853L2.00086 10.0761L1.5011 9.84234C1.45533 9.82094 1.40291 9.82094 1.35712 9.84234L0.85704 10.0762L0.924877 9.52853C0.931178 9.47862 0.914754 9.42843 0.880428 9.39169L0.503571 8.98839L1.0453 8.88355C1.09455 8.87394 1.13719 8.843 1.16158 8.79904L1.42912 8.31553L1.69632 8.79895C1.72071 8.843 1.76333 8.87392 1.8126 8.88354L2.35465 8.98837L1.97747 9.3916Z" fill="#644839"/>
<path d="M6.48603 8.71324L5.72039 8.56511L5.34304 7.8825C5.28332 7.77436 5.10553 7.77436 5.04581 7.8825L4.66846 8.56511L3.90282 8.71324C3.84212 8.72501 3.79252 8.7688 3.77345 8.82753C3.75438 8.88633 3.76864 8.95085 3.81093 8.99597L4.3432 9.56563L4.24732 10.3393C4.2397 10.4007 4.26607 10.4613 4.31599 10.4976C4.36591 10.5341 4.43193 10.5404 4.48783 10.5141L5.19443 10.1837L5.90036 10.5141C5.92326 10.5248 5.9478 10.5301 5.97234 10.5301C6.0075 10.5301 6.04268 10.5191 6.0722 10.4976C6.12211 10.4614 6.14849 10.4008 6.14087 10.3394L6.0455 9.56563L6.57793 8.99605C6.62023 8.95085 6.63449 8.88633 6.61542 8.82753C6.59635 8.76881 6.54675 8.72503 6.48603 8.71324ZM5.74312 9.39173C5.70879 9.42847 5.69252 9.47855 5.69867 9.52849L5.76618 10.0763L5.26642 9.84238C5.22065 9.82098 5.16824 9.82098 5.12244 9.84238L4.62219 10.0763L4.69003 9.52857C4.69633 9.47865 4.67991 9.42847 4.64558 9.39173L4.26874 8.98842L4.81096 8.88359C4.86039 8.87398 4.90302 8.84304 4.92739 8.79901L5.19444 8.31585L5.46149 8.79901C5.48588 8.84305 5.5285 8.87398 5.57792 8.88359L6.11997 8.98842L5.74312 9.39173Z" fill="#644839"/>
<path d="M10.2807 8.82749C10.2617 8.76877 10.2121 8.72499 10.1515 8.7132L9.38589 8.56507L9.00854 7.88246C8.97868 7.82838 8.9218 7.7948 8.85992 7.7948C8.79805 7.7948 8.74117 7.8284 8.71131 7.88246L8.33379 8.56507L7.56815 8.7132C7.50762 8.72497 7.45802 8.76876 7.43895 8.82756C7.41987 8.88636 7.43431 8.95088 7.47643 8.99599L8.00919 9.56558L7.91331 10.3393C7.90569 10.4006 7.93206 10.4613 7.98198 10.4976C8.0319 10.534 8.09792 10.54 8.15382 10.514L8.85991 10.1837L9.56633 10.514C9.58923 10.5247 9.61379 10.53 9.63833 10.53C9.67366 10.53 9.70867 10.5191 9.73819 10.4976C9.7881 10.4613 9.81448 10.4006 9.80686 10.3393L9.71098 9.56559L10.2432 8.99593C10.2856 8.9508 10.2998 8.88629 10.2807 8.82749ZM9.40861 9.39169C9.37429 9.42843 9.35786 9.4786 9.36417 9.52853L9.432 10.0762L8.93192 9.84234C8.90903 9.83164 8.88448 9.82634 8.85994 9.82634C8.8354 9.82634 8.81084 9.83166 8.78796 9.84234L8.2882 10.0761L8.35604 9.52853C8.36234 9.47853 8.34591 9.42843 8.31159 9.3916L7.93441 8.98838L8.47646 8.88355C8.52571 8.87394 8.56835 8.843 8.59274 8.79897L8.85994 8.31572L9.12699 8.79897C9.15138 8.84301 9.194 8.87394 9.24327 8.88355L9.78549 8.98838L9.40861 9.39169Z" fill="#644839"/>
</svg>
