<svg width="24" height="24" viewBox="0 0 24 24" fill="none" xmlns="http://www.w3.org/2000/svg">
<path fill-rule="evenodd" clip-rule="evenodd" d="M0 12C0 5.37258 5.37258 0 12 0C18.6274 0 24 5.37258 24 12C24 18.6274 18.6274 24 12 24C5.37258 24 0 18.6274 0 12ZM8.4 11.4C8.4 9.74316 9.74316 8.4 11.4 8.4C13.0568 8.4 14.4 9.74316 14.4 11.4C14.4 13.0568 13.0568 14.4 11.4 14.4C9.74316 14.4 8.4 13.0568 8.4 11.4ZM11.4 6C8.41766 6 6 8.41766 6 11.4C6 14.3824 8.41766 16.8 11.4 16.8C12.4566 16.8 13.4424 16.4965 14.2748 15.972L15.9515 17.6485C16.4201 18.1171 17.1799 18.1171 17.6485 17.6485C18.1171 17.1799 18.1171 16.4201 17.6485 15.9515L15.972 14.2748C16.4965 13.4424 16.8 12.4566 16.8 11.4C16.8 8.41766 14.3824 6 11.4 6Z" fill="#CCAFA0"/>
</svg>
