<svg width="15" height="15" viewBox="0 0 15 15" fill="none" xmlns="http://www.w3.org/2000/svg">
<path d="M9.30317 6.32009C10.5496 6.32009 11.5599 5.34061 11.5599 4.13237C11.5599 2.92412 10.5496 1.94464 9.30317 1.94464C8.05678 1.94464 7.04639 2.92412 7.04639 4.13237C7.04639 5.34061 8.05678 6.32009 9.30317 6.32009Z" fill="#CCAFA0"/>
<path d="M14.0171 7.04935C13.9168 6.90351 13.7664 6.80627 13.5658 6.80627C12.4624 6.80627 11.4093 7.29243 10.7573 8.16752L10.306 8.75092C9.75431 9.38293 8.90174 9.72324 8.04918 9.72324H6.54466C6.24376 9.72324 6.04316 9.52878 6.04316 9.23708C6.04316 8.94538 6.24376 8.75092 6.54466 8.75092H7.49753C8.29994 8.75092 9.0522 8.11891 9.0522 7.34105V7.29244C9.0522 7.04935 8.80144 6.80627 8.55069 6.80627H5.4915C3.68607 6.80627 2.23171 7.58413 1.42929 8.84815L0.075226 10.89C-0.0250753 11.0359 -0.0250753 11.2303 0.075226 11.3762L1.57975 13.807C1.6299 13.9042 1.78035 14.0015 1.88065 14.0501C1.9308 14.0501 1.9308 14.0501 1.98095 14.0501C2.08125 14.0501 2.18155 14.0015 2.28186 13.9528C4.18758 12.7374 6.39421 12.1054 8.65099 12.1054C10.306 12.1054 11.8105 11.2303 12.6129 9.82047L13.967 7.4869C14.0673 7.38967 14.0673 7.1952 14.0171 7.04935Z" fill="#CCAFA0"/>
<path d="M6.04318 4.13237C6.04318 2.91697 6.79544 1.84741 7.8486 1.31263C7.49755 0.534777 6.69514 0 5.79242 0C4.53866 0 3.53564 0.972322 3.53564 2.18772C3.53564 3.40313 4.53866 4.37545 5.79242 4.37545C5.89273 4.37545 5.94288 4.37545 6.04318 4.32683C6.04318 4.27822 6.04318 4.2296 6.04318 4.13237Z" fill="#CCAFA0"/>
</svg>
