<svg width="12" height="12" viewBox="0 0 12 12" fill="none" xmlns="http://www.w3.org/2000/svg">
<path d="M1.75016 6.00097C2.1632 6.00097 2.52774 5.79743 2.75427 5.4979C2.98229 5.80144 3.34233 6.00097 3.75038 6.00097C4.16093 6.00097 4.52248 5.79945 4.7505 5.4934C4.97853 5.79994 5.34007 6.00097 5.7506 6.00097C6.16115 6.00097 6.5227 5.79945 6.75072 5.4934C6.97875 5.79945 7.34029 6.00097 7.75084 6.00097C8.15889 6.00097 8.51893 5.80144 8.74595 5.4874C8.97398 5.79743 9.33803 6.00097 9.75106 6.00097C10.4401 6.00097 11.0012 5.44037 11.0012 4.75078C11.0012 4.70528 10.9892 4.66076 10.9657 4.62225L9.46552 2.12183C9.42002 2.04632 9.33901 2.00031 9.25099 2.00031H2.25021C2.16219 2.00031 2.08118 2.04632 2.03568 2.12183L0.535512 4.62225C0.512001 4.66076 0.5 4.70525 0.5 4.75078C0.5 5.44037 1.06106 6.00097 1.75016 6.00097Z" fill="#3D1A07"/>
<path d="M2.25001 1.50025H9.25082C9.25431 1.49976 9.25783 1.49976 9.26083 1.50025C9.39884 1.50025 9.51086 1.38822 9.51086 1.2502C9.51086 1.2227 9.50636 1.1972 9.49837 1.17219C9.45834 0.519086 8.91377 0 8.2507 0H3.25014C2.56106 0 2 0.560601 2 1.2502C1.99998 1.38822 2.112 1.50025 2.25001 1.50025Z" fill="#3D1A07"/>
<path d="M10.969 10.4287L10.2184 10.2416L10.1869 10.1156C10.3819 9.9006 10.52 9.62605 10.5775 9.34101C10.711 9.272 10.808 9.14098 10.8275 8.98346L10.882 8.54838C10.8985 8.41685 10.858 8.28434 10.7705 8.18382C10.7435 8.15232 10.7125 8.12581 10.679 8.1033L10.692 7.83825L10.738 7.79174C10.8665 7.65522 11.0405 7.36218 10.765 6.94061C10.634 6.74007 10.364 6.50104 9.82339 6.50104C9.66437 6.50104 9.30482 6.50104 8.9558 6.72007C7.92668 6.75559 7.80566 7.31068 7.80566 7.72925C7.80566 7.81176 7.82017 7.96678 7.83465 8.09531C7.79764 8.11882 7.76365 8.14733 7.73414 8.18082C7.64563 8.28134 7.60412 8.41535 7.62062 8.54838L7.67512 8.98296C7.69563 9.146 7.79914 9.28102 7.95164 9.34752C8.00816 9.62057 8.13867 9.88461 8.32118 10.0942L8.28468 10.2412L7.5341 10.4282C6.92552 10.5808 6.50098 11.1248 6.50098 11.7519C6.50098 11.89 6.613 12.002 6.75101 12.002H11.7516C11.8896 12.002 12.0016 11.8895 12.0016 11.7514C12.0016 11.1248 11.5771 10.5807 10.969 10.4287Z" fill="#3D1A07"/>
<path d="M6.25072 10.7518C6.18572 10.7518 6.12271 10.7263 6.07621 10.6802C6.02769 10.6337 6.00069 10.5692 6.00069 10.5017V6.7511C6.00069 6.61307 6.11271 6.50105 6.25072 6.50105C6.25072 6.50105 7.10132 6.42753 6.75077 6.17999C6.1612 6.59605 5.34012 6.59605 4.75055 6.17999C4.16148 6.59605 3.3399 6.59605 2.75131 6.181C2.45728 6.38853 2.10875 6.50105 1.75021 6.50105C1.6647 6.50105 1.58268 6.48754 1.50017 6.47554V10.5017H1.25014C0.561064 10.5017 0 11.0623 0 11.7519C0 11.8899 0.112021 12.002 0.250036 12.002H5.75067C5.88869 12.002 6.00071 11.8899 6.00071 11.7519C6.00071 11.4489 6.07621 11.1458 6.21924 10.8768C6.21973 10.8758 6.22025 10.8743 6.22074 10.8733C6.22123 10.8718 6.22325 10.8713 6.22374 10.8703C6.24674 10.8278 6.27775 10.7913 6.30325 10.7508L6.25675 10.7518H6.25072ZM5.50064 9.25152C5.50064 9.38954 5.38862 9.50157 5.2506 9.50157H2.75031C2.61229 9.50157 2.50027 9.38954 2.50027 9.25152V6.7511C2.50027 6.61307 2.61229 6.50105 2.75031 6.50105H5.2506C5.38862 6.50105 5.50064 6.61307 5.50064 6.7511V9.25152Z" fill="#3D1A07"/>
</svg>
