<svg width="7" height="10" viewBox="0 0 7 10" fill="none" xmlns="http://www.w3.org/2000/svg">
<path d="M3.23872 1.48183C3.66108 1.21322 3.75142 0.699188 3.44055 0.334087C3.12937 -0.0307193 2.53466 -0.108926 2.11247 0.159831C1.68994 0.428588 1.5996 0.942453 1.91046 1.30743C2.22164 1.67251 2.81619 1.75057 3.23872 1.48183Z" fill="#644839"/>
<path d="M1.37176 2.7903L1.43477 2.65982C1.45028 2.62786 1.43311 2.59141 1.39676 2.5783L0.162168 2.13413C0.125841 2.12102 0.0838394 2.13643 0.0685022 2.16869L0.00566016 2.29889C-0.0096557 2.33087 0.00715339 2.36746 0.0435019 2.38054L1.27809 2.82457C1.31461 2.83784 1.35644 2.82216 1.37176 2.7903Z" fill="#644839"/>
<path d="M6.89172 4.45147C7.03607 4.32689 7.03624 4.12455 6.8919 3.99982L5.60415 2.78397L4.63807 1.87186C4.61941 1.85571 4.59874 1.84263 4.57824 1.82967C4.16738 1.44628 3.37484 1.63927 3.10965 2.10346L2.4426 3.27194L1.08733 2.83727C0.899149 2.76872 0.682317 2.84492 0.602815 3.00751C0.523634 3.16997 0.611646 3.3572 0.799831 3.42575L2.50194 4.12399C2.76945 4.22336 2.98181 4.09922 3.05698 3.98802C3.06131 3.98183 3.18482 3.73484 3.18482 3.73484L3.46933 5.19006L2.48876 8.99614C2.42875 9.17114 2.56608 9.36067 2.79578 9.41971C3.02545 9.47847 3.26046 9.38428 3.32048 9.20929L4.27672 6.93515L4.37958 7.31826C4.38824 7.35785 4.40224 7.39545 4.42041 7.43088C4.43675 7.46688 4.4574 7.50188 4.48391 7.5353L6.02687 9.23506C6.16271 9.40542 6.43272 9.4485 6.6299 9.33096C6.82724 9.21373 6.87709 8.98042 6.74123 8.80989L5.52966 7.05525L4.97093 3.3445L6.36902 4.45146C6.51335 4.5762 6.74738 4.5762 6.89172 4.45147Z" fill="#644839"/>
</svg>
