<svg width="12" height="12" viewBox="0 0 12 12" fill="none" xmlns="http://www.w3.org/2000/svg">
<path d="M4.6709 0.933594C5.32215 0.0218704 6.67778 0.0218594 7.3291 0.933594L7.44824 1.10156C7.63304 1.36024 7.94387 1.49897 8.25977 1.46387L8.79199 1.4043C9.83213 1.28873 10.7113 2.16791 10.5957 3.20801L10.5371 3.74023C10.502 4.05615 10.6398 4.36692 10.8984 4.55176L11.0664 4.6709C11.9781 5.32215 11.9781 6.67778 11.0664 7.3291L10.8984 7.44824C10.6397 7.63305 10.502 7.9439 10.5371 8.25977L10.5957 8.79199C10.7113 9.83213 9.83213 10.7113 8.79199 10.5957L8.25977 10.5371C7.9439 10.502 7.63305 10.6397 7.44824 10.8984L7.3291 11.0664C6.67779 11.9781 5.32221 11.9781 4.6709 11.0664L4.55176 10.8984C4.36692 10.6398 4.05616 10.502 3.74023 10.5371L3.20801 10.5957C2.16791 10.7113 1.28873 9.83213 1.4043 8.79199L1.46387 8.25977C1.49897 7.94387 1.36024 7.63304 1.10156 7.44824L0.933594 7.3291C0.0218679 6.67779 0.0218619 5.32221 0.933594 4.6709L1.10156 4.55176C1.36021 4.36693 1.49897 4.05619 1.46387 3.74023L1.4043 3.20801C1.28873 2.16791 2.16791 1.28873 3.20801 1.4043L3.74023 1.46387C4.05618 1.49897 4.36693 1.36021 4.55176 1.10156L4.6709 0.933594ZM8.50391 4.12402C8.16122 3.78131 7.60545 3.78141 7.2627 4.12402L5.37207 6.01465L4.7373 5.37988C4.39455 5.03715 3.83885 5.03715 3.49609 5.37988C3.15372 5.72265 3.15346 6.27848 3.49609 6.62109L4.6377 7.7627C5.04311 8.16815 5.70092 8.16798 6.10645 7.7627L8.50391 5.36523C8.84647 5.02252 8.84647 4.46674 8.50391 4.12402Z" fill="#5FE241" stroke="black" stroke-width="0.5"/>
</svg>
