<svg width="21" height="20" viewBox="0 0 21 20" fill="none" xmlns="http://www.w3.org/2000/svg">
<path d="M0.969771 9.96841C1.01534 12.5901 2.08878 15.089 3.9589 16.9269C5.82903 18.7648 8.34619 19.7946 10.9683 19.7946C13.5903 19.7946 16.1075 18.7648 17.9776 16.9269C19.8477 15.089 20.9212 12.5901 20.9668 9.96841C20.9212 7.34674 19.8477 4.84785 17.9776 3.00995C16.1075 1.17205 13.5903 0.142192 10.9683 0.142193C8.34619 0.142192 5.82903 1.17205 3.9589 3.00995C2.08878 4.84785 1.01534 7.34674 0.969771 9.96841ZM10.6713 6.26317L13.6694 9.26131C13.8569 9.44884 13.9623 9.7032 13.9623 9.96841C13.9623 10.2336 13.8569 10.488 13.6694 10.6755L10.6713 13.6737C10.4837 13.8612 10.2294 13.9665 9.96417 13.9665C9.69895 13.9665 9.4446 13.8612 9.25706 13.6737C9.06953 13.4861 8.96417 13.2318 8.96417 12.9665C8.96417 12.7013 9.06953 12.447 9.25706 12.2594L11.5481 9.96841L9.25706 7.67739C9.06953 7.48985 8.96417 7.2355 8.96417 6.97028C8.96417 6.70506 9.06953 6.45071 9.25706 6.26317C9.4446 6.07564 9.69895 5.97028 9.96417 5.97028C10.2294 5.97028 10.4837 6.07564 10.6713 6.26317Z" fill="#4B352A"/>
</svg>
