<svg width="33" height="40" viewBox="0 0 33 40" fill="none" xmlns="http://www.w3.org/2000/svg">
<path d="M19.7733 31.2927H3.28041C2.26888 31.2927 1.44824 31.9455 1.44824 32.7514V32.794C1.44824 33.6011 2.26857 34.254 3.28041 34.254H19.7733C20.785 34.254 21.6058 33.6011 21.6058 32.794V32.7514C21.6057 31.9455 20.7856 31.2927 19.7733 31.2927Z" fill="#644839"/>
<path d="M0.893388 29.3276C0.947414 29.3453 0.995043 29.3689 1.04583 29.4026C1.13446 29.4611 1.23342 29.5545 1.34779 29.6851C1.43318 29.7814 1.52651 29.8972 1.63526 30.0212C1.79865 30.2068 1.99887 30.4177 2.28048 30.5891C2.42075 30.6742 2.58152 30.7469 2.757 30.7965C2.93272 30.8461 3.12385 30.8721 3.32331 30.8721C3.5546 30.8727 3.77409 30.8373 3.97293 30.7711C4.14695 30.7131 4.30294 30.6334 4.43889 30.5429C4.67696 30.384 4.85337 30.1997 5.00019 30.0342C5.10978 29.9089 5.20373 29.7931 5.29058 29.6951C5.41991 29.5468 5.52865 29.4445 5.62676 29.386C5.67701 29.3565 5.72371 29.3346 5.77982 29.3187C5.83562 29.3039 5.90066 29.2926 5.98868 29.2926C6.09056 29.2926 6.16178 29.3069 6.22382 29.3275C6.27761 29.3453 6.32547 29.3688 6.37657 29.4025C6.4652 29.461 6.56416 29.5544 6.67783 29.685C6.76353 29.7813 6.85686 29.8971 6.96592 30.0212C7.1293 30.2067 7.3293 30.4176 7.61114 30.589C7.75149 30.6747 7.91164 30.7468 8.08797 30.7964C8.264 30.846 8.45459 30.872 8.65397 30.872C8.88533 30.8726 9.10536 30.8372 9.30336 30.771C9.47769 30.713 9.63368 30.6333 9.76955 30.5428C10.0079 30.3839 10.1837 30.1996 10.3303 30.0341C10.4411 29.9089 10.5347 29.793 10.6212 29.695C10.7504 29.5467 10.8597 29.4444 10.958 29.3859C11.0074 29.3564 11.0546 29.3345 11.1108 29.3186C11.1664 29.3038 11.2319 29.2925 11.3193 29.2925C11.4213 29.2925 11.4927 29.3068 11.5542 29.3274C11.6083 29.3452 11.6562 29.3688 11.7072 29.4024C11.7959 29.4609 11.8948 29.5543 12.0086 29.6849C12.0948 29.7812 12.1879 29.897 12.2967 30.0211C12.46 30.2067 12.66 30.4175 12.9421 30.5889C13.0825 30.6746 13.2422 30.7467 13.4186 30.7963C13.595 30.846 13.7852 30.8719 13.9847 30.8719C14.2163 30.8726 14.4358 30.8371 14.6346 30.7709C14.8083 30.7129 14.9646 30.6333 15.1005 30.5428C15.3387 30.3839 15.5153 30.1995 15.6616 30.034C15.7715 29.9088 15.866 29.793 15.9517 29.6949C16.081 29.5466 16.1904 29.4444 16.2894 29.3859C16.3381 29.3564 16.386 29.3345 16.4414 29.3185C16.497 29.3037 16.5626 29.2925 16.6504 29.2925C16.7523 29.2925 16.8235 29.3067 16.8855 29.3274C16.9399 29.3451 16.9875 29.3687 17.0383 29.4024C17.1271 29.4609 17.2259 29.5543 17.3405 29.6848C17.4262 29.7812 17.5192 29.8975 17.6285 30.021C17.791 30.2066 17.9919 30.4175 18.2735 30.5889C18.4137 30.6746 18.5742 30.7466 18.7505 30.7963C18.9263 30.8459 19.1171 30.8725 19.3163 30.8725C19.5479 30.8725 19.768 30.837 19.9659 30.7708C20.1396 30.7129 20.2962 30.6332 20.432 30.5427C20.6705 30.3838 20.8468 30.1994 20.9934 30.034C21.1027 29.9087 21.1972 29.7929 21.2835 29.6948C21.4128 29.5466 21.5222 29.4443 21.6206 29.3858C21.6699 29.3563 21.7172 29.3344 21.7733 29.319C21.8294 29.3036 21.8944 29.2924 21.9824 29.2924C22.3453 29.2924 22.6401 28.9976 22.6401 28.6342C22.6401 28.2709 22.3453 27.976 21.9824 27.976C21.7505 27.976 21.5311 28.0115 21.3322 28.0776C21.1582 28.1349 21.0016 28.2153 20.8663 28.3051C20.6282 28.464 20.4518 28.6478 20.305 28.8144C20.1954 28.9391 20.1009 29.0555 20.0146 29.153C19.8858 29.3012 19.7759 29.4034 19.6778 29.4626C19.6276 29.4921 19.5809 29.5134 19.5254 29.5293C19.4693 29.5452 19.4036 29.5553 19.3162 29.5553C19.2146 29.5553 19.1428 29.5417 19.0808 29.5217C19.027 29.5039 18.9795 29.4791 18.928 29.4455C18.8394 29.3876 18.7401 29.2931 18.6264 29.1631C18.5407 29.0667 18.4471 28.9516 18.339 28.8263C18.1754 28.6419 17.9756 28.4304 17.6934 28.2596C17.5526 28.1739 17.3927 28.1019 17.2163 28.0511C17.04 28.002 16.8497 27.976 16.6503 27.976C16.4186 27.976 16.1992 28.0109 16.0003 28.0776C15.8266 28.1349 15.67 28.2153 15.5344 28.3051C15.2963 28.464 15.1199 28.6478 14.9734 28.8144C14.8629 28.9391 14.769 29.0555 14.6827 29.153C14.5533 29.3012 14.4446 29.4034 14.3456 29.4626C14.296 29.4921 14.249 29.5134 14.1935 29.5293C14.1379 29.5452 14.0723 29.5553 13.9846 29.5553C13.8827 29.5553 13.8109 29.5417 13.7495 29.5217C13.6955 29.5039 13.6476 29.4791 13.5964 29.4455C13.5081 29.3876 13.4092 29.2931 13.2951 29.1631C13.2094 29.0667 13.1164 28.9516 13.0076 28.8275C12.8439 28.6419 12.6443 28.4304 12.3622 28.2596C12.2212 28.1739 12.0617 28.1019 11.885 28.0511C11.7093 28.002 11.5181 27.9755 11.3193 27.976C11.088 27.9754 10.8679 28.0109 10.6693 28.0776C10.4956 28.1349 10.339 28.2147 10.2031 28.3051C9.965 28.464 9.78866 28.6478 9.64208 28.8144C9.53217 28.9391 9.43854 29.0555 9.35199 29.153C9.2229 29.3012 9.11323 29.4034 9.01488 29.4626C8.96556 29.4921 8.91832 29.5134 8.86275 29.5293C8.80603 29.5446 8.74106 29.5553 8.65389 29.5553C8.55201 29.5553 8.48018 29.5417 8.41814 29.5217C8.36434 29.5039 8.31648 29.4791 8.266 29.4455C8.17683 29.3876 8.07841 29.2931 7.96381 29.1631C7.87811 29.0661 7.7854 28.951 7.67604 28.8275C7.51326 28.6419 7.31296 28.4304 7.03112 28.2596C6.89085 28.1739 6.72978 28.1019 6.55429 28.0511C6.3785 28.002 6.18798 27.9755 5.9886 27.976C5.7567 27.9754 5.53751 28.0109 5.33806 28.0776C5.16434 28.1349 5.00897 28.2147 4.87302 28.3051C4.63465 28.464 4.45823 28.6478 4.31172 28.8144C4.20152 28.9385 4.10788 29.0555 4.02164 29.153C3.89224 29.3012 3.78233 29.4034 3.68484 29.4626C3.63459 29.4921 3.58735 29.5134 3.53178 29.5293C3.47622 29.5446 3.41063 29.5547 3.32323 29.5553C3.22127 29.5547 3.14983 29.5417 3.08779 29.5217C3.03407 29.5039 2.98652 29.4791 2.93503 29.4455C2.84702 29.3876 2.74745 29.2937 2.634 29.1631C2.54807 29.0661 2.45497 28.951 2.3463 28.8269C2.18291 28.6419 1.98261 28.431 1.70108 28.259C1.56081 28.1739 1.40035 28.1019 1.22432 28.0511C1.04814 28.002 0.857628 27.9755 0.657941 27.976C0.294559 27.976 0 28.2709 0 28.6342C0 28.9976 0.294559 29.2924 0.657941 29.2924C0.760135 29.2926 0.831579 29.3069 0.893388 29.3276Z" fill="#644839"/>
<path d="M26.6533 9.63911L27.8213 4.26422L32.0512 1.80799L31.0018 0L25.9743 2.91881L24.5133 9.63911H11.3666L11.4466 10.6843L12.0602 18.6566C11.8292 18.6454 11.5964 18.6395 11.3621 18.6395C5.87164 18.6395 1.35167 21.7794 0.766405 25.2801C0.745442 25.4066 0.72918 25.4397 0.71708 25.4751C0.706753 25.5093 0.700819 25.5437 0.700819 25.6724C0.700819 26.4222 1.11861 26.8175 1.84322 26.8175H20.8808C21.6044 26.8175 22.0229 26.4222 22.0229 25.6724C22.0229 25.4166 22.0002 25.5319 21.9568 25.2801C21.6646 23.5265 20.3833 21.8632 18.4885 20.639C17.8732 20.2414 17.1937 19.8927 16.4622 19.5997C15.7006 19.296 14.8834 19.0549 14.0237 18.8907L13.4624 11.5795H30.329L28.4716 35.7689H21.8075C21.5747 35.4836 21.2326 35.314 20.7537 35.314H15.2854H13.3383H1.97447C0.884706 35.314 0.503906 36.1991 0.503906 37.2886V37.4865C0.503906 38.5761 1.38782 39.46 2.47796 39.46H20.2461C21.26 39.46 22.0972 38.6955 22.208 37.7099H30.2697L32.4254 9.63911H26.6533ZM5.52814 22.6917C5.23859 22.6917 5.00283 22.4559 5.00283 22.1653C5.00283 21.8739 5.23851 21.6376 5.52814 21.6376C5.81969 21.6376 6.05545 21.8739 6.05545 22.1653C6.05545 22.4559 5.81977 22.6917 5.52814 22.6917ZM7.63514 21.1117C7.34382 21.1117 7.10806 20.876 7.10806 20.5852C7.10806 20.2939 7.34382 20.0575 7.63514 20.0575C7.92608 20.0575 8.16214 20.2938 8.16214 20.5852C8.16214 20.876 7.92608 21.1117 7.63514 21.1117ZM9.47733 22.6917C9.18631 22.6917 8.95033 22.4559 8.95033 22.1653C8.95033 21.8739 9.18631 21.6376 9.47733 21.6376C9.76888 21.6376 10.0046 21.8739 10.0046 22.1653C10.0047 22.4559 9.76896 22.6917 9.47733 22.6917ZM11.0573 20.4535C10.7663 20.4535 10.5299 20.2177 10.5299 19.927C10.5299 19.637 10.7663 19.4011 11.0573 19.4011C11.3483 19.4011 11.5846 19.637 11.5846 19.927C11.5846 20.2177 11.3483 20.4535 11.0573 20.4535ZM17.3746 21.7694C17.6662 21.7694 17.9019 22.0051 17.9019 22.2964C17.9019 22.5871 17.6661 22.8234 17.3746 22.8234C17.0851 22.8234 16.8493 22.5871 16.8493 22.2964C16.8493 22.0051 17.0851 21.7694 17.3746 21.7694ZM14.7421 20.0517C15.0336 20.0517 15.2694 20.2874 15.2694 20.5775C15.2694 20.87 15.0337 21.1058 14.7421 21.1058C14.4514 21.1058 14.2168 20.87 14.2168 20.5775C14.2168 20.2875 14.4514 20.0517 14.7421 20.0517ZM13.5583 22.2964C13.5583 22.5871 13.3223 22.8234 13.031 22.8234C12.7415 22.8234 12.5058 22.5871 12.5058 22.2964C12.5058 22.005 12.7414 21.7694 13.031 21.7694C13.3223 21.7694 13.5583 22.0051 13.5583 22.2964Z" fill="#644839"/>
</svg>
