<svg width="10" height="8" viewBox="0 0 10 8" fill="none" xmlns="http://www.w3.org/2000/svg">
<path d="M8.57143 3.42857C8.57143 2.24271 7.85486 0 5.14286 0H4C1.288 0 0.571429 2.24271 0.571429 3.42857C0.255571 3.42857 0 3.68414 0 4V6.28571C0 6.60157 0.255571 6.85714 0.571429 6.85714H1.14286V7.42857C1.14286 7.74443 1.39843 8 1.71429 8H2.28571C2.60157 8 2.85714 7.74443 2.85714 7.42857V6.85714H6.28571V7.42857C6.28571 7.74443 6.54129 8 6.85714 8H7.42857C7.74443 8 8 7.74443 8 7.42857V6.85714H8.57143C8.88729 6.85714 9.14286 6.60157 9.14286 6.28571V4C9.14286 3.68414 8.88729 3.42857 8.57143 3.42857ZM2.28571 5.71429C1.96986 5.71429 1.71429 5.45871 1.71429 5.14286C1.71429 4.827 1.96986 4.57143 2.28571 4.57143C2.60157 4.57143 2.85714 4.827 2.85714 5.14286C2.85714 5.45871 2.60157 5.71429 2.28571 5.71429ZM1.71429 3.42857C1.71429 3.33543 1.74057 1.14286 4 1.14286H5.14286C7.34429 1.14286 7.42629 3.197 7.42857 3.42857H1.71429ZM6.85714 5.71429C6.54129 5.71429 6.28571 5.45871 6.28571 5.14286C6.28571 4.827 6.54129 4.57143 6.85714 4.57143C7.173 4.57143 7.42857 4.827 7.42857 5.14286C7.42857 5.45871 7.173 5.71429 6.85714 5.71429Z" fill="#644839"/>
</svg>
