<svg width="20" height="20" viewBox="0 0 20 20" fill="none" xmlns="http://www.w3.org/2000/svg">
<path fill-rule="evenodd" clip-rule="evenodd" d="M10 20C5.28595 20 2.92893 20 1.46447 18.5355C-1.19209e-07 17.0711 0 14.714 0 10C0 5.28595 -1.19209e-07 2.92893 1.46447 1.46447C2.92893 -1.19209e-07 5.28595 0 10 0C14.714 0 17.0711 -1.19209e-07 18.5355 1.46447C20 2.92893 20 5.28595 20 10C20 14.714 20 17.0711 18.5355 18.5355C17.0711 20 14.714 20 10 20ZM6.75 4.49998C6.75 4.08576 6.41421 3.74998 6 3.74998C5.58579 3.74998 5.25 4.08576 5.25 4.49998V5.74999H4C3.58579 5.74999 3.25 6.08578 3.25 6.49999C3.25 6.91421 3.58579 7.24999 4 7.24999H5.25V8.5C5.25 8.9142 5.58579 9.25 6 9.25C6.41421 9.25 6.75 8.9142 6.75 8.5V7.24999H8C8.4142 7.24999 8.75 6.91421 8.75 6.49999C8.75 6.08578 8.4142 5.74999 8 5.74999H6.75V4.49998ZM12 5.74998C11.5858 5.74998 11.25 6.08576 11.25 6.49998C11.25 6.91419 11.5858 7.24998 12 7.24998H16C16.4142 7.24998 16.75 6.91419 16.75 6.49998C16.75 6.08576 16.4142 5.74998 16 5.74998H12ZM12 11.75C11.5858 11.75 11.25 12.0858 11.25 12.5C11.25 12.9142 11.5858 13.25 12 13.25H16C16.4142 13.25 16.75 12.9142 16.75 12.5C16.75 12.0858 16.4142 11.75 16 11.75H12ZM5.03033 11.9697C4.73744 11.6768 4.26256 11.6768 3.96967 11.9697C3.67678 12.2626 3.67678 12.7374 3.96967 13.0303L4.93935 14L3.96968 14.9697C3.67679 15.2626 3.67679 15.7374 3.96968 16.0303C4.26258 16.3232 4.73745 16.3232 5.03034 16.0303L6.00001 15.0607L6.96966 16.0303C7.26255 16.3232 7.73742 16.3232 8.0303 16.0303C8.3232 15.7374 8.3232 15.2626 8.0303 14.9697L7.06067 14L8.0303 13.0303C8.3232 12.7374 8.3232 12.2626 8.0303 11.9697C7.73744 11.6768 7.26256 11.6768 6.96967 11.9697L6.00001 12.9393L5.03033 11.9697ZM12 14.75C11.5858 14.75 11.25 15.0858 11.25 15.5C11.25 15.9142 11.5858 16.25 12 16.25H16C16.4142 16.25 16.75 15.9142 16.75 15.5C16.75 15.0858 16.4142 14.75 16 14.75H12Z" fill="#CCAFA0"/>
</svg>
