<svg width="37" height="46" viewBox="0 0 37 46" fill="none" xmlns="http://www.w3.org/2000/svg">
<path d="M5.77148 6.39374C12.8012 -0.636016 24.1984 -0.636006 31.2285 6.39374C38.2569 13.4221 38.257 24.8207 31.2285 31.8498L18.5 44.5764L5.77148 31.8498C-1.25725 24.8207 -1.25717 13.4222 5.77148 6.39374ZM18.5 19.4846C14.2035 19.4846 10.7207 22.9678 10.7207 27.2639V27.7639H26.2793V27.2639C26.2793 22.9678 22.7958 19.4846 18.5 19.4846ZM18.5 7.43085C15.4216 7.43085 12.9258 9.92596 12.9258 13.0041C12.926 16.0828 15.4216 18.5773 18.5 18.5773C21.5776 18.5773 24.0731 16.0827 24.0732 13.0041C24.0732 9.92604 21.5778 7.4309 18.5 7.43085Z" fill="#EF3E3E" stroke="black"/>
</svg>
