<svg width="8" height="10" viewBox="0 0 8 10" fill="none" xmlns="http://www.w3.org/2000/svg">
<path d="M4.55246 7.20441H0.755316C0.522431 7.20441 0.333496 7.35471 0.333496 7.54026V7.55005C0.333496 7.73586 0.52236 7.88619 0.755316 7.88619H4.55246C4.7854 7.88619 4.97437 7.73588 4.97437 7.55005V7.54026C4.97435 7.35471 4.78554 7.20441 4.55246 7.20441Z" fill="black"/>
<path d="M0.205684 6.75197C0.218123 6.75605 0.229088 6.76148 0.240781 6.76923C0.261187 6.7827 0.283969 6.80421 0.310301 6.83426C0.329961 6.85644 0.351449 6.88309 0.376485 6.91166C0.414101 6.95439 0.460199 7.00293 0.525035 7.0424C0.557328 7.06199 0.594341 7.07872 0.634744 7.09014C0.675199 7.10157 0.719203 7.10755 0.765124 7.10755C0.818373 7.10769 0.868907 7.09953 0.914685 7.08429C0.95475 7.07095 0.990664 7.0526 1.02196 7.03177C1.07677 6.99518 1.11739 6.95274 1.15119 6.91464C1.17642 6.88581 1.19805 6.85914 1.21805 6.83657C1.24782 6.80243 1.27286 6.77888 1.29545 6.76542C1.30702 6.75862 1.31777 6.75358 1.33069 6.74991C1.34353 6.7465 1.35851 6.74391 1.37877 6.74391C1.40223 6.74391 1.41862 6.74719 1.43291 6.75195C1.44529 6.75603 1.45631 6.76146 1.46807 6.76922C1.48848 6.78268 1.51126 6.80419 1.53743 6.83425C1.55717 6.85642 1.57865 6.88308 1.60376 6.91164C1.64138 6.95437 1.68742 7.00292 1.75231 7.04238C1.78462 7.06211 1.82149 7.0787 1.86209 7.09013C1.90262 7.10155 1.9465 7.10753 1.9924 7.10753C2.04567 7.10767 2.09632 7.09951 2.14191 7.08427C2.18204 7.07093 2.21796 7.05258 2.24924 7.03175C2.30412 6.99516 2.34459 6.95272 2.37834 6.91462C2.40386 6.88579 2.4254 6.85912 2.44532 6.83655C2.47506 6.80241 2.50022 6.77887 2.52286 6.7654C2.53422 6.7586 2.5451 6.75356 2.55803 6.74989C2.57082 6.74649 2.58592 6.74389 2.60605 6.74389C2.62952 6.74389 2.64597 6.74718 2.66013 6.75193C2.67258 6.75601 2.6836 6.76144 2.69535 6.7692C2.71575 6.78266 2.73854 6.80417 2.76473 6.83423C2.78458 6.85641 2.80602 6.88306 2.83105 6.91163C2.86867 6.95435 2.9147 7.0029 2.97966 7.04236C3.01197 7.06209 3.04875 7.07868 3.08936 7.09011C3.12998 7.10154 3.17377 7.10752 3.21969 7.10752C3.27301 7.10766 3.32355 7.09949 3.36932 7.08425C3.40932 7.07091 3.4453 7.05256 3.47658 7.03173C3.53141 6.99514 3.57208 6.9527 3.60576 6.91461C3.63106 6.88577 3.65281 6.8591 3.67255 6.83653C3.70232 6.8024 3.7275 6.77885 3.7503 6.76538C3.76151 6.75859 3.77253 6.75355 3.78531 6.74987C3.7981 6.74647 3.8132 6.74388 3.83341 6.74388C3.85687 6.74388 3.87326 6.74716 3.88755 6.75191C3.90007 6.756 3.91102 6.76143 3.92271 6.76918C3.94317 6.78265 3.9659 6.80415 3.99229 6.83421C4.01202 6.85639 4.03343 6.88316 4.05861 6.91161C4.09601 6.95433 4.14226 7.00288 4.20709 7.04234C4.23938 7.06207 4.27633 7.07866 4.31692 7.09009C4.3574 7.10152 4.40133 7.10764 4.44718 7.10764C4.5005 7.10764 4.55118 7.09948 4.59674 7.08424C4.63674 7.07089 4.67279 7.05255 4.70405 7.03171C4.75895 6.99513 4.79955 6.95268 4.8333 6.91459C4.85846 6.88576 4.88023 6.85909 4.90009 6.83652C4.92986 6.80238 4.95504 6.77883 4.9777 6.76536C4.98905 6.75857 4.99995 6.75353 5.01285 6.75C5.02578 6.74645 5.04074 6.74386 5.061 6.74386C5.14454 6.74386 5.21241 6.67599 5.21241 6.59233C5.21241 6.50868 5.14454 6.4408 5.061 6.4408C5.00761 6.4408 4.9571 6.44896 4.9113 6.46418C4.87124 6.47739 4.8352 6.49589 4.80404 6.51656C4.74923 6.55315 4.70861 6.59545 4.67481 6.63381C4.64958 6.66252 4.62781 6.68932 4.60796 6.71176C4.57829 6.7459 4.553 6.76943 4.53042 6.78304C4.51885 6.78983 4.50809 6.79475 4.49532 6.7984C4.4824 6.80208 4.46728 6.8044 4.44716 6.8044C4.42376 6.8044 4.40724 6.80126 4.39296 6.79665C4.38059 6.79257 4.36964 6.78685 4.35779 6.77912C4.33738 6.76579 4.31453 6.74402 4.28836 6.71409C4.26863 6.69191 4.24707 6.6654 4.22217 6.63655C4.1845 6.5941 4.13851 6.5454 4.07355 6.50609C4.04112 6.48636 4.00432 6.46977 3.9637 6.45808C3.9231 6.44678 3.87929 6.4408 3.83339 6.4408C3.78005 6.4408 3.72954 6.44882 3.68374 6.46418C3.64375 6.47739 3.60769 6.49589 3.57648 6.51656C3.52167 6.55315 3.48106 6.59545 3.44733 6.63381C3.42188 6.66252 3.40025 6.68932 3.3804 6.71176C3.3506 6.7459 3.32557 6.76943 3.30279 6.78304C3.29136 6.78983 3.28053 6.79475 3.26776 6.7984C3.25497 6.80208 3.23987 6.8044 3.21967 6.8044C3.1962 6.8044 3.17968 6.80126 3.16554 6.79665C3.1531 6.79257 3.14208 6.78685 3.1303 6.77912C3.10997 6.76579 3.08718 6.74402 3.06092 6.71409C3.04119 6.69191 3.01977 6.6654 2.99474 6.63683C2.95705 6.5941 2.91109 6.54541 2.84613 6.50609C2.81368 6.48636 2.77697 6.46977 2.73628 6.45808C2.69583 6.44678 2.65181 6.44067 2.60603 6.4408C2.55278 6.44066 2.5021 6.44882 2.4564 6.46418C2.4164 6.47739 2.38035 6.49575 2.34906 6.51656C2.29424 6.55315 2.25364 6.59545 2.21989 6.63381C2.19459 6.66252 2.17303 6.68932 2.1531 6.71176C2.12338 6.7459 2.09813 6.76943 2.07549 6.78304C2.06414 6.78983 2.05326 6.79475 2.04047 6.7984C2.02741 6.80193 2.01245 6.8044 1.99238 6.8044C1.96892 6.8044 1.95239 6.80126 1.9381 6.79665C1.92572 6.79257 1.9147 6.78685 1.90308 6.77912C1.88255 6.76579 1.85989 6.74402 1.8335 6.71409C1.81377 6.69176 1.79243 6.66525 1.76725 6.63683C1.72978 6.5941 1.68366 6.54541 1.61877 6.50609C1.58648 6.48636 1.54939 6.46977 1.50899 6.45808C1.46852 6.44678 1.42466 6.44067 1.37875 6.4408C1.32536 6.44066 1.2749 6.44882 1.22898 6.46418C1.18898 6.47739 1.15321 6.49575 1.12191 6.51656C1.06703 6.55315 1.02642 6.59545 0.992686 6.63381C0.967313 6.66238 0.945754 6.68932 0.925899 6.71176C0.896108 6.7459 0.870805 6.76943 0.848359 6.78304C0.836791 6.78983 0.825914 6.79475 0.81312 6.7984C0.800327 6.80193 0.785228 6.80426 0.765106 6.8044C0.741631 6.80426 0.725183 6.80126 0.710899 6.79665C0.698532 6.79257 0.687584 6.78685 0.675731 6.77912C0.655468 6.76579 0.632543 6.74416 0.606425 6.71409C0.586641 6.69176 0.565206 6.66525 0.540188 6.63669C0.502571 6.5941 0.456455 6.54556 0.391638 6.50595C0.359344 6.48636 0.322402 6.46977 0.281876 6.45808C0.241314 6.44678 0.197451 6.44067 0.151478 6.4408C0.0678162 6.4408 0 6.50868 0 6.59233C0 6.67599 0.0678162 6.74386 0.151478 6.74386C0.175006 6.74391 0.191454 6.74719 0.205684 6.75197Z" fill="black"/>
<path d="M6.13632 2.21918L6.40524 0.981738L7.37908 0.416248L7.13749 0L5.98 0.671988L5.64365 2.21918H2.61688L2.6353 2.45982L2.77656 4.29526C2.72338 4.29267 2.66978 4.29132 2.61583 4.29132C1.35178 4.29132 0.311147 5.0142 0.176402 5.82017C0.171575 5.84928 0.167832 5.8569 0.165046 5.86506C0.162668 5.87294 0.161302 5.88085 0.161302 5.91048C0.161302 6.08311 0.25749 6.17412 0.424316 6.17412H4.80733C4.97391 6.17412 5.07028 6.08311 5.07028 5.91048C5.07028 5.85159 5.06504 5.87812 5.05506 5.82017C4.98779 5.41643 4.6928 5.0335 4.25655 4.75164C4.11489 4.6601 3.95844 4.57983 3.79004 4.51237C3.6147 4.44246 3.42656 4.38694 3.22863 4.34915L3.0994 2.66591H6.98258L6.55496 8.23497H5.02069C4.96708 8.16928 4.88833 8.13023 4.77808 8.13023H3.51911H3.07082H0.454533C0.203638 8.13023 0.115967 8.334 0.115967 8.58484V8.63041C0.115967 8.88125 0.319469 9.08475 0.570453 9.08475H4.6612C4.89463 9.08475 5.08738 8.90873 5.11288 8.68183H6.96894L7.46525 2.21918H6.13632ZM1.27269 5.22423C1.20603 5.22423 1.15175 5.16995 1.15175 5.10304C1.15175 5.03597 1.20601 4.98157 1.27269 4.98157C1.33982 4.98157 1.3941 5.03597 1.3941 5.10304C1.3941 5.16995 1.33984 5.22423 1.27269 5.22423ZM1.75779 4.86048C1.69072 4.86048 1.63644 4.80621 1.63644 4.73926C1.63644 4.6722 1.69072 4.61778 1.75779 4.61778C1.82477 4.61778 1.87912 4.67219 1.87912 4.73926C1.87912 4.80621 1.82477 4.86048 1.75779 4.86048ZM2.18191 5.22423C2.11491 5.22423 2.06058 5.16995 2.06058 5.10304C2.06058 5.03597 2.11491 4.98157 2.18191 4.98157C2.24904 4.98157 2.30332 5.03597 2.30332 5.10304C2.30333 5.16995 2.24906 5.22423 2.18191 5.22423ZM2.54566 4.70895C2.47868 4.70895 2.42426 4.65466 2.42426 4.58773C2.42426 4.52096 2.47868 4.46666 2.54566 4.46666C2.61266 4.46666 2.66706 4.52096 2.66706 4.58773C2.66706 4.65466 2.61266 4.70895 2.54566 4.70895ZM4.00009 5.01189C4.06723 5.01189 4.12149 5.06617 4.12149 5.13322C4.12149 5.20015 4.06721 5.25457 4.00009 5.25457C3.93344 5.25457 3.87916 5.20015 3.87916 5.13322C3.87916 5.06617 3.93344 5.01189 4.00009 5.01189ZM3.39402 4.61644C3.46114 4.61644 3.51542 4.67071 3.51542 4.7375C3.51542 4.80484 3.46116 4.85912 3.39402 4.85912C3.32709 4.85912 3.27308 4.80484 3.27308 4.7375C3.27308 4.67073 3.32709 4.61644 3.39402 4.61644ZM3.12148 5.13322C3.12148 5.20015 3.06714 5.25457 3.00007 5.25457C2.93343 5.25457 2.87915 5.20015 2.87915 5.13322C2.87915 5.06615 2.93341 5.01189 3.00007 5.01189C3.06714 5.01189 3.12148 5.06617 3.12148 5.13322Z" fill="black"/>
</svg>
