<svg width="14" height="9" viewBox="0 0 14 9" fill="none" xmlns="http://www.w3.org/2000/svg">
<path d="M4.00592 6.04003L2.30233 6.66977C2.24145 6.69224 2.17899 6.70295 2.11768 6.70295C1.901 6.70295 1.69735 6.56984 1.61785 6.35472C1.51582 6.07868 1.6569 5.77224 1.93289 5.67019L3.85486 4.95974C3.47216 4.41141 2.83698 4.05237 2.1176 4.05237C0.948065 4.05234 0 5.00041 0 6.16994C0 7.33947 0.948065 8.28753 2.1176 8.28753C3.21495 8.28753 4.11729 7.4528 4.22445 6.38371C4.13306 6.26174 4.0595 6.13912 4.00592 6.04003Z" fill="#644839"/>
<path d="M11.6618 4.05234C11.6485 4.05234 11.6354 4.0531 11.6221 4.05334L12.1748 6.02617C12.2542 6.30954 12.0888 6.60359 11.8055 6.68296C11.7574 6.69641 11.709 6.70284 11.6615 6.70284C11.4285 6.70284 11.2146 6.54893 11.1486 6.3136L10.5958 4.34037C10.8983 4.16379 11.2483 4.06017 11.6221 4.05329L11.2156 2.60208C11.231 2.6006 11.2465 2.59821 11.2619 2.59387C11.4036 2.55415 11.4862 2.40712 11.4466 2.26543L11.2375 1.51926C11.1979 1.37759 11.0509 1.29492 10.9091 1.33459C10.8937 1.33892 10.8792 1.34471 10.8652 1.35143L10.6635 0.631591C10.6084 0.434884 10.4456 0.28697 10.2445 0.25088L8.8938 0.0084475C8.60449 -0.0434408 8.32721 0.149068 8.27526 0.43876C8.22327 0.728397 8.41594 1.00536 8.70557 1.05733L9.72744 1.24074L9.8757 1.77001L8.8867 2.01985C8.75378 1.8785 8.54854 1.81466 8.3497 1.87252L7.78135 2.0378C7.60365 2.08947 7.4736 2.22562 7.42188 2.38982L6.24702 2.68656L2.23343 1.7913C1.94626 1.72711 1.66142 1.90813 1.59736 2.19532C1.53331 2.48256 1.71419 2.76733 2.00144 2.83138L3.43943 3.15218L4.40932 3.36854L5.37934 4.33859C5.4772 4.4365 5.48382 4.59303 5.39455 4.69882L4.47563 5.78756C4.63068 6.06899 4.87566 6.37655 5.05194 6.37655H8.01951C8.35562 6.37655 8.67156 6.24565 8.9092 6.008C9.14684 5.77036 9.27775 5.4544 9.27775 5.11831V3.02018L9.81057 2.88558L10.1633 2.7965L10.5958 4.34042C10.2673 4.53228 9.99514 4.81005 9.80998 5.14286C9.65854 5.41503 9.56553 5.72402 9.5476 6.05314C9.5455 6.09181 9.54416 6.13067 9.54416 6.16989C9.54416 7.33942 10.4922 8.28748 11.6618 8.28748C12.8313 8.28748 13.7794 7.33942 13.7794 6.16989C13.7794 5.00035 12.8313 4.05234 11.6618 4.05234Z" fill="#644839"/>
</svg>
