<svg width="39" height="48" viewBox="0 0 39 48" fill="none" xmlns="http://www.w3.org/2000/svg">
<path d="M23.7831 37.6376H3.94588C2.72923 37.6376 1.74219 38.4229 1.74219 39.3922V39.4434C1.74219 40.4141 2.72886 41.1994 3.94588 41.1994H23.7831C25 41.1994 25.9873 40.4142 25.9873 39.4434V39.3922C25.9872 38.4229 25.0008 37.6376 23.7831 37.6376Z" fill="#3D1A07"/>
<path d="M1.07455 35.2741C1.13953 35.2955 1.19682 35.3238 1.2579 35.3643C1.3645 35.4347 1.48353 35.547 1.62109 35.7041C1.7238 35.8199 1.83606 35.9592 1.96685 36.1084C2.16337 36.3316 2.4042 36.5853 2.74291 36.7914C2.91162 36.8937 3.10499 36.9812 3.31606 37.0409C3.52741 37.1006 3.7573 37.1318 3.9972 37.1318C4.27539 37.1325 4.53939 37.0899 4.77855 37.0103C4.98786 36.9406 5.17548 36.8447 5.339 36.7359C5.62534 36.5447 5.83752 36.323 6.01411 36.124C6.14593 35.9734 6.25892 35.834 6.36339 35.7161C6.51894 35.5378 6.64974 35.4148 6.76774 35.3444C6.82818 35.3089 6.88435 35.2826 6.95184 35.2634C7.01895 35.2456 7.09719 35.2321 7.20305 35.2321C7.32559 35.2321 7.41124 35.2492 7.48587 35.274C7.55057 35.2954 7.60813 35.3237 7.66959 35.3642C7.7762 35.4346 7.89522 35.5469 8.03195 35.704C8.13503 35.8198 8.24728 35.9591 8.37845 36.1083C8.57497 36.3315 8.81552 36.5852 9.15451 36.7913C9.32331 36.8944 9.51594 36.9811 9.72803 37.0408C9.93975 37.1005 10.169 37.1317 10.4088 37.1317C10.6871 37.1324 10.9517 37.0898 11.1899 37.0102C11.3995 36.9405 11.5872 36.8446 11.7506 36.7358C12.0373 36.5447 12.2487 36.3229 12.4251 36.1239C12.5584 35.9733 12.6709 35.8339 12.775 35.716C12.9304 35.5377 13.0618 35.4147 13.1801 35.3443C13.2394 35.3088 13.2962 35.2825 13.3638 35.2633C13.4306 35.2455 13.5095 35.232 13.6146 35.232C13.7373 35.232 13.8232 35.2491 13.8972 35.274C13.9623 35.2953 14.0198 35.3236 14.0812 35.3642C14.1878 35.4345 14.3068 35.5469 14.4436 35.7039C14.5474 35.8198 14.6593 35.959 14.7901 36.1082C14.9867 36.3314 15.2271 36.5851 15.5665 36.7912C15.7353 36.8943 15.9274 36.981 16.1396 37.0407C16.3518 37.1004 16.5806 37.1316 16.8205 37.1316C17.099 37.1324 17.363 37.0897 17.6022 37.0101C17.8111 36.9404 17.9991 36.8445 18.1626 36.7357C18.449 36.5446 18.6615 36.3228 18.8374 36.1238C18.9696 35.9732 19.0832 35.8338 19.1863 35.7159C19.3419 35.5376 19.4734 35.4146 19.5925 35.3442C19.6511 35.3087 19.7087 35.2824 19.7754 35.2632C19.8422 35.2454 19.9211 35.2319 20.0267 35.2319C20.1493 35.2319 20.2349 35.249 20.3095 35.2739C20.375 35.2952 20.4322 35.3235 20.4932 35.3641C20.6001 35.4344 20.7189 35.5468 20.8567 35.7038C20.9598 35.8197 21.0717 35.9595 21.2032 36.1081C21.3986 36.3314 21.6402 36.585 21.9789 36.7911C22.1476 36.8942 22.3406 36.9809 22.5527 37.0406C22.7641 37.1003 22.9937 37.1323 23.2332 37.1323C23.5118 37.1323 23.7765 37.0896 24.0145 37.01C24.2235 36.9403 24.4118 36.8444 24.5752 36.7356C24.862 36.5445 25.0741 36.3227 25.2504 36.1237C25.3818 35.9731 25.4956 35.8338 25.5993 35.7158C25.7548 35.5375 25.8864 35.4145 26.0048 35.3441C26.0641 35.3086 26.121 35.2823 26.1884 35.2639C26.256 35.2453 26.3341 35.2318 26.44 35.2318C26.8764 35.2318 27.231 34.8772 27.231 34.4401C27.231 34.0032 26.8764 33.6485 26.44 33.6485C26.161 33.6485 25.8971 33.6911 25.6579 33.7707C25.4486 33.8396 25.2603 33.9363 25.0975 34.0443C24.8112 34.2355 24.599 34.4565 24.4224 34.6569C24.2906 34.8069 24.1769 34.9468 24.0731 35.0641C23.9181 35.2424 23.786 35.3654 23.668 35.4365C23.6076 35.472 23.5514 35.4976 23.4847 35.5167C23.4172 35.5359 23.3382 35.5481 23.2331 35.5481C23.1108 35.5481 23.0245 35.5317 22.9499 35.5076C22.8853 35.4862 22.8281 35.4564 22.7662 35.416C22.6596 35.3464 22.5402 35.2326 22.4035 35.0762C22.3004 34.9604 22.1878 34.8219 22.0577 34.6711C21.8609 34.4494 21.6206 34.195 21.2813 33.9896C21.1118 33.8866 20.9196 33.7999 20.7074 33.7388C20.4953 33.6797 20.2664 33.6485 20.0266 33.6485C19.748 33.6485 19.4841 33.6904 19.2448 33.7707C19.0359 33.8396 18.8475 33.9363 18.6844 34.0443C18.3981 34.2355 18.1859 34.4565 18.0097 34.6569C17.8768 34.8069 17.7638 34.9468 17.66 35.0641C17.5044 35.2424 17.3736 35.3654 17.2546 35.4365C17.1949 35.472 17.1383 35.4976 17.0716 35.5167C17.0048 35.5359 16.9259 35.5481 16.8204 35.5481C16.6978 35.5481 16.6115 35.5317 16.5376 35.5076C16.4726 35.4862 16.415 35.4564 16.3535 35.416C16.2472 35.3464 16.1282 35.2326 15.991 35.0762C15.888 34.9604 15.7761 34.8219 15.6453 34.6726C15.4484 34.4494 15.2083 34.1951 14.8689 33.9896C14.6994 33.8866 14.5076 33.7999 14.295 33.7388C14.0837 33.6797 13.8537 33.6479 13.6146 33.6485C13.3364 33.6478 13.0716 33.6904 12.8328 33.7707C12.6239 33.8396 12.4355 33.9356 12.2721 34.0443C11.9857 34.2355 11.7736 34.4565 11.5973 34.6569C11.4651 34.8069 11.3525 34.9468 11.2484 35.0641C11.0931 35.2424 10.9612 35.3654 10.8429 35.4365C10.7836 35.472 10.7268 35.4976 10.6599 35.5167C10.5917 35.5352 10.5135 35.5481 10.4087 35.5481C10.2862 35.5481 10.1998 35.5317 10.1251 35.5076C10.0604 35.4862 10.0029 35.4564 9.94216 35.416C9.83491 35.3464 9.71653 35.2326 9.57869 35.0762C9.47561 34.9596 9.3641 34.8211 9.23256 34.6726C9.03679 34.4494 8.79587 34.1951 8.45687 33.9896C8.28816 33.8866 8.09443 33.7999 7.88335 33.7388C7.67191 33.6797 7.44276 33.6479 7.20295 33.6485C6.92403 33.6478 6.6604 33.6904 6.4205 33.7707C6.21156 33.8396 6.02468 33.9356 5.86116 34.0443C5.57445 34.2355 5.36226 34.4565 5.18605 34.6569C5.05349 34.8061 4.94086 34.9468 4.83713 35.0641C4.68149 35.2424 4.54931 35.3654 4.43204 35.4365C4.37161 35.472 4.31478 35.4976 4.24795 35.5167C4.18111 35.5352 4.10223 35.5473 3.99711 35.5481C3.87447 35.5473 3.78854 35.5317 3.71392 35.5076C3.64931 35.4862 3.59211 35.4564 3.53019 35.416C3.42433 35.3464 3.30457 35.2334 3.16812 35.0762C3.06476 34.9596 2.95278 34.8211 2.82208 34.6719C2.62556 34.4494 2.38464 34.1958 2.04602 33.9889C1.87731 33.8866 1.68431 33.7999 1.47259 33.7388C1.26068 33.6797 1.03154 33.6479 0.791357 33.6485C0.354289 33.6485 0 34.0032 0 34.4401C0 34.8772 0.354289 35.2318 0.791357 35.2318C0.914274 35.2321 1.0002 35.2492 1.07455 35.2741Z" fill="#3D1A07"/>
<path d="M32.0578 11.5936L33.4627 5.12885L38.5503 2.17459L37.2882 0L31.2411 3.51063L29.484 11.5936H13.6714L13.7676 12.8507L14.5056 22.4395C14.2277 22.426 13.9477 22.4189 13.6659 22.4189C7.06214 22.4189 1.62563 26.1954 0.921684 30.406C0.896471 30.5581 0.876912 30.5979 0.862358 30.6406C0.849937 30.6817 0.842799 30.7231 0.842799 30.8779C0.842799 31.7797 1.34531 32.2552 2.21685 32.2552H25.1149C25.9851 32.2552 26.4885 31.7797 26.4885 30.8779C26.4885 30.5702 26.4612 30.7088 26.409 30.406C26.0576 28.2968 24.5165 26.2963 22.2374 24.8238C21.4973 24.3456 20.68 23.9262 19.8002 23.5738C18.8842 23.2085 17.9013 22.9185 16.8673 22.721L16.1922 13.9274H36.4789L34.2449 43.0216H26.2295C25.9494 42.6784 25.538 42.4744 24.962 42.4744H18.3848H16.0428H2.37472C1.06397 42.4744 0.605957 43.5389 0.605957 44.8494V45.0874C0.605957 46.3979 1.6691 47.461 2.98031 47.461H24.3514C25.5709 47.461 26.5779 46.5415 26.7111 45.3561H36.4076L39.0005 11.5936H32.0578ZM6.64899 27.2927C6.30073 27.2927 6.01716 27.0091 6.01716 26.6596C6.01716 26.3092 6.30063 26.025 6.64899 26.025C6.99966 26.025 7.28323 26.3092 7.28323 26.6596C7.28323 27.0091 6.99976 27.2927 6.64899 27.2927ZM9.18324 25.3924C8.83285 25.3924 8.54928 25.1088 8.54928 24.7591C8.54928 24.4088 8.83285 24.1245 9.18324 24.1245C9.53317 24.1245 9.81711 24.4087 9.81711 24.7591C9.81711 25.1088 9.53317 25.3924 9.18324 25.3924ZM11.399 27.2927C11.049 27.2927 10.7651 27.0091 10.7651 26.6596C10.7651 26.3092 11.049 26.025 11.399 26.025C11.7497 26.025 12.0332 26.3092 12.0332 26.6596C12.0333 27.0091 11.7498 27.2927 11.399 27.2927ZM13.2993 24.6008C12.9494 24.6008 12.665 24.3171 12.665 23.9675C12.665 23.6186 12.9494 23.335 13.2993 23.335C13.6493 23.335 13.9335 23.6186 13.9335 23.9675C13.9335 24.3171 13.6493 24.6008 13.2993 24.6008ZM20.8976 26.1834C21.2484 26.1834 21.5318 26.4669 21.5318 26.8172C21.5318 27.1669 21.2483 27.4512 20.8976 27.4512C20.5494 27.4512 20.2659 27.1669 20.2659 26.8172C20.2659 26.4669 20.5494 26.1834 20.8976 26.1834ZM17.7313 24.1174C18.082 24.1174 18.3656 24.401 18.3656 24.7499C18.3656 25.1017 18.0821 25.3853 17.7313 25.3853C17.3817 25.3853 17.0995 25.1017 17.0995 24.7499C17.0995 24.4011 17.3817 24.1174 17.7313 24.1174ZM16.3075 26.8172C16.3075 27.1669 16.0237 27.4512 15.6733 27.4512C15.3251 27.4512 15.0415 27.1669 15.0415 26.8172C15.0415 26.4669 15.325 26.1834 15.6733 26.1834C16.0237 26.1834 16.3075 26.4669 16.3075 26.8172Z" fill="#3D1A07"/>
</svg>
