<svg width="20" height="20" viewBox="0 0 20 20" fill="none" xmlns="http://www.w3.org/2000/svg">
<path d="M10 20C15.5228 20 20 15.5228 20 10C20 4.47715 15.5228 0 10 0C4.47715 0 0 4.47715 0 10C0 15.5228 4.47715 20 10 20Z" fill="#CCAFA0"/>
<path d="M11.4099 13.83C11.1447 13.83 10.8904 13.7247 10.7028 13.5371C10.5153 13.3496 10.4099 13.0952 10.4099 12.83V9.59003H7.16992C6.90471 9.59003 6.65035 9.48467 6.46282 9.29713C6.27528 9.1096 6.16992 8.85524 6.16992 8.59003C6.16992 8.32481 6.27528 8.07046 6.46282 7.88292C6.65035 7.69538 6.90471 7.59003 7.16992 7.59003H11.4099C11.6751 7.59003 11.9295 7.69538 12.117 7.88292C12.3046 8.07046 12.4099 8.32481 12.4099 8.59003V12.83C12.4099 13.0952 12.3046 13.3496 12.117 13.5371C11.9295 13.7247 11.6751 13.83 11.4099 13.83Z" fill="#4B352A"/>
</svg>
