<svg width="9" height="8" viewBox="0 0 9 8" fill="none" xmlns="http://www.w3.org/2000/svg">
<path d="M4.48439 0C4.09739 0 3.78207 0.32254 3.78207 0.718413C3.78207 1.11397 4.09428 1.43651 4.48439 1.43651C4.86828 1.43651 5.18639 1.11397 5.18639 0.718413C5.18639 0.32254 4.87139 0 4.48439 0ZM5.36887 1.5873H3.5999C3.11607 1.5873 2.73094 2.01302 2.73094 2.50794V3.52381H3.35163V2.66667C3.35163 2.61238 3.39166 2.57143 3.44473 2.57143C3.4978 2.57143 3.53783 2.61238 3.53783 2.66667V3.52381H5.43094V2.66667C5.43094 2.61238 5.47097 2.57143 5.52404 2.57143C5.57711 2.57143 5.61714 2.61238 5.61714 2.66667V3.52381H6.23783V2.50794C6.23783 2.01619 5.84959 1.5873 5.36887 1.5873ZM0.899902 3.68254V4.53968H1.6137V8H7.35507V4.53968H8.0999V3.68254H0.899902ZM5.06039 6.5019C5.09235 6.49111 5.12307 6.48349 5.15504 6.48349C5.2497 6.48 5.3307 6.50952 5.39959 6.57365C5.4688 6.63683 5.50604 6.71492 5.50821 6.81397C5.51132 6.84349 5.50821 6.8781 5.50076 6.91079L5.22952 6.65524L4.98497 6.92825L5.25932 7.18286C5.22735 7.19365 5.19663 7.20127 5.16466 7.20127C5.07001 7.20476 4.98932 7.17524 4.92011 7.11111C4.8509 7.04349 4.81366 6.9654 4.81056 6.86857C4.81056 6.8346 4.81366 6.79651 4.82111 6.76413L4.75532 6.69968L4.36056 6.33111L3.6927 7.08381C3.65235 7.13937 3.58966 7.17746 3.51735 7.17746C3.40035 7.17746 3.3057 7.08064 3.3057 6.96095C3.3057 6.89683 3.33021 6.8381 3.37801 6.79651L4.07132 6.06127L3.65235 5.66857C3.61945 5.68381 3.58221 5.69143 3.55025 5.69143C3.45559 5.6946 3.3749 5.6654 3.3057 5.60095C3.23649 5.53683 3.19925 5.45841 3.19614 5.36159C3.19304 5.33238 3.19614 5.29746 3.20359 5.26476L3.47794 5.51937L3.72032 5.24762L3.44597 4.99302C3.47483 4.9819 3.50866 4.97429 3.54063 4.97429C3.63528 4.97111 3.71628 5.00064 3.78518 5.06476C3.85439 5.12794 3.89163 5.21048 3.89473 5.3073C3.89814 5.34 3.89473 5.37143 3.88728 5.40413L4.31928 5.80889L4.6349 5.45968L4.16287 5.03429L4.59145 4.53492L5.8049 5.6273L5.37632 6.12667L4.89125 5.68921L4.58618 6.0581L5.06039 6.5019Z" fill="black"/>
</svg>
