<svg width="14" height="14" viewBox="0 0 16 15" fill="none" xmlns="http://www.w3.org/2000/svg">
<path d="M0.97077 7.54749C1.00487 9.50928 1.80813 11.3792 3.20754 12.7545C4.60695 14.1298 6.49055 14.9004 8.45264 14.9004C10.4147 14.9004 12.2983 14.1298 13.6977 12.7545C15.0971 11.3792 15.9004 9.50928 15.9345 7.54749C15.9004 5.58569 15.0971 3.71577 13.6977 2.34047C12.2983 0.965171 10.4147 0.19453 8.45264 0.19453C6.49054 0.19453 4.60695 0.965171 3.20754 2.34047C1.80813 3.71577 1.00487 5.58569 0.97077 7.54749ZM8.2304 4.77486L10.4739 7.01836C10.6142 7.15869 10.6931 7.34902 10.6931 7.54749C10.6931 7.74595 10.6142 7.93628 10.4739 8.07661L8.2304 10.3201C8.09007 10.4604 7.89974 10.5393 7.70128 10.5393C7.50281 10.5393 7.31248 10.4604 7.17215 10.3201C7.03181 10.1798 6.95298 9.98945 6.95298 9.79099C6.95298 9.59253 7.03181 9.40219 7.17215 9.26186L8.88652 7.54749L7.17215 5.83311C7.03181 5.69278 6.95298 5.50245 6.95298 5.30398C6.95298 5.10552 7.03181 4.91519 7.17215 4.77486C7.31248 4.63452 7.50281 4.55569 7.70128 4.55569C7.89974 4.55569 8.09007 4.63452 8.2304 4.77486Z" 
fill="#3D1A07"/>
</svg>