<svg width="14" height="13" viewBox="0 0 14 13" fill="none" xmlns="http://www.w3.org/2000/svg">
  <path d="M11.9 1.44444H0.7V0H11.9V1.44444ZM7.7 8.76055L5.6 10.9272V11.5556H0.7V7.22222H0V5.77778L0.7 2.16667H11.9L12.327 4.38389C12.012 4.45611 11.711 4.62222 11.473 4.86778L9.191 7.22222H7.7V8.76055ZM6.3 7.22222H2.1V10.1111H6.3V7.22222ZM13.895 6.83944L12.971 5.88611C12.831 5.74167 12.6 5.74167 12.467 5.88611L11.781 6.59389L13.209 8.06722L13.895 7.35944C14.035 7.22222 14.035 6.98389 13.895 6.83944ZM7 11.5267V13H8.428L12.719 8.58L11.291 7.09944L7 11.5267Z" 
  fill="currentColor"/>
</svg>