<svg width="14" height="14" viewBox="0 0 14 14" fill="none" xmlns="http://www.w3.org/2000/svg">
  <path d="M11.365 1.4H0.668531V0H11.365V1.4ZM10.6965 5.6C9.41961 5.6 8.26973 6.132 7.42738 7H7.35385V7.077C6.52487 7.959 6.01678 9.163 6.01678 10.5C6.01678 10.738 6.03684 10.969 6.07027 11.2H0.668531V7H0V5.6L0.668531 2.1H11.365L12.0336 5.6V5.81C11.6124 5.677 11.1645 5.6 10.6965 5.6ZM6.01678 7H2.00559V9.8H6.01678V7ZM13.9055 11.48C13.9723 11.48 13.9723 11.55 13.9055 11.62L13.2369 12.81C13.1701 12.88 13.1032 12.88 13.0364 12.88L12.2341 12.6C12.0336 12.74 11.8999 12.81 11.6993 12.95L11.5656 13.86C11.5656 13.93 11.4987 14 11.4319 14H10.0948C10.028 14 9.96112 13.93 9.89427 13.86L9.76056 12.95C9.56 12.88 9.35944 12.74 9.22573 12.6L8.4235 12.95C8.35664 12.95 8.28979 12.95 8.22294 12.88L7.55441 11.69C7.48755 11.62 7.55441 11.55 7.62126 11.48L8.35664 10.92V10.22L7.62126 9.66C7.55441 9.59 7.55441 9.52 7.55441 9.45L8.22294 8.26C8.28979 8.19 8.35664 8.19 8.4235 8.19L9.22573 8.54C9.42629 8.4 9.56 8.33 9.76056 8.19L9.89427 7.28C9.89427 7.21 9.96112 7.14 10.0948 7.14H11.4319C11.4987 7.14 11.5656 7.21 11.5656 7.28L11.6993 8.19C11.8999 8.26 12.1004 8.4 12.301 8.54L13.1032 8.19C13.1701 8.19 13.3038 8.19 13.3038 8.26L13.9723 9.45C14.0392 9.52 13.9723 9.59 13.9055 9.66L13.1701 10.22V10.92L13.9055 11.48ZM11.6993 10.5C11.6993 9.94 11.2313 9.45 10.6965 9.45C10.1617 9.45 9.69371 9.94 9.69371 10.5C9.69371 11.06 10.1617 11.55 10.6965 11.55C11.2313 11.55 11.6993 11.06 11.6993 10.5Z" 
  fill="currentColor"/>
</svg>