<svg width="134" height="134" viewBox="0 0 134 134" fill="none" xmlns="http://www.w3.org/2000/svg">
  <path d="M26.4182 12.4246C29.1005 12.3576 32.5487 13.3515 34.5364 14.2024C36.9886 15.252 39.1236 11.6876 36.6514 10.6268C31.7648 8.53194 26.3244 7.48228 21.1007 8.96744C16.1047 10.3878 15.4257 16.4402 19.6132 19.1514C23.5394 21.693 28.6784 19.6026 32.7073 21.588C34.3041 22.3764 33.1875 23.8682 32.0395 24.3171C30.8246 24.7906 29.4667 24.8286 28.1803 24.8375C25.5182 24.8554 22.1793 24.431 19.8991 23.0218C17.6032 21.5992 15.5017 25.1837 17.7842 26.5951C21.8042 29.0808 27.9503 29.5208 32.5174 28.4957C37.0913 27.4728 39.6284 22.0615 35.7536 18.6713C32.3656 15.7032 27.0815 17.0298 23.0303 16.0739C21.86 15.7992 20.0756 14.8813 21.3441 13.4341C22.3558 12.275 25.0648 12.4559 26.4182 12.4246Z" fill="currentColor"/>
  <path d="M102.595 8.2789C102.044 8.28117 101.516 8.49925 101.125 8.88633C100.733 9.2734 100.509 9.79861 100.5 10.3492V26.9049C100.5 29.5737 104.687 29.5737 104.687 26.9049V20.7253C109.57 20.8079 116.696 20.7498 117.19 15.1754C117.886 7.27614 107.877 8.2789 102.595 8.2789ZM112.801 15.3072C111.481 16.9576 107.537 16.7991 104.687 16.645V12.4039C108.339 12.4083 114.878 12.6964 112.801 15.3072Z" fill="currentColor"/>
  <path d="M62.8125 10.349V16.5554H50.25V10.349C50.25 7.68017 46.0625 7.68017 46.0625 10.349V26.9047C46.0625 29.5735 50.25 29.5735 50.25 26.9047V20.696H62.8125V26.9047C62.8125 29.5735 67 29.5735 67 26.9047V10.349C67 7.67794 62.8125 7.67794 62.8125 10.349Z" fill="currentColor"/>
  <path d="M83.7501 8.27881C77.977 8.27881 73.2803 12.9197 73.2803 18.6258C73.2803 24.3342 77.977 28.9751 83.7501 28.9751C89.5233 28.9751 94.22 24.3342 94.22 18.6258C94.22 12.9197 89.5233 8.27881 83.7501 8.27881ZM83.7501 24.8345C80.2862 24.8345 77.4678 22.0495 77.4678 18.6258C77.4678 15.2044 80.2862 12.4172 83.7501 12.4172C87.214 12.4172 90.0325 15.2044 90.0325 18.6258C90.0325 22.0495 87.214 24.8345 83.7501 24.8345Z" fill="currentColor"/>
  <path d="M10.4699 20.6963C11.6268 20.6963 12.5647 19.7694 12.5647 18.626C12.5647 17.4826 11.6268 16.5557 10.4699 16.5557C9.3129 16.5557 8.375 17.4826 8.375 18.626C8.375 19.7694 9.3129 20.6963 10.4699 20.6963Z" fill="currentColor"/>
  <path d="M123.532 20.6963C124.689 20.6963 125.627 19.7694 125.627 18.626C125.627 17.4826 124.689 16.5557 123.532 16.5557C122.375 16.5557 121.438 17.4826 121.438 18.626C121.438 19.7694 122.375 20.6963 123.532 20.6963Z" fill="currentColor"/>
  <path d="M32.4436 79.2046C29.6287 79.2079 26.8898 80.1182 24.633 81.8005C22.3762 83.4829 20.7216 85.8477 19.9146 88.5444H44.977C44.1688 85.8475 42.5133 83.4828 40.2558 81.8005C37.9983 80.1183 35.2589 79.208 32.4436 79.2046Z" fill="currentColor"/>
  <path d="M129.812 0H4.1875C1.88493 0 0 1.8626 0 4.1406V55.8825C0 58.9377 1.7286 61.5775 4.22323 63.0113V126H2.23333V134H131.767V125.998H129.777V63.009C132.271 61.573 134 58.9354 134 55.8802V4.1406C134 1.8626 132.115 0 129.812 0ZM3.14007 55.8802V37.252H13.6099V55.8802C13.6099 58.7322 11.2627 61.0526 8.375 61.0526C5.4873 61.0526 3.14007 58.7322 3.14007 55.8802ZM45.522 92.2791V125.998H19.3697V92.2791H15.6333C15.6843 87.8546 17.4778 83.6286 20.6245 80.5179C23.7713 77.4072 28.0177 75.6626 32.4425 75.6626C36.8673 75.6626 41.1137 77.4072 44.2605 80.5179C47.4073 83.6286 49.2007 87.8546 49.2517 92.2791H45.522ZM114.63 112.828H58.5937V75.471H114.63V112.828ZM125.625 65.794H8.375V64.157C13.0002 64.157 16.75 60.4519 16.75 55.8802C16.75 60.4519 20.4998 64.157 25.125 64.157C29.7502 64.157 33.5 60.4496 33.5 55.8802C33.5 60.4519 37.2498 64.157 41.875 64.157C46.5002 64.157 50.25 60.4519 50.25 55.8802C50.25 60.4519 53.9998 64.157 58.625 64.157C63.2502 64.157 67 60.4496 67 55.8802C67 60.4519 70.7498 64.157 75.375 64.157C80.0002 64.157 83.75 60.4519 83.75 55.8802C83.75 60.4519 87.4998 64.157 92.125 64.157C96.7502 64.157 100.5 60.4496 100.5 55.8802C100.5 60.4519 104.25 64.157 108.875 64.157C113.5 64.157 117.25 60.4519 117.25 55.8802C117.25 60.4519 121 64.157 125.625 64.157V65.794ZM36.6401 55.8802V37.252H47.1099V55.8802C47.1099 58.7322 44.7627 61.0526 41.875 61.0526C38.9873 61.0526 36.6401 58.7322 36.6401 55.8802ZM70.1401 55.8802V37.252H80.6099V55.8802C80.6099 58.7322 78.2627 61.0526 75.375 61.0526C72.4873 61.0526 70.1401 58.7322 70.1401 55.8802ZM103.64 55.8802V37.252H114.11V55.8802C114.11 58.7322 111.763 61.0526 108.875 61.0526C105.987 61.0526 103.64 58.7322 103.64 55.8802ZM129.812 31.0433C129.807 31.595 129.584 32.1222 129.192 32.5101C128.799 32.8979 128.269 33.1148 127.718 33.1136H6.28237C5.73065 33.1148 5.20083 32.8979 4.80841 32.5101C4.41599 32.1222 4.1928 31.595 4.1875 31.0433V6.20867C4.1875 5.06743 5.12997 4.13837 6.28237 4.13837H127.72C128.872 4.13837 129.815 5.06743 129.815 6.20867L129.812 31.0433Z" fill="currentColor"/>
  <path d="M38.0477 101.619C37.0204 101.619 36.1807 102.72 36.1807 104.073V107.758C36.1807 109.107 36.8551 110.876 37.6748 111.687L38.4185 112.419C39.2426 113.232 39.917 112.792 39.917 111.436V104.073C39.917 102.72 39.0773 101.619 38.0477 101.619Z" fill="currentColor"/>
</svg>
