<svg width="14" height="13" viewBox="0 0 14 13" fill="none" xmlns="http://www.w3.org/2000/svg">
  <path d="M10.3478 1.18182H0.608696V0H10.3478V1.18182ZM10.0435 6.5H9.13043V9.45455L11.3278 10.7309L11.7843 10.01L10.0435 9.01136V6.5ZM14 8.86364C14 11.1505 12.0948 13 9.73913 13C7.59043 13 5.82522 11.4577 5.52696 9.45455H0.608696V5.90909H0V4.72727L0.608696 1.77273H10.3478L10.9565 4.72727V4.89864C12.7157 5.41273 14 6.99045 14 8.86364ZM1.82609 8.27273H5.47826V5.90909H1.82609V8.27273ZM12.7826 8.86364C12.7826 7.23273 11.4191 5.90909 9.73913 5.90909C8.05913 5.90909 6.69565 7.23273 6.69565 8.86364C6.69565 10.4945 8.05913 11.8182 9.73913 11.8182C11.4191 11.8182 12.7826 10.4945 12.7826 8.86364Z" 
  fill="currentColor"/>
</svg>