<svg width="23" height="23" viewBox="0 0 23 23" fill="none" xmlns="http://www.w3.org/2000/svg">
  <path d="M5.82958 8.33966H7.79399V9.87663H5.82958V8.33966ZM11.9957 5.22934H19.7805V6.31158H11.9957V5.22934ZM11.9957 9.98576H19.7805V11.068H11.9957V9.98576ZM17.034 4.9656C17.7252 4.9656 18.2981 4.39264 18.2981 3.68327C18.2981 2.9739 17.7343 2.40095 17.034 2.40095C16.3428 2.40095 15.779 2.9739 15.779 3.68327C15.7699 4.39264 16.3337 4.9656 17.034 4.9656ZM14.7968 4.89284C15.2242 4.89284 15.5698 4.54725 15.5698 4.11071C15.5698 3.67418 15.2242 3.32859 14.7968 3.32859C14.3693 3.32859 14.0328 3.68327 14.0328 4.11071C14.0237 4.53816 14.3693 4.89284 14.7968 4.89284ZM13.2234 4.9565C13.5053 4.9565 13.7236 4.72914 13.7236 4.44721C13.7236 4.16528 13.4962 3.93792 13.2234 3.93792C12.9506 3.93792 12.7232 4.16528 12.7232 4.44721C12.7232 4.72914 12.9506 4.9565 13.2234 4.9565ZM15.1242 7.92131H18.289V9.57651H15.1242V7.92131ZM13.2416 7.92131H14.2238V9.57651H13.2416V7.92131ZM6.83907 4.44721C7.82127 4.44721 8.6125 5.23843 8.6125 6.22064C8.6125 7.20285 7.82127 7.99407 6.83907 7.99407C5.85686 7.99407 5.06564 7.20285 5.06564 6.22064C5.06564 5.23843 5.85686 4.44721 6.83907 4.44721ZM4.15619 13.5599V11.0043C4.15619 10.877 4.26532 10.7861 4.37446 10.7861C4.50178 10.7861 4.59272 10.877 4.59272 11.0043V13.5599H5.47489V9.88573V8.33966H4.7928C3.55595 8.33966 2.78292 9.35824 2.78292 10.6315V13.5599H4.15619ZM8.14868 9.87663V13.5508H9.04903V11.0043C9.04903 10.877 9.15816 10.7861 9.2673 10.7861C9.39462 10.7861 9.48557 10.8952 9.48557 11.0043V13.5599H10.8679V10.6588C10.8861 9.35824 10.1131 8.33966 8.85805 8.33966H8.14868V9.87663ZM22.9909 0H0V1.29142H0.64571V22.5362H22.4634V13.8691V1.29142H23L22.9909 0ZM20.9901 13.8691H2.10992V1.29142H20.9992V13.8691H20.9901Z" fill="currentColor"/>
</svg>
