<svg width="13" height="13" viewBox="0 0 13 13" fill="none" xmlns="http://www.w3.org/2000/svg">
  <path d="M5.37492 5.66659C5.64303 5.66659 5.90852 5.61378 6.15623 5.51117C6.40394 5.40857 6.62901 5.25818 6.8186 5.0686C7.00818 4.87901 7.15857 4.65394 7.26117 4.40623C7.36378 4.15852 7.41659 3.89303 7.41659 3.62492C7.41659 3.3568 7.36378 3.09131 7.26117 2.84361C7.15857 2.5959 7.00818 2.37083 6.8186 2.18124C6.62901 1.99166 6.40394 1.84127 6.15623 1.73866C5.90852 1.63606 5.64303 1.58325 5.37492 1.58325C4.83344 1.58325 4.31413 1.79836 3.93124 2.18124C3.54836 2.56413 3.33325 3.08344 3.33325 3.62492C3.33325 4.1664 3.54836 4.68571 3.93124 5.0686C4.31413 5.45148 4.83344 5.66659 5.37492 5.66659Z" fill="currentColor" stroke="currentColor" stroke-linecap="round" stroke-linejoin="round"/>
  <path d="M9.45825 2.16667C9.45825 2.16667 10.1145 3.47917 9.45825 5.08333M11.4999 1C11.4999 1 12.8124 3.3625 11.4999 6.25" stroke="currentColor" stroke-linecap="round" stroke-linejoin="round"/>
  <path d="M1 11.7333V12.0833H9.75V11.7333C9.75 10.4267 9.75 9.77333 9.49567 9.274C9.27197 8.83497 8.91503 8.47803 8.476 8.25433C7.97667 8 7.32333 8 6.01667 8H4.73333C3.42667 8 2.77333 8 2.274 8.25433C1.83497 8.47803 1.47803 8.83497 1.25433 9.274C1 9.77333 1 10.4267 1 11.7333Z" fill="currentColor" stroke="currentColor" stroke-linecap="round" stroke-linejoin="round"/>
</svg>