<svg width="135" height="144" viewBox="0 0 135 144" fill="none" xmlns="http://www.w3.org/2000/svg">
<path d="M134.863 88.5806H134.865V49.2547C134.865 45.0216 131.434 41.5898 127.2 41.5898H113.532C109.299 41.5898 105.867 45.0216 105.867 49.2547V68.4176L109.515 65.2926L118.103 53.1491L111.705 69.9965L97.5954 82.0818C95.299 84.0488 95.0322 87.505 96.9989 89.8014C98.9669 92.0984 102.423 92.364 104.719 90.3979L119.889 77.4039C120.585 76.8078 121.12 76.0462 121.445 75.1895L128.339 57.0366L126.117 76.9635C125.877 79.1161 124.544 79.9968 123.139 81.1991C121.426 82.6667 109.464 92.9126 107.969 94.1931C107.278 94.7849 106.532 95.2706 105.751 95.6525L105.748 137.15C105.748 140.779 108.689 143.72 112.317 143.721H112.317C115.946 143.721 118.887 140.78 118.887 137.152L118.891 88.581H121.725C121.725 88.5872 121.724 88.5935 121.724 88.5997L121.861 137.17C121.871 140.792 124.81 143.721 128.43 143.721C128.436 143.721 128.443 143.721 128.449 143.721C132.077 143.71 135.011 140.761 135 137.132L134.863 88.5806Z" fill="currentColor"/>
<path d="M120.307 36.8787C126.573 36.8787 131.653 31.7986 131.653 25.5321C131.653 19.2656 126.573 14.1855 120.307 14.1855C114.04 14.1855 108.96 19.2656 108.96 25.5321C108.96 31.7986 114.04 36.8787 120.307 36.8787Z" fill="currentColor"/>
<path d="M14.6932 36.8787C20.9598 36.8787 26.0398 31.7986 26.0398 25.5321C26.0398 19.2656 20.9598 14.1855 14.6932 14.1855C8.42671 14.1855 3.34668 19.2656 3.34668 25.5321C3.34668 31.7986 8.42671 36.8787 14.6932 36.8787Z" fill="currentColor"/>
<path d="M37.4049 82.0815L23.2953 69.9961L16.8971 53.1488L25.485 65.2926L29.1332 68.4176V49.2547C29.1332 45.0216 25.7014 41.5898 21.4683 41.5898H7.7994C3.5663 41.5898 0.134521 45.0216 0.134521 49.2547V88.5806H0.137336L2.71598e-05 137.132C-0.0102944 140.761 2.9226 143.71 6.5508 143.72C6.55737 143.72 6.56331 143.72 6.56988 143.72C10.1893 143.72 13.1291 140.791 13.1391 137.169L13.2764 88.5994C13.2764 88.5932 13.2755 88.5869 13.2755 88.5806H16.1092L16.113 137.151C16.1133 140.779 19.0546 143.72 22.6831 143.72C26.3113 143.72 29.2524 140.779 29.2521 137.15L29.2489 95.6522C28.4679 95.2703 27.722 94.7849 27.0314 94.1928C25.5363 92.9123 13.5742 82.6664 11.8608 81.1988C10.5171 80.0478 9.13183 79.1517 8.88317 76.9632L6.6609 57.0366L13.5545 75.1892C13.8798 76.0458 14.4152 76.8075 15.1112 77.4036L30.2817 90.3976C32.5803 92.3655 36.0352 92.0959 38.0013 89.8011C39.9681 87.5047 39.7013 84.0485 37.4049 82.0815Z" fill="currentColor"/>
<path d="M73.6025 13.136C73.6025 5.88112 65.5667 0 55.6542 0C45.7414 0 37.7056 5.88112 37.7056 13.136C37.7056 16.1292 39.0761 18.887 41.3791 21.0958L38.6129 26.8621C38.4841 27.1305 38.5422 27.4514 38.7571 27.6575C38.972 27.8636 39.2951 27.9087 39.5578 27.7689L46.1386 24.2723C48.8976 25.5378 52.158 26.2719 55.6539 26.2719C65.5667 26.2719 73.6025 20.3908 73.6025 13.136Z" fill="currentColor"/>
<path d="M95.0639 37.9197L97.8301 32.1534C97.959 31.885 97.9008 31.5641 97.6859 31.358C97.471 31.1519 97.1483 31.1068 96.8852 31.2467L90.3044 34.7432C87.5454 33.4777 84.2853 32.7436 80.7891 32.7436C70.8767 32.7436 62.8408 38.6247 62.8408 45.8796C62.8408 53.1344 70.8767 59.0155 80.7891 59.0155C90.7019 59.0155 98.7375 53.1344 98.7375 45.8796C98.7375 42.8866 97.3672 40.1289 95.0639 37.9197Z" fill="currentColor"/>
</svg>
