<svg width="40" height="38" viewBox="0 0 40 38" fill="none" xmlns="http://www.w3.org/2000/svg">
<path d="M29.5652 3.45455H1.73913V0H29.5652V3.45455ZM28.6957 19H26.087V27.6364L32.3652 31.3673L33.6696 29.26L28.6957 26.3409V19ZM40 25.9091C40 32.5936 34.5565 38 27.8261 38C21.687 38 16.6435 33.4918 15.7913 27.6364H1.73913V17.2727H0V13.8182L1.73913 5.18182H29.5652L31.3043 13.8182V14.3191C36.3304 15.8218 40 20.4336 40 25.9091ZM5.21739 24.1818H15.6522V17.2727H5.21739V24.1818ZM36.5217 25.9091C36.5217 21.1418 32.6261 17.2727 27.8261 17.2727C23.0261 17.2727 19.1304 21.1418 19.1304 25.9091C19.1304 30.6764 23.0261 34.5455 27.8261 34.5455C32.6261 34.5455 36.5217 30.6764 36.5217 25.9091Z" fill="currentColor"/>
</svg>
