<svg width="14" height="14" viewBox="0 0 14 14" fill="none" xmlns="http://www.w3.org/2000/svg">
<path d="M12.0285 4.06362L9.95317 1.98629C8.53448 0.566233 7.82517 -0.143799 7.06329 0.0242779C6.30147 0.192362 5.95602 1.13509 5.26519 3.02055L4.79761 4.29668C4.61344 4.79933 4.52136 5.05065 4.35568 5.24505C4.28134 5.33229 4.19675 5.41022 4.10376 5.47716C3.89651 5.6264 3.63868 5.69745 3.12302 5.83962C1.96075 6.16001 1.37962 6.32024 1.16063 6.70048C1.06596 6.86484 1.01669 7.05146 1.01789 7.24123C1.02066 7.68006 1.44689 8.10671 2.29933 8.96001L3.28955 9.95142L0.156413 13.0875C-0.0521378 13.2962 -0.0521378 13.6348 0.156413 13.8435C0.364965 14.0522 0.7031 14.0522 0.911651 13.8435L4.04489 10.7073L5.07109 11.7345C5.92893 12.5932 6.35789 13.0225 6.79939 13.0232C6.98545 13.0234 7.16829 12.9751 7.32992 12.8829C7.71345 12.664 7.87452 12.0786 8.19666 10.9078C8.33834 10.3931 8.40911 10.1357 8.55779 9.92846C8.62289 9.83781 8.69835 9.75507 8.78277 9.68199C8.97548 9.51511 9.22517 9.42131 9.72455 9.23371L11.0154 8.74868C12.88 8.04812 13.8123 7.69784 13.9767 6.93806C14.141 6.17821 13.4368 5.47334 12.0285 4.06362Z" fill="#FF3131"/>
</svg>
