<svg width="15" height="14" viewBox="0 0 15 14" fill="none" xmlns="http://www.w3.org/2000/svg">
<path fill-rule="evenodd" clip-rule="evenodd" d="M0 2.15786C0 1.58556 0.227345 1.0367 0.632021 0.632021C1.0367 0.227345 1.58556 0 2.15786 0H12.2278C12.8001 0 13.349 0.227345 13.7537 0.632021C14.1584 1.0367 14.3857 1.58556 14.3857 2.15786V9.35071C14.3857 9.92301 14.1584 10.4719 13.7537 10.8765C13.349 11.2812 12.8001 11.5086 12.2278 11.5086H9.22699C9.03624 11.5086 8.85332 11.5844 8.71846 11.7193L7.37555 13.0622C6.51241 13.9261 5.035 13.314 5.035 12.0926C5.035 11.9377 4.97346 11.7892 4.86393 11.6796C4.7544 11.5701 4.60584 11.5086 4.45094 11.5086H2.15786C1.58556 11.5086 1.0367 11.2812 0.632021 10.8765C0.227345 10.4719 0 9.92301 0 9.35071V2.15786ZM3.59643 2.15786C3.40566 2.15786 3.22271 2.23364 3.08782 2.36853C2.95292 2.50342 2.87714 2.68637 2.87714 2.87714C2.87714 3.06791 2.95292 3.25086 3.08782 3.38575C3.22271 3.52064 3.40566 3.59643 3.59643 3.59643H10.7893C10.98 3.59643 11.163 3.52064 11.2979 3.38575C11.4328 3.25086 11.5086 3.06791 11.5086 2.87714C11.5086 2.68637 11.4328 2.50342 11.2979 2.36853C11.163 2.23364 10.98 2.15786 10.7893 2.15786H3.59643ZM3.59643 5.035C3.40566 5.035 3.22271 5.11078 3.08782 5.24567C2.95292 5.38056 2.87714 5.56352 2.87714 5.75428C2.87714 5.94505 2.95292 6.128 3.08782 6.26289C3.22271 6.39779 3.40566 6.47357 3.59643 6.47357H10.7893C10.98 6.47357 11.163 6.39779 11.2979 6.26289C11.4328 6.128 11.5086 5.94505 11.5086 5.75428C11.5086 5.56352 11.4328 5.38056 11.2979 5.24567C11.163 5.11078 10.98 5.035 10.7893 5.035H3.59643ZM3.59643 7.91214C3.40566 7.91214 3.22271 7.98792 3.08782 8.12281C2.95292 8.2577 2.87714 8.44066 2.87714 8.63142C2.87714 8.82219 2.95292 9.00514 3.08782 9.14003C3.22271 9.27493 3.40566 9.35071 3.59643 9.35071H6.47357C6.66433 9.35071 6.84729 9.27493 6.98218 9.14003C7.11707 9.00514 7.19285 8.82219 7.19285 8.63142C7.19285 8.44066 7.11707 8.2577 6.98218 8.12281C6.84729 7.98792 6.66433 7.91214 6.47357 7.91214H3.59643Z" fill="#3D1A07"/>
</svg>
