<svg width="23" height="23" viewBox="0 0 23 23" fill="none" xmlns="http://www.w3.org/2000/svg">
<path d="M11.0527 0.797852C11.2403 0.400422 11.7598 0.400422 11.9473 0.797852L14.958 7.18359L15.0713 7.4248L15.335 7.46484L22.0654 8.48828C22.4542 8.54748 22.6705 9.09628 22.3389 9.43457L17.4688 14.4033L17.292 14.585L17.333 14.834L18.4814 21.8516C18.5563 22.3085 18.1137 22.6491 17.6777 22.4316L11.6719 19.127L11.4287 18.9932L11.1875 19.1279L5.23828 22.4395C4.91461 22.6172 4.43688 22.3503 4.51855 21.8516L5.66699 14.834L5.70801 14.585L5.53125 14.4033L0.661133 9.43457C0.329599 9.09628 0.545887 8.54862 0.93457 8.48926L7.66504 7.46484L7.92871 7.4248L8.04199 7.18359L11.0527 0.797852Z" fill="#916E5C" stroke="#4B352A"/>
</svg>
