<svg width="14" height="14" viewBox="0 0 14 14" fill="none" xmlns="http://www.w3.org/2000/svg">
<path fill-rule="evenodd" clip-rule="evenodd" d="M4.22754 1.4092H8.9248C9.31374 1.4092 9.62939 1.09354 9.62939 0.704599C9.62939 0.31566 9.31374 0 8.9248 0H4.22754C3.83861 0 3.52295 0.31566 3.52295 0.704599C3.52295 1.09354 3.83861 1.4092 4.22754 1.4092Z" fill="#E93535"/>
<path fill-rule="evenodd" clip-rule="evenodd" d="M1.40918 3.75685V11.5074C1.40918 12.8044 2.4609 13.8561 3.75781 13.8561H9.39453C10.6914 13.8561 11.7432 12.8044 11.7432 11.5074V3.75685H12.5159C12.8672 3.75685 13.1523 3.44119 13.1523 3.05225C13.1523 2.66332 12.8672 2.34766 12.5159 2.34766H0.636479C0.285124 2.34766 0 2.66332 0 3.05225C0 3.44119 0.285124 3.75685 0.636479 3.75685H1.40918ZM4.69727 5.40092V11.0377C4.69727 11.297 4.9077 11.5074 5.16699 11.5074C5.42628 11.5074 5.63672 11.297 5.63672 11.0377V5.40092C5.63672 5.14162 5.42628 4.93118 5.16699 4.93118C4.9077 4.93118 4.69727 5.14162 4.69727 5.40092ZM7.51562 5.40092V11.0377C7.51562 11.297 7.72606 11.5074 7.98535 11.5074C8.24464 11.5074 8.45508 11.297 8.45508 11.0377V5.40092C8.45508 5.14162 8.24464 4.93118 7.98535 4.93118C7.72606 4.93118 7.51562 5.14162 7.51562 5.40092Z" fill="#E93535"/>
</svg>
