<svg width="28" height="28" viewBox="0 0 28 28" fill="none" xmlns="http://www.w3.org/2000/svg">
<path d="M27.7914 3.85824L19.896 26.1127C19.7071 26.6654 19.3507 27.1446 18.877 27.4831C18.4033 27.8216 17.836 28.0023 17.2549 27.9998C16.6804 28.0064 16.1181 27.8339 15.6452 27.5059C15.1722 27.178 14.8119 26.7108 14.6138 26.1686L11.6669 18.4522L13.8075 16.2995L17.2688 12.8187C17.5305 12.5555 17.6776 12.1985 17.6776 11.8262C17.6776 11.454 17.5305 11.0969 17.2688 10.8337C17.007 10.5705 16.652 10.4226 16.2818 10.4226C15.9117 10.4226 15.5566 10.5705 15.2949 10.8337L11.8337 14.3145L9.63739 16.4812L1.97822 13.5037C1.40626 13.3304 0.905008 12.9765 0.548705 12.4943C0.192401 12.0122 0 11.4274 0 10.8267C0 10.226 0.192401 9.64127 0.548705 9.15911C0.905008 8.67696 1.40626 8.32304 1.97822 8.14977L24.1634 0.209749C24.6707 0.000134605 25.2284 -0.0538777 25.7662 0.0545091C26.304 0.162896 26.7979 0.428839 27.1857 0.818867C27.5736 1.20889 27.838 1.70558 27.9458 2.24641C28.0536 2.78724 27.9999 3.34804 27.7914 3.85824Z" fill="#CCAFA0"/>
</svg>
