<svg width="11" height="14" viewBox="0 0 11 14" fill="none" xmlns="http://www.w3.org/2000/svg">
<path d="M8.79099 9.59506H1.30667V13.3636C1.30667 13.7151 1.01416 14 0.653333 14C0.292507 14 0 13.7151 0 13.3636V0.636362C0 0.284908 0.292507 0 0.653333 0H8.79099C9.64732 0 10.306 0.512758 10.6353 1.15272C10.9639 1.79149 10.9989 2.61085 10.5873 3.32905L10.1964 4.01144C9.92211 4.4902 9.92211 5.10483 10.1964 5.58359L10.5873 6.26601C10.9989 6.98421 10.9639 7.80352 10.6353 8.44231C10.306 9.08227 9.64732 9.59506 8.79099 9.59506Z" fill="#A02222"/>
</svg>
