<svg width="10" height="10" viewBox="0 0 10 10" fill="none" xmlns="http://www.w3.org/2000/svg">
<path d="M2 0.5V2M2 2V3.5M2 2H3.5M2 2H0.5" stroke="#4B352A" stroke-linecap="round" stroke-linejoin="round"/>
<path d="M7.5 5.5H9.5V1.5C9.5 1.23478 9.39457 0.980505 9.20703 0.792969C9.0195 0.605433 8.76522 0.5 8.5 0.5H5.16113C5.31096 0.815532 5.41098 1.15244 5.46094 1.5H7.5C7.76522 1.5 8.01949 1.60543 8.20703 1.79297C8.39457 1.98051 8.5 2.23478 8.5 2.5C8.5 2.76522 8.39457 3.01949 8.20703 3.20703C8.01949 3.39457 7.76522 3.5 7.5 3.5C7.76522 3.5 8.01949 3.60543 8.20703 3.79297C8.39457 3.98051 8.5 4.23478 8.5 4.5C8.5 4.76522 8.39457 5.01949 8.20703 5.20703C8.01949 5.39457 7.76522 5.5 7.5 5.5ZM7.5 5.5C6.96957 5.5 6.46101 5.71086 6.08594 6.08594C5.71086 6.46101 5.5 6.96957 5.5 7.5V9.5H1.5C1.23478 9.5 0.980505 9.39457 0.792969 9.20703C0.605433 9.0195 0.5 8.76522 0.5 8.5V5.16113C0.644761 5.22993 0.793651 5.29041 0.947266 5.33887C1.39401 5.47973 1.86439 5.52812 2.33008 5.4834C2.33863 5.48487 2.34688 5.488 2.35547 5.48926L2.5 5.5C2.23478 5.5 1.9805 5.60543 1.79297 5.79297C1.60543 5.9805 1.5 6.23478 1.5 6.5C1.5 6.76522 1.60543 7.0195 1.79297 7.20703C1.9805 7.39457 2.23478 7.5 2.5 7.5H4.5C4.76522 7.5 5.0195 7.39457 5.20703 7.20703C5.39457 7.0195 5.5 6.76522 5.5 6.5C5.5 6.23478 5.39457 5.9805 5.20703 5.79297C5.0195 5.60543 4.76522 5.5 4.5 5.5H7.5ZM9 7.5L7.5 9V7.5H9Z" fill="#4B352A" stroke="#4B352A"/>
</svg>
