<svg width="12" height="12" viewBox="0 0 12 12" fill="none" xmlns="http://www.w3.org/2000/svg">
<path fill-rule="evenodd" clip-rule="evenodd" d="M0 6C0 2.68629 2.68629 0 6 0C9.31368 0 12 2.68629 12 6C12 9.31368 9.31368 12 6 12C2.68629 12 0 9.31368 0 6ZM4.62427 3.77573C4.38995 3.54142 4.01005 3.54142 3.77573 3.77573C3.54142 4.01005 3.54142 4.38995 3.77573 4.62427L5.15148 6L3.77573 7.37574C3.54142 7.61004 3.54142 7.98996 3.77573 8.22426C4.01005 8.45856 4.38995 8.45856 4.62427 8.22426L6 6.84852L7.37574 8.22426C7.61004 8.45856 7.98996 8.45856 8.22426 8.22426C8.45856 7.98996 8.45856 7.61004 8.22426 7.37574L6.84852 6L8.22426 4.62427C8.45856 4.38995 8.45856 4.01005 8.22426 3.77573C7.98996 3.54142 7.61004 3.54142 7.37574 3.77573L6 5.15148L4.62427 3.77573Z" fill="#4B352A"/>
</svg>
