<svg width="10" height="10" viewBox="0 0 10 10" fill="none" xmlns="http://www.w3.org/2000/svg">
<g clip-path="url(#clip0_124_254)">
<path d="M4.79183 0.833984C2.6085 0.833984 0.833496 2.60898 0.833496 4.79232C0.833496 6.97565 2.6085 8.75065 4.79183 8.75065C6.97516 8.75065 8.75016 6.97565 8.75016 4.79232C8.75016 2.60898 6.97516 0.833984 4.79183 0.833984ZM4.79183 5.72982H3.54183C3.371 5.72982 3.22933 5.58815 3.22933 5.41732C3.22933 5.24648 3.371 5.10482 3.54183 5.10482H4.79183C4.96266 5.10482 5.10433 5.24648 5.10433 5.41732C5.10433 5.58815 4.96266 5.72982 4.79183 5.72982ZM6.04183 4.47982H3.54183C3.371 4.47982 3.22933 4.33815 3.22933 4.16732C3.22933 3.99648 3.371 3.85482 3.54183 3.85482H6.04183C6.21266 3.85482 6.35433 3.99648 6.35433 4.16732C6.35433 4.33815 6.21266 4.47982 6.04183 4.47982Z" fill="#4B352A"/>
<path d="M8.87555 9.16771C8.80055 9.16771 8.72555 9.13854 8.67139 9.08437L7.89639 8.30937C7.78389 8.19687 7.78389 8.01354 7.89639 7.89688C8.00889 7.78438 8.19222 7.78438 8.30889 7.89688L9.08389 8.67187C9.19639 8.78437 9.19639 8.96771 9.08389 9.08437C9.02555 9.13854 8.95055 9.16771 8.87555 9.16771Z" fill="#4B352A"/>
</g>
<defs>
<clipPath id="clip0_124_254">
<rect width="10" height="10" fill="white"/>
</clipPath>
</defs>
</svg>
