<svg width="8" height="10" viewBox="0 0 8 10" fill="none" xmlns="http://www.w3.org/2000/svg">
<path d="M1.87244 2.30895H1.51653V1.68435H1.86356C2.0883 1.68435 2.22857 1.79229 2.22857 1.99358V1.99927C2.22857 2.17461 2.09673 2.30895 1.87244 2.30895ZM4.42982 2.30577V2.30007C4.42982 1.93802 4.18208 1.68435 3.81433 1.68435H3.46707V2.91579H3.81433C4.18208 2.91579 4.42982 2.66782 4.42982 2.30577ZM7.94061 1.13854V8.86146C7.94061 9.49016 7.43123 10 6.80208 10H1.13854C0.509609 10 0 9.49016 0 8.86146V1.13854C0 0.509837 0.509609 0 1.13854 0H6.80185C7.43055 0 7.94061 0.509837 7.94061 1.13854ZM3.01712 3.09682C3.01712 3.22229 3.11663 3.32157 3.24187 3.32157H3.81387C4.45578 3.32157 4.89981 2.87503 4.89981 2.30007V2.29438C4.89981 1.71942 4.45646 1.27881 3.81387 1.27881H3.24187C3.1164 1.27881 3.01712 1.37809 3.01712 1.50355V3.09682ZM1.06704 3.11413C1.06704 3.23982 1.16632 3.33887 1.29178 3.33887C1.41725 3.33887 1.5163 3.23959 1.5163 3.11413V2.70881H1.85786C2.31601 2.70881 2.68353 2.46379 2.68353 1.99107V1.98493C2.68353 1.56777 2.38888 1.27881 1.90136 1.27881H1.29156C1.16586 1.27881 1.06681 1.37809 1.06681 1.50355L1.06704 3.11413ZM6.87358 8.26601C6.87358 8.01462 6.66955 7.81059 6.41816 7.81059H1.52245C1.27106 7.81059 1.06704 8.01462 1.06704 8.26601C1.06704 8.5174 1.27106 8.72142 1.52245 8.72142H6.41816C6.66955 8.72142 6.87358 8.5174 6.87358 8.26601ZM6.87358 6.5582C6.87358 6.30681 6.66955 6.10279 6.41816 6.10279H1.52245C1.27106 6.10279 1.06704 6.30681 1.06704 6.5582C1.06704 6.80959 1.27106 7.01362 1.52245 7.01362H6.41816C6.66955 7.01362 6.87358 6.80959 6.87358 6.5582ZM6.87358 4.8504C6.87358 4.59901 6.66955 4.39498 6.41816 4.39498H3.23026C2.97887 4.39498 2.77484 4.59901 2.77484 4.8504C2.77484 5.10179 2.97887 5.30581 3.23026 5.30581H6.41816C6.66955 5.30581 6.87358 5.10179 6.87358 4.8504ZM6.87358 1.48306C6.87358 1.3692 6.7834 1.27881 6.66955 1.27881H5.52555C5.39985 1.27881 5.30126 1.37809 5.30126 1.50355V3.11413C5.30126 3.23982 5.40054 3.33887 5.52555 3.33887C5.65102 3.33887 5.75007 3.23959 5.75007 3.11413V2.53074H6.53794C6.65179 2.53074 6.74219 2.44034 6.74219 2.32649C6.74219 2.21263 6.65179 2.12223 6.53794 2.12223H5.75007V1.68731H6.66932C6.78318 1.68708 6.87358 1.59691 6.87358 1.48306Z" fill="#4B352A"/>
</svg>
