<svg width="12" height="12" viewBox="0 0 12 12" fill="none" xmlns="http://www.w3.org/2000/svg">
<path fill-rule="evenodd" clip-rule="evenodd" d="M0 6C0 2.68629 2.68629 0 6 0C9.31368 0 12 2.68629 12 6C12 9.31368 9.31368 12 6 12C2.68629 12 0 9.31368 0 6ZM4.2 5.7C4.2 4.87158 4.87158 4.2 5.7 4.2C6.52842 4.2 7.2 4.87158 7.2 5.7C7.2 6.52842 6.52842 7.2 5.7 7.2C4.87158 7.2 4.2 6.52842 4.2 5.7ZM5.7 3C4.20883 3 3 4.20883 3 5.7C3 7.19118 4.20883 8.4 5.7 8.4C6.2283 8.4 6.7212 8.24826 7.13742 7.986L7.97574 8.82426C8.21004 9.05856 8.58996 9.05856 8.82426 8.82426C9.05856 8.58996 9.05856 8.21004 8.82426 7.97574L7.986 7.13742C8.24826 6.7212 8.4 6.2283 8.4 5.7C8.4 4.20883 7.19118 3 5.7 3Z" fill="#4B352A"/>
</svg>
