<svg width="58" height="58" viewBox="0 0 58 58" fill="none" xmlns="http://www.w3.org/2000/svg">
<path fill-rule="evenodd" clip-rule="evenodd" d="M51.4649 16.783C51.7829 15.6211 51.5393 14.376 50.8085 13.419C50.0777 12.462 48.9409 11.8994 47.7365 11.8994C36.0775 11.8994 8.33179 11.8994 8.33179 11.8994L14.1308 33.1661H44.0441C45.7876 33.1661 47.3169 31.9984 47.7748 30.3163C48.7176 26.8576 50.3236 20.9706 51.4649 16.783Z" fill="#CCAFA0"/>
<path d="M21.8647 56.3671C24.0002 56.3671 25.7314 54.6359 25.7314 52.5004C25.7314 50.365 24.0002 48.6338 21.8647 48.6338C19.7292 48.6338 17.998 50.365 17.998 52.5004C17.998 54.6359 19.7292 56.3671 21.8647 56.3671Z" fill="#CCAFA0"/>
<path d="M41.1975 56.3671C43.333 56.3671 45.0641 54.6359 45.0641 52.5004C45.0641 50.365 43.333 48.6338 41.1975 48.6338C39.062 48.6338 37.3308 50.365 37.3308 52.5004C37.3308 54.6359 39.062 56.3671 41.1975 56.3671Z" fill="#CCAFA0"/>
<path d="M46.3998 21.2659C51.7386 21.2659 56.0665 16.938 56.0665 11.5993C56.0665 6.26053 51.7386 1.93262 46.3998 1.93262C41.0611 1.93262 36.7332 6.26053 36.7332 11.5993C36.7332 16.938 41.0611 21.2659 46.3998 21.2659Z" fill="#CCAFA0"/>
<path fill-rule="evenodd" clip-rule="evenodd" d="M21.2667 46.4C18.0651 46.4 15.4667 48.9984 15.4667 52.2C15.4667 55.4016 18.0651 58 21.2667 58C24.4683 58 27.0667 55.4016 27.0667 52.2C27.0667 48.9984 24.4683 46.4 21.2667 46.4ZM40.6 46.4C37.3984 46.4 34.8 48.9984 34.8 52.2C34.8 55.4016 37.3984 58 40.6 58C43.8016 58 46.4 55.4016 46.4 52.2C46.4 48.9984 43.8016 46.4 40.6 46.4ZM21.2667 50.2667C22.3339 50.2667 23.2 51.1328 23.2 52.2C23.2 53.2672 22.3339 54.1333 21.2667 54.1333C20.1995 54.1333 19.3333 53.2672 19.3333 52.2C19.3333 51.1328 20.1995 50.2667 21.2667 50.2667ZM40.6 50.2667C41.6672 50.2667 42.5333 51.1328 42.5333 52.2C42.5333 53.2672 41.6672 54.1333 40.6 54.1333C39.5328 54.1333 38.6667 53.2672 38.6667 52.2C38.6667 51.1328 39.5328 50.2667 40.6 50.2667ZM34.9605 9.66667H9.12727L8.07554 6.51146C7.54774 4.93193 6.07067 3.86667 4.40607 3.86667C3.29827 3.86667 1.93333 3.86667 1.93333 3.86667C0.866133 3.86667 0 4.7328 0 5.8C0 6.8672 0.866133 7.73333 1.93333 7.73333H4.40607L5.88313 12.1607L11.6619 33.3558L12.8586 38.1408C13.5043 40.7218 15.8243 42.5333 18.4865 42.5333H46.4C47.4672 42.5333 48.3333 41.6672 48.3333 40.6C48.3333 39.5328 47.4672 38.6667 46.4 38.6667H18.4865C17.5991 38.6667 16.8258 38.0635 16.6093 37.2031L16.0099 34.8H43.4459C46.0617 34.8 48.3546 33.0503 49.0429 30.5254L51.2005 22.6123C51.2449 22.4518 51.2662 22.2894 51.2681 22.1309C55.2411 20.2884 58 16.2632 58 11.6C58 5.19873 52.8013 0 46.4 0C40.6561 0 35.8827 4.18373 34.9605 9.66667ZM34.9605 13.5333H10.2641L15.0104 30.9333H43.4459C44.3178 30.9333 45.0815 30.3495 45.3115 29.5085L47.038 23.1826C46.8273 23.1942 46.6146 23.2 46.4 23.2C40.6561 23.2 35.8827 19.0163 34.9605 13.5333ZM46.4 3.86667C50.6688 3.86667 54.1333 7.3312 54.1333 11.6C54.1333 15.8688 50.6688 19.3333 46.4 19.3333C42.1312 19.3333 38.6667 15.8688 38.6667 11.6C38.6667 7.3312 42.1312 3.86667 46.4 3.86667ZM44.4667 9.66667H42.5333C41.4661 9.66667 40.6 10.5328 40.6 11.6C40.6 12.6672 41.4661 13.5333 42.5333 13.5333H44.4667V15.4667C44.4667 16.5339 45.3328 17.4 46.4 17.4C47.4672 17.4 48.3333 16.5339 48.3333 15.4667V13.5333H50.2667C51.3339 13.5333 52.2 12.6672 52.2 11.6C52.2 10.5328 51.3339 9.66667 50.2667 9.66667H48.3333V7.73333C48.3333 6.66613 47.4672 5.8 46.4 5.8C45.3328 5.8 44.4667 6.66613 44.4667 7.73333V9.66667Z" fill="#3D1A07"/>
</svg>
