<svg width="19" height="15" viewBox="0 0 19 15" fill="none" xmlns="http://www.w3.org/2000/svg">
<path d="M11.9275 7.88103C11.8539 8.06467 11.7269 8.22197 11.5628 8.33253C11.3988 8.44308 11.2053 8.50179 11.0075 8.50103H10.0075V14.001C10.0075 14.2662 9.90211 14.5206 9.71457 14.7081C9.52703 14.8957 9.27268 15.001 9.00746 15.001C8.74225 15.001 8.48789 14.8957 8.30036 14.7081C8.11282 14.5206 8.00746 14.2662 8.00746 14.001V8.50103H7.00746C6.80964 8.50179 6.61616 8.44308 6.45211 8.33253C6.28806 8.22197 6.16102 8.06467 6.08746 7.88103C6.01088 7.69892 5.98996 7.49821 6.02734 7.30422C6.06471 7.11023 6.15871 6.93166 6.29746 6.79103L8.29746 4.79103C8.48703 4.60512 8.74195 4.50098 9.00746 4.50098C9.27298 4.50098 9.5279 4.60512 9.71746 4.79103L11.7175 6.79103C11.8562 6.93166 11.9502 7.11023 11.9876 7.30422C12.025 7.49821 12.004 7.69892 11.9275 7.88103Z" fill="#CCAFA0"/>
<path d="M14.2974 4.01078C13.9739 2.85674 13.2818 1.84017 12.3267 1.11605C11.3716 0.391936 10.206 0 9.00743 0C7.80889 0 6.64323 0.391936 5.68815 1.11605C4.73308 1.84017 4.04101 2.85674 3.71743 4.01078C2.68299 4.08404 1.71744 4.55618 1.0244 5.32763C0.331363 6.09908 -0.0349799 7.10953 0.00263473 8.14587C0.0402494 9.18222 0.478881 10.1635 1.22602 10.8826C1.97316 11.6018 2.97041 12.0027 4.00743 12.0008H6.00743V10.3308C5.60995 10.1916 5.24667 9.9694 4.94181 9.67885C4.63695 9.3883 4.39751 9.03613 4.23943 8.64578C4.01132 8.09822 3.95066 7.49532 4.06511 6.91328C4.17955 6.33125 4.46398 5.79621 4.88243 5.37578L6.88243 3.37578L6.90043 3.35878L6.92043 3.34078C7.48186 2.80205 8.22983 2.50123 9.00793 2.50123C9.78603 2.50123 10.534 2.80205 11.0954 3.34078L11.1154 3.35878L11.1324 3.37678L13.1574 5.40078C13.5076 5.76274 13.7613 6.20671 13.8956 6.69207C14.0298 7.17744 14.0402 7.68872 13.9258 8.17914C13.8114 8.66957 13.5759 9.12348 13.2407 9.49936C12.9056 9.87524 12.4816 10.1611 12.0074 10.3308V12.0008H14.0074C15.0445 12.0027 16.0417 11.6018 16.7888 10.8826C17.536 10.1635 17.9746 9.18222 18.0122 8.14587C18.0498 7.10953 17.6835 6.09908 16.9905 5.32763C16.2974 4.55618 15.3319 4.08404 14.2974 4.01078Z" fill="#CCAFA0"/>
</svg>
