<svg width="61" height="61" viewBox="0 0 61 61" fill="none" xmlns="http://www.w3.org/2000/svg">
<path d="M36.112 39.6207L36.3833 39.8473L56.5066 59.6015C55.068 60.4884 53.3735 61 51.5595 61H18.1548C16.3408 61 14.6463 60.4884 13.2077 59.6015L33.331 39.8473L33.574 39.6411C34.3269 39.0911 35.3523 39.0843 36.112 39.6207ZM51.5595 8.71428C56.7734 8.71428 61 12.9409 61 18.1548V51.5595C61 53.381 60.4842 55.0819 59.5906 56.5243L39.4357 36.738L39.0624 36.3985C36.6434 34.3612 33.0973 34.3556 30.6721 36.3815L30.2786 36.738L10.1237 56.5243C9.23012 55.0819 8.71428 53.381 8.71428 51.5595V33.4102C10.9499 34.3424 13.4029 34.8571 15.9762 34.8571C26.4039 34.8571 34.8571 26.4039 34.8571 15.9762C34.8571 13.4029 34.3424 10.9499 33.4102 8.71428H51.5595ZM15.9762 0C24.7996 0 31.9524 7.15278 31.9524 15.9762C31.9524 24.7996 24.7996 31.9524 15.9762 31.9524C7.15278 31.9524 0 24.7996 0 15.9762C0 7.15278 7.15278 0 15.9762 0ZM45.7561 17.4286C42.1432 17.4286 39.2143 20.3575 39.2143 23.9704C39.2143 27.5834 42.1432 30.5123 45.7561 30.5123C49.3691 30.5123 52.298 27.5834 52.298 23.9704C52.298 20.3575 49.3691 17.4286 45.7561 17.4286ZM45.7561 21.7857C46.9627 21.7857 47.9409 22.7638 47.9409 23.9704C47.9409 25.177 46.9627 26.1551 45.7561 26.1551C44.5496 26.1551 43.5714 25.177 43.5714 23.9704C43.5714 22.7638 44.5496 21.7857 45.7561 21.7857ZM15.9762 5.8073L15.7151 5.8307C15.1223 5.9383 14.6548 6.40577 14.5472 6.99861L14.5238 7.25968L14.5228 14.5216L7.25508 14.5238L6.99401 14.5472C6.40117 14.6548 5.9337 15.1223 5.8261 15.7151L5.8027 15.9762L5.8261 16.2373C5.9337 16.8301 6.40117 17.2976 6.99401 17.4052L7.25508 17.4286L14.5257 17.4263L14.527 24.7006L14.5504 24.9617C14.658 25.5545 15.1255 26.022 15.7183 26.1296L15.9794 26.153L16.2405 26.1296C16.8333 26.022 17.3008 25.5545 17.4084 24.9617L17.4318 24.7006L17.4305 17.4263L24.7037 17.4286L24.9648 17.4052C25.5576 17.2976 26.0251 16.8301 26.1327 16.2373L26.1561 15.9762L26.1327 15.7151C26.0251 15.1223 25.5576 14.6548 24.9648 14.5472L24.7037 14.5238L17.4276 14.5216L17.4286 7.25968L17.4052 6.99861C17.2976 6.40577 16.8301 5.9383 16.2373 5.8307L15.9762 5.8073Z" fill="#CCAFA0"/>
</svg>
