<svg width="21" height="21" viewBox="0 0 21 21" fill="none" xmlns="http://www.w3.org/2000/svg">
<path d="M14.2868 0H5.84962C2.1848 0 0 2.18371 0 5.84671V14.2696C0 17.9427 2.1848 20.1264 5.84962 20.1264H14.2767C17.9415 20.1264 20.1263 17.9427 20.1263 14.2797V5.84671C20.1364 2.18371 17.9516 0 14.2868 0ZM9.01104 15.608C8.71906 15.8998 8.16531 16.1816 7.76258 16.242L5.2858 16.5942C5.19519 16.6042 5.10458 16.6143 5.01396 16.6143C4.60117 16.6143 4.21858 16.4734 3.94673 16.2017C3.61448 15.8696 3.47353 15.3866 3.55407 14.8533L3.90646 12.3777C3.96687 11.9651 4.23871 11.4217 4.54076 11.1299L9.03117 6.6417C9.11172 6.85303 9.19226 7.06435 9.30301 7.30587C9.4037 7.5172 9.51445 7.73859 9.63527 7.93985C9.73595 8.11092 9.8467 8.27193 9.93731 8.39269C10.0481 8.56377 10.1789 8.72478 10.2595 8.81535C10.3098 8.88579 10.3501 8.9361 10.3702 8.95623C10.6219 9.25813 10.9139 9.5399 11.1656 9.75122C11.2361 9.82166 11.2764 9.86192 11.2965 9.87198C11.4475 9.99274 11.5986 10.1135 11.7295 10.2041C11.8905 10.3248 12.0516 10.4355 12.2228 10.5261C12.4242 10.6468 12.6457 10.7575 12.8672 10.8682C13.0987 10.9689 13.3102 11.0594 13.5216 11.1299L9.01104 15.608ZM15.4748 9.14743L14.5485 10.0833C14.4881 10.1437 14.4076 10.1739 14.327 10.1739C14.2968 10.1739 14.2566 10.1739 14.2364 10.1638C12.1926 9.58015 10.5615 7.94991 9.97758 5.90709C9.94738 5.79639 9.97758 5.67563 10.0581 5.60519L10.9945 4.66932C12.5248 3.13971 13.9847 3.1699 15.4849 4.66932C16.2501 5.43412 16.6226 6.16873 16.6226 6.93353C16.6125 7.65808 16.24 8.38263 15.4748 9.14743Z" fill="#3D1A07"/>
</svg>
