<svg width="12" height="13" viewBox="0 0 12 13" fill="none" xmlns="http://www.w3.org/2000/svg">
<path fill-rule="evenodd" clip-rule="evenodd" d="M11.3 5.71121V8.84595C11.3 10.7899 11.3 11.7619 10.8391 12.1866C10.6194 12.3892 10.3419 12.5164 10.0464 12.5502C9.42671 12.6212 8.70307 11.9811 7.25573 10.701C6.61602 10.1352 6.29611 9.85222 5.92603 9.7777C5.74379 9.74097 5.55621 9.74097 5.37396 9.7777C5.00389 9.85222 4.68397 10.1352 4.04424 10.701C2.59695 11.9811 1.8733 12.6212 1.25362 12.5502C0.958083 12.5164 0.680643 12.3892 0.460858 12.1866C7.48369e-08 11.7619 0 10.7899 0 8.84595V5.71121C0 3.01893 -7.48369e-08 1.67278 0.827423 0.836388C1.65485 0 2.98656 0 5.65 0C8.31341 0 9.64517 0 10.4726 0.836388C11.3 1.67278 11.3 3.01893 11.3 5.71121ZM3.29583 2.51111C3.29583 2.25108 3.50663 2.04028 3.76667 2.04028H7.53333C7.79336 2.04028 8.00416 2.25108 8.00416 2.51111C8.00416 2.77114 7.79336 2.98194 7.53333 2.98194H3.76667C3.50663 2.98194 3.29583 2.77114 3.29583 2.51111Z" fill="#BDC15D"/>
</svg>
