<svg width="15" height="15" viewBox="0 0 15 15" fill="none" xmlns="http://www.w3.org/2000/svg">
<path d="M5.218 2.6983V1.25661C5.218 1.12924 5.2686 1.00709 5.35867 0.917027C5.44874 0.826964 5.5709 0.776367 5.69827 0.776367H9.54048C9.66786 0.776367 9.79002 0.826964 9.88009 0.917027C9.97016 1.00709 10.0208 1.12924 10.0208 1.25661V2.6983H13.863C13.9904 2.6983 14.1125 2.74889 14.2026 2.83896C14.2926 2.92902 14.3432 3.05117 14.3432 3.17854C14.3432 3.30591 14.2926 3.42806 14.2026 3.51812C14.1125 3.60819 13.9904 3.65878 13.863 3.65878H1.37578C1.24841 3.65878 1.12625 3.60819 1.03618 3.51812C0.946108 3.42806 0.895508 3.30591 0.895508 3.17854C0.895508 3.05117 0.946108 2.92902 1.03618 2.83896C1.12625 2.74889 1.24841 2.6983 1.37578 2.6983H5.218ZM6.17855 2.6983H9.06021V1.73781H6.17855V2.6983ZM2.81661 14.2241C2.68924 14.2241 2.56708 14.1735 2.47701 14.0835C2.38694 13.9934 2.33634 13.8712 2.33634 13.7439V3.65878H12.9024V13.7439C12.9024 13.8712 12.8518 13.9934 12.7618 14.0835C12.6717 14.1735 12.5495 14.2241 12.4221 14.2241H2.81661ZM6.17855 11.3427C6.30593 11.3427 6.42809 11.2921 6.51816 11.202C6.60823 11.1119 6.65883 10.9898 6.65883 10.8624V6.06C6.65883 5.93263 6.60823 5.81048 6.51816 5.72041C6.42809 5.63035 6.30593 5.57975 6.17855 5.57975C6.05117 5.57975 5.92901 5.63035 5.83894 5.72041C5.74887 5.81048 5.69827 5.93263 5.69827 6.06V10.8624C5.69827 10.9898 5.74887 11.1119 5.83894 11.202C5.92901 11.2921 6.05117 11.3427 6.17855 11.3427ZM9.06021 11.3427C9.18759 11.3427 9.30975 11.2921 9.39982 11.202C9.48988 11.1119 9.54048 10.9898 9.54048 10.8624V6.06C9.54048 5.93263 9.48988 5.81048 9.39982 5.72041C9.30975 5.63035 9.18759 5.57975 9.06021 5.57975C8.93283 5.57975 8.81067 5.63035 8.7206 5.72041C8.63053 5.81048 8.57993 5.93263 8.57993 6.06V10.8624C8.57993 10.9898 8.63053 11.1119 8.7206 11.202C8.81067 11.2921 8.93283 11.3427 9.06021 11.3427Z" fill="#A02222"/>
</svg>
