<svg width="71" height="61" viewBox="0 0 71 61" fill="none" xmlns="http://www.w3.org/2000/svg">
<path d="M26.7199 4.56635e-05C24.0343 5.46757e-05 21.4091 0.796868 19.1767 2.28962C16.9442 3.78236 15.2048 5.90393 14.1787 8.38573C13.1526 10.8675 12.8859 13.598 13.4124 16.2314C13.9389 18.8649 15.2349 21.2829 17.1363 23.1794C19.0377 25.0759 21.4591 26.3657 24.0939 26.8853C26.7287 27.405 29.4585 27.1312 31.9376 26.0987C34.4168 25.0661 36.5338 23.3212 38.0208 21.0849C39.5077 18.8486 40.2977 16.2213 40.2908 13.5358C40.2908 11.7553 39.9395 9.99227 39.2571 8.34774C38.5746 6.70321 37.5744 5.20948 36.3138 3.95212C35.0532 2.69475 33.5569 1.69845 31.9106 1.02028C30.2643 0.34212 28.5004 -0.00457901 26.7199 4.56635e-05ZM50.4513 27.0012C50.2425 27.0053 50.0414 27.0808 49.8815 27.2152C49.7216 27.3495 49.6125 27.5345 49.5724 27.7395L48.9396 32.2045C47.9276 32.6332 46.9617 33.1633 46.0566 33.7866L41.8377 32.099C41.6365 32.0651 41.4298 32.0901 41.2426 32.1713C41.0554 32.2524 40.8957 32.3861 40.783 32.5561L37.2672 38.3923C37.1646 38.5687 37.1294 38.7764 37.1682 38.9768C37.207 39.1772 37.3171 39.3568 37.4781 39.4822L40.9939 42.2596C40.8446 43.4268 40.8446 44.6082 40.9939 45.7754L37.4781 48.5529C37.3198 48.6722 37.2108 48.8456 37.1719 49.0401C37.133 49.2345 37.1669 49.4365 37.2672 49.6076L40.783 55.4789C40.9939 55.936 41.451 55.936 41.8377 55.936L46.0566 54.2133C46.9479 54.8681 47.9161 55.4112 48.9396 55.8305L49.5724 60.2956C49.6067 60.5004 49.7153 60.6854 49.8775 60.8151C50.0397 60.9448 50.244 61.0102 50.4513 60.9987H57.2368C57.4321 60.9933 57.6196 60.9202 57.767 60.792C57.9145 60.6637 58.0129 60.4883 58.0454 60.2956L58.6782 55.8305C59.6758 55.3812 60.6292 54.8398 61.526 54.2133L65.7098 55.936C66.1317 55.936 66.5887 55.936 66.8348 55.4789L70.3506 49.6076C70.4509 49.4365 70.4848 49.2345 70.4459 49.0401C70.407 48.8456 70.298 48.6722 70.1397 48.5529L66.6239 45.7754C66.6591 45.2017 66.6591 44.6264 66.6239 44.0527C66.6746 43.4913 66.6746 42.9265 66.6239 42.3651L70.1397 39.5876C70.2948 39.458 70.4005 39.2788 70.439 39.0802C70.4774 38.8817 70.4462 38.676 70.3506 38.4978L66.8348 32.6616C66.6239 32.2045 66.1668 32.2045 65.7449 32.2045L61.526 34.0327C60.629 33.3963 59.6617 32.8654 58.6431 32.4506L58.0102 27.9856C57.9933 27.7895 57.9054 27.6063 57.763 27.4704C57.6206 27.3344 57.4335 27.2551 57.2368 27.2473H50.8381M27.1066 34.0327C12.1294 34.0327 0 40.0095 0 47.4981V54.2484H32.8022C31.3222 51.1216 30.5545 47.7054 30.5545 44.246C30.5545 40.7867 31.3222 37.3705 32.8022 34.2437C30.9095 34.0598 29.0076 33.9894 27.1066 34.0327ZM53.8265 39.0603C54.5292 39.0018 55.2363 39.0897 55.9033 39.3184C56.5703 39.5472 57.1826 39.9118 57.7014 40.3893C58.2203 40.8667 58.6345 41.4466 58.9178 42.0923C59.2011 42.738 59.3473 43.4355 59.3473 44.1406C59.3473 44.8457 59.2011 45.5431 58.9178 46.1888C58.6345 46.8345 58.2203 47.4144 57.7014 47.8919C57.1826 48.3693 56.5703 48.734 55.9033 48.9627C55.2363 49.1915 54.5292 49.2794 53.8265 49.2209C52.5521 49.1148 51.3641 48.5336 50.4982 47.5925C49.6322 46.6515 49.1516 45.4194 49.1516 44.1406C49.1516 42.8618 49.6322 41.6297 50.4982 40.6886C51.3641 39.7476 52.5521 39.1664 53.8265 39.0603Z" fill="#CCAFA0"/>
</svg>
