<svg width="23" height="20" viewBox="0 0 23 20" fill="none" xmlns="http://www.w3.org/2000/svg">
<path d="M18.0459 11.9533L18.2825 12.1868L19.1018 13.0061C19.2298 13.1249 19.3314 13.2692 19.4002 13.4297C19.4473 13.5426 19.4735 13.663 19.4775 13.7853C19.4801 13.8768 19.4588 13.9674 19.4156 14.0481C19.3877 14.1014 19.3534 14.1513 19.3136 14.1965L18.9488 14.5613C18.8488 14.6783 18.7088 14.7539 18.5561 14.7731C18.4339 14.7808 18.3117 14.758 18.2005 14.7067C18.0971 14.6586 18.0017 14.595 17.9176 14.5181C17.8604 14.4666 17.8042 14.414 17.7491 14.3604L16.5927 13.1808C16.5657 13.1506 16.5328 13.1261 16.496 13.1089C16.4592 13.0916 16.4194 13.082 16.3788 13.0806C16.3382 13.0791 16.2978 13.0859 16.2599 13.1005C16.222 13.115 16.1875 13.1371 16.1583 13.1653L16.1073 13.2241C16.0729 13.2579 16.0455 13.2982 16.0267 13.3427C16.0079 13.3872 15.9981 13.4349 15.9978 13.4832C15.9975 13.5314 16.0068 13.5793 16.025 13.624C16.0433 13.6687 16.0702 13.7093 16.1042 13.7435L17.4801 15.0901C17.5926 15.194 17.6844 15.3184 17.7506 15.4565C17.8038 15.5611 17.8333 15.6762 17.8372 15.7935C17.8393 15.8849 17.8181 15.9754 17.7754 16.0563C17.7375 16.125 17.6907 16.1884 17.6362 16.2449L17.1756 16.7056C17.0786 16.8161 16.9484 16.8921 16.8045 16.922C16.6912 16.9385 16.5756 16.9252 16.4691 16.8834C16.3644 16.8424 16.2685 16.782 16.1861 16.7056C16.1177 16.6427 16.0507 16.5782 15.9852 16.5123L14.5567 15.0576C14.5324 15.0308 14.5028 15.0092 14.4699 14.9943C14.437 14.9793 14.4013 14.9712 14.3651 14.9705C14.3289 14.9697 14.293 14.9764 14.2595 14.9901C14.226 15.0037 14.1956 15.0241 14.1702 15.0499L14.0373 15.1844C13.9839 15.2397 13.9543 15.3137 13.9548 15.3906C13.9554 15.4675 13.9861 15.5411 14.0404 15.5956L15.3575 16.8849C15.483 17.0032 15.5884 17.141 15.6698 17.293C15.7258 17.398 15.7575 17.5143 15.7625 17.6332C15.7654 17.7257 15.744 17.8173 15.7007 17.8991C15.6623 17.9669 15.615 18.0293 15.56 18.0846L15.1952 18.451C14.8489 18.7581 14.4521 18.6875 14.0048 18.2392L12.6382 16.9035C12.6036 16.8685 12.5566 16.8486 12.5074 16.848C12.4582 16.8474 12.4108 16.8662 12.3754 16.9004L12.196 17.0457C12.1689 17.0719 12.1474 17.1033 12.133 17.1381C12.1185 17.1729 12.1113 17.2103 12.1119 17.248C12.1125 17.2857 12.1208 17.3229 12.1363 17.3572C12.1519 17.3915 12.1743 17.4223 12.2022 17.4476L13.0989 18.352C13.2245 18.4635 13.3161 18.6082 13.3632 18.7694C13.3918 18.8845 13.3934 19.0046 13.3679 19.1204C13.3413 19.238 13.2855 19.347 13.2055 19.4373L12.8407 19.8021C12.7347 19.9106 12.593 19.9771 12.4418 19.9892C12.3226 19.9941 12.2035 19.9763 12.0909 19.9366C11.96 19.8855 11.8418 19.8063 11.7446 19.7047L4.33176 12.2934C3.96747 11.9344 3.64395 11.5362 3.36709 11.1061C3.13114 10.7415 2.93914 10.3502 2.79509 9.94049C2.67276 9.58681 2.59587 9.21902 2.56628 8.84595C2.5384 8.51776 2.56082 8.18724 2.63276 7.86582L1.32643 6.55948L0 5.31035L5.22842 0L7.96476 2.79045L6.70017 4.05349L6.67234 4.08441L6.65379 4.10451C6.4011 4.38233 6.21127 4.71136 6.09724 5.06918C5.98506 5.42311 5.95441 5.79782 6.00758 6.16527C6.08537 6.68788 6.33569 7.16947 6.71872 7.53344L7.09284 7.90601L7.12685 7.93848L7.15004 7.96012C7.43793 8.21721 7.78482 8.39927 8.15995 8.49016C8.53507 8.58104 8.92683 8.57793 9.30046 8.48111C9.74685 8.36169 10.1514 8.12088 10.4692 7.78543L12.179 6.07405L12.785 6.68316L12.7912 6.69398L18.0428 11.9471L18.0459 11.9533ZM20.1175 7.98022C20.1311 8.16032 20.1311 8.3412 20.1175 8.5213C20.088 8.88905 20.0121 9.25161 19.8918 9.60038C19.7519 10.0008 19.5651 10.3833 19.3353 10.7397C19.2807 10.8257 19.224 10.9102 19.1652 10.9933L19.0786 10.9098L12.6985 4.52037C12.6304 4.45202 12.5495 4.39776 12.4604 4.36069C12.3713 4.32362 12.2758 4.30447 12.1793 4.30433C12.0829 4.30418 11.9873 4.32305 11.8981 4.35986C11.8089 4.39666 11.7279 4.45068 11.6596 4.51882L9.43187 6.74809C9.30059 6.89416 9.13154 7.00115 8.94335 7.05728C8.80552 7.09471 8.66064 7.09789 8.5213 7.06656L8.51357 7.06501C8.36661 7.02995 8.23096 6.95814 8.11935 6.85631L7.7576 6.4961C7.60429 6.35689 7.50107 6.17109 7.46387 5.96738C7.44007 5.81702 7.45064 5.66321 7.49479 5.51751L7.49942 5.50669C7.55109 5.34929 7.63597 5.20484 7.74832 5.0831L7.75296 5.07846L10.2574 2.57401C10.5206 2.31137 10.8354 2.10609 11.1819 1.97109C11.5334 1.83397 11.9014 1.74354 12.2764 1.7021C12.531 1.67322 12.787 1.65877 13.0432 1.65881C13.1732 1.65886 13.3031 1.66246 13.4328 1.66963C14.1214 1.70737 14.8062 1.79729 15.4812 1.93863L17.4121 0.00927579L22.6173 5.2145L20.1592 7.67103C20.1238 7.77001 20.1101 7.87546 20.119 7.98022H20.1175Z" fill="white"/>
</svg>
