<svg width="18" height="20" viewBox="0 0 18 20" fill="none" xmlns="http://www.w3.org/2000/svg">
<path d="M17.82 9.11249V4.7225C17.82 3.9025 17.2 2.9725 16.43 2.6625L10.86 0.3825C9.60996 -0.1275 8.19996 -0.1275 6.94996 0.3825L1.38 2.6625C0.62 2.9725 0 3.9025 0 4.7225V9.11249C0 14.0025 3.55 18.5825 8.39996 19.9225C8.72996 20.0125 9.08996 20.0125 9.41996 19.9225C14.27 18.5825 17.82 14.0025 17.82 9.11249ZM9.65996 10.8625V13.4925C9.65996 13.9025 9.31996 14.2425 8.90996 14.2425C8.49996 14.2425 8.15996 13.9025 8.15996 13.4925V10.8625C7.14996 10.5425 6.41 9.60249 6.41 8.49249C6.41 7.1125 7.52996 5.9925 8.90996 5.9925C10.29 5.9925 11.41 7.1125 11.41 8.49249C11.41 9.61249 10.67 10.5425 9.65996 10.8625Z" fill="white"/>
</svg>
