<svg width="23" height="23" viewBox="0 0 23 23" fill="none" xmlns="http://www.w3.org/2000/svg">
<path d="M9.32274 9.87692C9.83276 9.87692 10.3378 9.77646 10.809 9.58128C11.2802 9.38611 11.7083 9.10003 12.069 8.73939C12.4296 8.37875 12.7157 7.9506 12.9109 7.4794C13.1061 7.0082 13.2065 6.50317 13.2065 5.99315C13.2065 5.48312 13.1061 4.97809 12.9109 4.50689C12.7157 4.03569 12.4296 3.60755 12.069 3.24691C11.7083 2.88626 11.2802 2.60019 10.809 2.40501C10.3378 2.20983 9.83276 2.10937 9.32274 2.10938C8.2927 2.10938 7.30484 2.51856 6.5765 3.24691C5.84815 3.97525 5.43896 4.96311 5.43896 5.99315C5.43896 7.02319 5.84815 8.01104 6.5765 8.73939C7.30484 9.46774 8.2927 9.87692 9.32274 9.87692Z" fill="#CCAFA0" stroke="#CCAFA0" stroke-linecap="round" stroke-linejoin="round"/>
<path d="M17.0903 3.2193C17.0903 3.2193 18.3387 5.71601 17.0903 8.76754V3.2193ZM20.9741 1C20.9741 1 23.4708 5.49408 20.9741 10.9868V1Z" fill="#CCAFA0"/>
<path d="M17.0903 3.2193C17.0903 3.2193 18.3387 5.71601 17.0903 8.76754M20.9741 1C20.9741 1 23.4708 5.49408 20.9741 10.9868" stroke="#CCAFA0" stroke-linecap="round" stroke-linejoin="round"/>
<path d="M1 21.4172V22.083H17.6447V21.4172C17.6447 18.9316 17.6447 17.6888 17.1609 16.7389C16.7354 15.9038 16.0564 15.2248 15.2213 14.7992C14.2714 14.3154 13.0286 14.3154 10.543 14.3154H8.10175C5.61614 14.3154 4.37333 14.3154 3.42347 14.7992C2.58834 15.2248 1.90934 15.9038 1.48381 16.7389C1 17.6888 1 18.9316 1 21.4172Z" fill="#CCAFA0" stroke="#CCAFA0" stroke-linecap="round" stroke-linejoin="round"/>
</svg>
