<svg width="20" height="20" viewBox="0 0 20 20" fill="none" xmlns="http://www.w3.org/2000/svg">
<path d="M9.995 0C4.47776 0 0 4.47776 0 9.995C0 15.5122 4.47776 19.99 9.995 19.99C15.5122 19.99 19.99 15.5122 19.99 9.995C19.99 4.47776 15.5122 0 9.995 0ZM9.995 2.9985C11.6542 2.9985 12.9935 4.33783 12.9935 5.997C12.9935 7.65617 11.6542 8.9955 9.995 8.9955C8.33583 8.9955 6.9965 7.65617 6.9965 5.997C6.9965 4.33783 8.33583 2.9985 9.995 2.9985ZM9.995 17.1914C7.49625 17.1914 5.28735 15.912 3.998 13.973C4.02799 11.984 7.996 10.8945 9.995 10.8945C11.984 10.8945 15.962 11.984 15.992 13.973C14.7026 15.912 12.4937 17.1914 9.995 17.1914Z" fill="white"/>
</svg>
