<svg width="50" height="50" viewBox="0 0 50 50" fill="none" xmlns="http://www.w3.org/2000/svg">
<path d="M14.5831 43.7105C11.7373 43.492 9.03341 42.3799 6.85736 40.5331C4.68131 38.6863 3.14441 36.1991 2.46611 33.4268C1.78781 30.6545 2.0028 27.7387 3.08038 25.0958C4.15795 22.453 6.04302 20.2181 8.46641 18.7105C8.98206 14.6898 10.9452 10.9948 13.9883 8.31703C17.0315 5.63923 20.9462 4.16211 24.9997 4.16211C29.0533 4.16211 32.968 5.63923 36.0112 8.31703C39.0543 10.9948 41.0174 14.6898 41.5331 18.7105C43.9565 20.2181 45.8415 22.453 46.9191 25.0958C47.9967 27.7387 48.2117 30.6545 47.5334 33.4268C46.8551 36.1991 45.3182 38.6863 43.1421 40.5331C40.9661 42.3799 38.2621 43.492 35.4164 43.7105V43.75H14.5831V43.7105ZM27.0831 27.0834H33.3331L24.9997 16.6667L16.6664 27.0834H22.9164V35.4167H27.0831V27.0834Z" fill="#3D1A07"/>
</svg>
