<svg width="16" height="20" viewBox="0 0 16 20" fill="none" xmlns="http://www.w3.org/2000/svg">
<path d="M12.3851 14.7484L12.3838 19.2847C12.3838 19.8079 11.84 20.1536 11.3663 19.9316L7.62092 18.1765L3.87755 19.9316C3.4038 20.1537 2.85986 19.808 2.85986 19.2847L2.86013 14.7514C4.22189 15.6622 5.85912 16.1934 7.62042 16.1934C9.38363 16.1934 11.0225 15.6611 12.3851 14.7484ZM7.62042 0C11.8291 0 15.2408 3.41178 15.2408 7.62042C15.2408 11.8291 11.8291 15.2408 7.62042 15.2408C3.41178 15.2408 0 11.8291 0 7.62042C0 3.41178 3.41178 0 7.62042 0ZM7.43796 4.36851L7.40249 4.42208L6.53326 6.18682L4.58628 6.46817C4.40899 6.49379 4.32635 6.69034 4.41161 6.83241L4.45159 6.8827L5.86136 8.25472L5.52729 10.1933C5.49687 10.3699 5.65826 10.5092 5.81973 10.472L5.87991 10.4495L7.62042 9.53274L9.36093 10.4495C9.51935 10.533 9.70167 10.4227 9.71632 10.2577L9.71358 10.1935L9.38114 8.25472L10.7893 6.8826C10.9176 6.75762 10.8689 6.55014 10.7164 6.48534L10.6546 6.46817L8.70757 6.18682L7.83835 4.42208C7.76909 4.28146 7.59777 4.25022 7.48315 4.32833L7.43796 4.36851Z" fill="#81D26F"/>
</svg>
