<svg width="20" height="20" viewBox="0 0 20 20" fill="none" xmlns="http://www.w3.org/2000/svg">
<path d="M16.8631 3.59073C16.1701 2.96954 15.0796 3.00125 14.4273 3.66015C13.7747 4.31908 13.8074 5.35596 14.5004 5.97621C15.8177 7.15583 16.5434 8.75759 16.5434 10.4857C16.5434 13.919 13.6057 16.7122 9.99494 16.7122C6.38412 16.7122 3.44656 13.919 3.44656 10.4857C3.44656 8.75759 4.17205 7.15583 5.48958 5.97621C6.18259 5.356 6.21523 4.31912 5.56263 3.66015C4.91035 3.0009 3.81933 2.96954 3.12681 3.59073C1.13964 5.36974 0 7.88294 0 10.4857C0 15.7259 4.48372 19.9893 9.99498 19.9893C15.5061 19.9893 19.99 15.7259 19.99 10.4857C19.99 7.88294 18.8503 5.36974 16.8631 3.59073Z" fill="white"/>
<path d="M9.99475 10.4867C10.9465 10.4867 11.718 9.89975 11.718 9.17585V1.31085C11.718 0.586941 10.9465 0 9.99475 0C9.043 0 8.27148 0.586941 8.27148 1.31085V9.17589C8.27148 9.89975 9.043 10.4867 9.99475 10.4867Z" fill="white"/>
</svg>
