<svg width="15" height="15" viewBox="0 0 15 15" fill="none" xmlns="http://www.w3.org/2000/svg">
<path d="M10.7976 0H4.72668C2.08965 0 0.517578 1.57134 0.517578 4.20715V10.268C0.517578 12.9111 2.08965 14.4824 4.72668 14.4824H10.7904C13.4274 14.4824 14.9995 12.9111 14.9995 10.2753V4.20715C15.0067 1.57134 13.4347 0 10.7976 0ZM7.00148 11.2311C6.79138 11.4411 6.39293 11.6439 6.10315 11.6873L4.32098 11.9408C4.25578 11.948 4.19058 11.9553 4.12538 11.9553C3.82835 11.9553 3.55306 11.8539 3.35745 11.6584C3.11838 11.4194 3.01696 11.0718 3.07491 10.688L3.32848 8.9067C3.37194 8.60981 3.56755 8.21878 3.78488 8.00879L7.01597 4.7792C7.07392 4.93127 7.13188 5.08334 7.21157 5.25713C7.28402 5.40919 7.36371 5.5685 7.45064 5.71332C7.52309 5.83642 7.60278 5.95228 7.66798 6.03918C7.74767 6.16228 7.84185 6.27814 7.8998 6.34331C7.93603 6.394 7.96501 6.4302 7.9795 6.44468C8.16061 6.66192 8.3707 6.86468 8.55182 7.01674C8.60253 7.06743 8.63151 7.0964 8.646 7.10364C8.75467 7.19053 8.86333 7.27743 8.95751 7.3426C9.07343 7.42949 9.18934 7.50914 9.3125 7.57432C9.45739 7.66121 9.61677 7.74086 9.77615 7.82052C9.94278 7.89293 10.0949 7.9581 10.247 8.00879L7.00148 11.2311ZM11.6525 6.58227L10.986 7.2557C10.9425 7.29915 10.8846 7.32087 10.8266 7.32087C10.8049 7.32087 10.7759 7.32087 10.7614 7.31363C9.29076 6.89364 8.11714 5.72056 7.69696 4.2506C7.67522 4.17094 7.69696 4.08405 7.75491 4.03336L8.42866 3.35993C9.52984 2.25926 10.5803 2.28098 11.6597 3.35993C12.2103 3.91026 12.4784 4.43887 12.4784 4.9892C12.4711 5.51057 12.2031 6.03194 11.6525 6.58227Z" fill="#3D1A07"/>
</svg>
